<svg width="135" height="107" viewBox="0 0 135 107" fill="none" xmlns="http://www.w3.org/2000/svg">
<path d="M3.11787 106.038C-2.77944 98.5504 9.62195 82.1437 16.1606 73.0257C25.6928 59.7332 34.9282 48.499 48.3931 37.8946C64.8463 24.9368 85.563 15.6872 103.484 15.2631C110.187 15.1045 122.777 13.1146 127.096 17.062C128.165 18.0396 131.265 19.492 128.623 17.3032C124.966 14.2735 120.281 10.9938 114.524 10.7195C108.06 10.4115 98.4747 13.4641 91.4454 16.5019C86.1883 18.7739 76.5121 21.3279 71.9305 24.772C62.009 32.2304 53.1659 38.1685 42.4347 43.9108C36.3683 47.1568 30.6163 51.4321 25.3712 56.0858C21.7476 59.3009 20.1013 62.5825 17.5929 66.2425C15.3241 69.5529 12.2834 71.928 10.2596 75.2666C7.81552 79.2985 4.78736 84.1248 4.78102 88.0038C4.7772 90.3371 2.58282 92.9654 2.90861 95.1336C3.10985 96.473 4.10608 98.0733 3.60452 99.6391C0.839383 108.272 10.1866 87.7379 11.129 85.6515C13.7252 79.9039 14.9734 73.9559 18.2159 68.2786C19.4245 66.1625 20.6735 62.2994 22.5729 60.4555C28.4645 54.736 35.9845 48.75 42.5378 43.5889C63.4111 27.15 90.1375 13.3874 112.879 13.158C116.825 13.1182 119.368 15.7606 122.888 16.5858C124.463 16.955 125.466 17.901 126.907 18.2936C128.285 18.6692 123.68 12.6119 122.94 11.6718C121.045 9.26616 117.62 7.25492 120.097 3.08186C122.854 -1.56451 122.428 6.2583 122.571 8.71354C122.885 14.0968 134.935 22.1027 119.229 23.2578C115.942 23.4995 113.297 22.6727 110.043 22.912C106.878 23.1447 110.656 22.3403 111.96 22.0639C116.386 21.1256 120.326 21.9736 124.624 21.054C128.538 20.2166 128.092 19.8443 131.533 20.5459C135.736 21.4028 133.11 14.3996 132.511 13.639C130.917 11.615 125.802 2.09872 122.69 3.2054" stroke="white" stroke-width="1.5" stroke-linecap="round"/>
</svg>
