<svg width="63" height="64" viewBox="0 0 63 64" fill="none" xmlns="http://www.w3.org/2000/svg">
<path d="M0.503532 60.432C2.63551 61.4495 4.75625 61.1928 6.96776 60.8612C9.47701 60.485 11.5908 59.7982 13.5819 58.2841C17.1976 55.5348 18.5547 50.1914 19.5799 45.814C20.6602 41.2016 21.9958 36.7591 23.8706 32.4463C25.4375 28.842 27.5556 25.798 29.8814 22.7195C32.4424 19.3295 35.0358 16.0134 38.1495 13.1444C42.5386 9.10037 47.3745 5.68976 53.3174 4.45752C55.4416 4.01708 57.6802 3.82154 59.648 2.89572C60.6549 2.42198 60.5297 2.24612 59.524 1.99185C57.7577 1.54524 56.0162 1.41309 54.2351 1.13926C53.5861 1.03948 51.6829 0.445799 52.3086 0.674091C54.6627 1.53308 57.1713 1.88144 59.5837 2.45731C60.2929 2.6266 61.1202 2.65078 61.7588 2.8073C61.9197 2.84674 59.5899 5.22883 59.329 5.50839C57.7222 7.23023 56.3318 9.7622 55.9778 12.2031C55.966 12.2845 55.6941 13.11 55.675 12.8826C55.5959 11.941 56.0947 10.8754 56.4764 10.0852C57.0744 8.84741 57.8232 7.55654 58.5525 6.40284C59.0742 5.57758 59.9561 4.41106 60.0367 3.38546C60.0721 2.93514 58.7021 3.05725 58.4019 3.04111C57.1142 2.97189 55.6518 2.73148 54.4317 2.18772C53.5183 1.78064 52.4072 0.864864 51.4301 0.698257C50.7167 0.576621 52.7234 1.46037 53.4251 1.65921C54.719 2.0259 56.0567 2.11797 57.3636 2.41326C58.3979 2.64696 59.4681 2.68473 58.6601 3.80881C58.0185 4.70154 57.4334 6.213 57.1989 7.30378C56.7302 9.48351 55.6906 10.8335 54.4868 12.6054C54.0148 13.3002 54.8288 12.3125 54.8949 12.2053C55.6907 10.913 56.4195 9.5789 57.1814 8.26453C57.5842 7.5695 57.6445 7.01795 57.7475 6.19849C57.8952 5.02411 55.1777 5.99562 54.6718 6.24764C53.9962 6.58423 53.2182 6.50836 52.5068 6.6961C50.9063 7.11847 49.3475 7.46226 47.7632 7.98474C45.5096 8.72797 42.8655 10.329 41.285 12.1308C40.095 13.4873 38.4671 14.6197 37.0811 15.7565C35.3228 17.1988 33.6462 18.8191 31.9624 20.3556C30.8664 21.3556 29.2549 22.5514 28.5107 23.8839C27.7264 25.2883 27.2502 26.8874 26.5394 28.3387C25.9317 29.5797 25.6666 30.9515 24.8732 32.1004C24.1283 33.179 23.5569 34.4184 22.8973 35.5608C22.2584 36.6674 21.431 37.8104 21.0924 39.0772C20.7642 40.3047 20.6474 41.5778 20.4081 42.8189C19.8375 45.7778 18.7676 48.7407 16.9373 51.034C15.7036 52.5798 14.1446 53.8406 12.8001 55.2889C11.4209 56.7746 10.0155 58.2493 8.67933 59.7733C6.9747 61.7176 4.90251 63.4639 2.1437 63.2361C1.78296 63.2063 1.407 63.178 1.04925 63.1017C0.966884 63.0841 2.03732 63.2245 2.23376 63.237C4.22012 63.3642 5.94241 63.1327 7.57604 62.0599C9.15459 61.0233 9.56969 58.7431 10.4282 57.1589C11.7726 54.6781 13.2145 52.3811 14.7016 49.9788C15.6113 48.5093 16.7564 47.0493 17.4549 45.4551C18.2608 43.6161 19.0388 41.7708 19.7737 39.8951C21.5473 35.3679 24.5528 31.6148 26.5124 27.1909C27.9649 23.9116 30.4061 21.3688 32.5791 18.6048C33.5973 17.3097 34.9433 16.2642 36.0974 15.0928C37.8501 13.314 39.9503 11.8771 41.9747 10.4402C44.429 8.69811 46.9079 6.99571 49.6315 5.68843C50.6865 5.18202 52.0336 4.58243 53.1998 4.4146C55.0152 4.15334 56.9093 3.84917 58.6556 3.42731" stroke="#222222" stroke-width="0.7" stroke-linecap="round"/>
</svg>
