<svg width="1079" height="405" viewBox="0 0 1079 405" fill="none" xmlns="http://www.w3.org/2000/svg">
<path d="M14.8188 1C14.8188 38.9528 -16.0901 113.36 14.5449 189.636C31.8454 232.712 65.1626 250.699 115.522 245.696C180.065 239.283 202.774 182.631 223.217 163.111C261.111 133.596 276.87 127.722 313.105 133.596C349.34 139.471 370.27 163.111 384.229 190.764C389.713 208.742 403.27 244.947 407.66 254.185C414.094 267.725 430.421 285.631 440.064 297.132C457.846 318.338 500.582 327.288 522.322 344.573C606.573 360.053 699.606 313.69 786.044 282.65C865.31 254.185 940.775 203.289 1028.33 245.696C1098.12 279.5 1079.18 337.082 1061.87 352.563C1031.46 379.763 916.659 374.98 913.169 403" stroke="white" stroke-width="2" stroke-linecap="square"/>
</svg>
