<svg width="285" height="284" viewBox="0 0 285 284" fill="none" xmlns="http://www.w3.org/2000/svg">
<line x1="285" y1="262.255" x2="3.05176e-05" y2="262.255" stroke="#8FFE09" stroke-opacity="0.89"/>
<line x1="285" y1="221.83" x2="3.05176e-05" y2="221.83" stroke="#8FFE09" stroke-opacity="0.89"/>
<line x1="285" y1="181.404" x2="3.05176e-05" y2="181.404" stroke="#8FFE09" stroke-opacity="0.89"/>
<line x1="285" y1="140.979" x2="3.05176e-05" y2="140.979" stroke="#8FFE09" stroke-opacity="0.89"/>
<line x1="285" y1="100.553" x2="3.05176e-05" y2="100.553" stroke="#8FFE09" stroke-opacity="0.89"/>
<line x1="285" y1="60.1279" x2="3.05176e-05" y2="60.1279" stroke="#8FFE09" stroke-opacity="0.89"/>
<line x1="285" y1="19.7021" x2="0.000152588" y2="19.7021" stroke="#8FFE09" stroke-opacity="0.89"/>
<line x1="264.277" y1="-3.05176e-05" x2="264.277" y2="283.181" stroke="#8FFE09" stroke-opacity="0.89"/>
<line x1="223.851" y1="-3.05176e-05" x2="223.851" y2="283.181" stroke="#8FFE09" stroke-opacity="0.89"/>
<line x1="183.426" y1="-3.05176e-05" x2="183.426" y2="283.181" stroke="#8FFE09" stroke-opacity="0.89"/>
<line x1="143" y1="-3.05176e-05" x2="143" y2="283.181" stroke="#8FFE09" stroke-opacity="0.89"/>
<line x1="102.574" y1="-3.05176e-05" x2="102.574" y2="283.181" stroke="#8FFE09" stroke-opacity="0.89"/>
<line x1="62.1494" y1="-3.05176e-05" x2="62.1494" y2="283.181" stroke="#8FFE09" stroke-opacity="0.89"/>
<line x1="21.7234" y1="-3.05176e-05" x2="21.7234" y2="283.181" stroke="#8FFE09" stroke-opacity="0.89"/>
</svg>
