<svg width="221" height="220" viewBox="0 0 221 220" fill="none" xmlns="http://www.w3.org/2000/svg">
<line x1="221" y1="203.475" x2="-6.10352e-05" y2="203.475" stroke="#FFEC44"/>
<line x1="221" y1="172.127" x2="-6.10352e-05" y2="172.127" stroke="#FFEC44"/>
<line x1="221" y1="140.78" x2="-6.10352e-05" y2="140.78" stroke="#FFEC44"/>
<line x1="221" y1="109.432" x2="-6.10352e-05" y2="109.432" stroke="#FFEC44"/>
<line x1="221" y1="78.0851" x2="-6.10352e-05" y2="78.0851" stroke="#FFEC44"/>
<line x1="221" y1="46.7378" x2="0.00012207" y2="46.7378" stroke="#FFEC44"/>
<line x1="221" y1="15.3901" x2="0.00012207" y2="15.3901" stroke="#FFEC44"/>
<line x1="205.043" y1="-0.00012207" x2="205.043" y2="219.589" stroke="#FFEC44"/>
<line x1="173.695" y1="-0.00012207" x2="173.695" y2="219.589" stroke="#FFEC44"/>
<line x1="142.347" y1="-0.00012207" x2="142.347" y2="219.589" stroke="#FFEC44"/>
<line x1="111" y1="-0.00012207" x2="111" y2="219.589" stroke="#FFEC44"/>
<line x1="79.6523" y1="-0.00012207" x2="79.6523" y2="219.589" stroke="#FFEC44"/>
<line x1="48.3052" y1="-0.00012207" x2="48.3052" y2="219.589" stroke="#FFEC44"/>
<line x1="16.9573" y1="-0.00012207" x2="16.9573" y2="219.589" stroke="#FFEC44"/>
</svg>
