<svg width="28" height="48" viewBox="0 0 28 48" fill="none" xmlns="http://www.w3.org/2000/svg">
<path d="M1.48093 26.8329C5.31724 30.6905 9.12167 34.14 13.9526 36.7133C17.822 38.7744 17.3962 36.2352 17.8166 32.9609C18.9909 23.8168 21.2837 15.2732 24.6025 6.67935C24.7553 6.28363 27.0082 -1.64838 26.5645 1.93718C26.1973 4.90427 25.0612 7.95697 24.2784 10.8411C21.7507 20.1547 18.5573 29.281 16.5847 38.7484C16.0756 41.1923 15.9453 43.81 15.0751 46.1632C14.4907 47.7434 14.165 47.2189 13.248 45.9562C9.69882 41.0689 7.74974 35.3946 4.36302 30.3983C3.32697 28.8699 -1.02011 24.4585 2.94526 28.4275C5.01451 30.4987 7.23716 32.4033 9.3452 34.4337C10.0985 35.1592 11.197 35.9796 11.5654 37.0195C11.8606 37.8526 12.0998 38.4301 12.7693 39.0211C13.3879 39.5671 13.8733 40.0304 14.4617 40.6248C14.5838 40.7482 15.281 41.8355 15.4586 41.5981C16.4637 40.2544 16.2208 36.8994 16.4536 35.3325C17.0764 31.1408 18.4725 27.1318 18.3779 22.8694C18.3256 20.5101 18.8544 18.1121 19.439 15.8384C20.3008 12.4867 21.209 9.19317 23.4197 6.51388" stroke="#A9D18E" stroke-width="1.5" stroke-linecap="round"/>
</svg>
