<svg width="306" height="436" viewBox="0 0 306 436" fill="none" xmlns="http://www.w3.org/2000/svg">
<mask id="path-1-outside-1_1505_8" maskUnits="userSpaceOnUse" x="42.1377" y="0" width="254" height="44" fill="black">
<rect fill="white" x="42.1377" width="254" height="44"/>
<path d="M43.1377 43.7502V1H60.5183C62.5104 1.73286 64.279 3.01537 65.8239 4.84752C67.3688 6.67967 68.1413 8.89861 68.1413 11.5043C68.1413 16.1051 66.637 19.3215 63.6285 21.1537V21.3979C67.3688 23.4744 69.239 26.7315 69.239 31.1694C69.239 36.2587 66.6574 40.4523 61.494 43.7502H43.1377ZM51.4316 18.6497H57.469C59.2579 17.5504 60.1523 15.8811 60.1523 13.6418C60.1523 11.4025 59.3189 9.63146 57.652 8.3286H51.4316V18.6497ZM51.4316 36.6659H57.713C58.4448 36.1366 59.0953 35.3019 59.6645 34.1619C60.2743 33.0219 60.5792 31.8819 60.5792 30.7419C60.5792 29.6019 60.3353 28.5637 59.8474 27.6273C59.3595 26.6908 58.7497 25.9987 58.0179 25.5508H51.4316V36.6659Z"/>
<path d="M70.6402 1H86.8621C89.4234 1.855 91.5985 3.44287 93.3874 5.76359C95.2169 8.0436 96.1317 10.8529 96.1317 14.1915C96.1317 19.6472 93.9769 23.6576 89.6674 26.2226L95.8268 43.7502H87.289L82.1053 28.1769H78.8731V43.7502H70.6402V1ZM78.8731 8.3286V21.3369H84.1178C84.8089 21.174 85.5611 20.4819 86.3742 19.2604C87.228 17.9983 87.6549 16.5326 87.6549 14.8633C87.6549 13.194 87.289 11.7283 86.5572 10.4661C85.866 9.20396 85.1749 8.49146 84.4837 8.3286H78.8731Z"/>
<path d="M115.661 43.7502L114.38 36.9712H104.745L103.464 43.7502H95.1703L103.403 1H116.027L123.833 43.7502H115.661ZM109.441 8.93932L107.062 23.169L105.721 30.4366H113.344L111.941 23.169L109.563 8.93932H109.441Z"/>
<path d="M124.335 43.7502V1H132.69V43.7502H124.335Z"/>
<path d="M154.547 43.7502L143.143 20.1154L142.838 20.2376L143.204 27.444V43.7502H135.52V1H141.679L152.9 25.5508L153.205 25.4287L152.534 17.9169V1H160.218V43.7502H154.547Z"/>
<path d="M166.925 1H181.561V8.3286H169.852L169.669 8.69503L179.427 26.528C181.419 30.1108 182.415 32.8387 182.415 34.7116C182.415 38.8237 181.053 41.8366 178.329 43.7502H162.168V36.6659H174.792L174.975 36.2994L163.998 16.5733C162.412 13.7233 161.619 11.4025 161.619 9.61111C161.619 5.3768 163.388 2.50643 166.925 1Z"/>
<path d="M190.507 8.3286H181.299V1H208.01V8.3286H198.801V43.7502H190.507V8.3286Z"/>
<path d="M226.235 1C229.081 3.32072 231.195 6.43538 232.578 10.344C233.96 14.2526 234.651 18.2833 234.651 22.4362C234.651 26.5483 233.98 30.4569 232.639 34.1619C231.297 37.8669 229.163 41.063 226.235 43.7502H213.673C210.745 41.063 208.611 37.8669 207.269 34.1619C205.927 30.4569 205.257 26.5483 205.257 22.4362C205.257 18.2833 205.948 14.2526 207.33 10.344C208.712 6.43538 210.827 3.32072 213.673 1H226.235ZM217.758 36.6659H222.149C223.166 35.4851 224.02 33.5716 224.711 30.9251C225.442 28.238 225.808 25.4083 225.808 22.4362C225.808 19.464 225.463 16.6751 224.772 14.0693C224.08 11.4229 223.227 9.50932 222.21 8.3286H217.758C216.742 9.50932 215.868 11.4229 215.136 14.0693C214.445 16.6751 214.099 19.464 214.099 22.4362C214.099 25.4083 214.445 28.238 215.136 30.9251C215.868 33.5716 216.742 35.4851 217.758 36.6659Z"/>
<path d="M236.358 1H252.58C255.141 1.855 257.317 3.44287 259.105 5.76359C260.935 8.0436 261.85 10.8529 261.85 14.1915C261.85 19.6472 259.695 23.6576 255.385 26.2226L261.545 43.7502H253.007L247.823 28.1769H244.591V43.7502H236.358V1ZM244.591 8.3286V21.3369H249.836C250.527 21.174 251.279 20.4819 252.092 19.2604C252.946 17.9983 253.373 16.5326 253.373 14.8633C253.373 13.194 253.007 11.7283 252.275 10.4661C251.584 9.20396 250.893 8.49146 250.202 8.3286H244.591Z"/>
<path d="M278.757 24.2072L281.989 10.8325L284.611 1H292.234L294.979 43.7502H286.99L285.831 20.4208H285.526L281.135 37.643H276.134L271.743 20.4208H271.439L270.28 43.7502H262.291L265.035 1H272.658L275.281 10.8325L278.513 24.2072H278.757Z"/>
</mask>
<path d="M43.1377 43.7502V1H60.5183C62.5104 1.73286 64.279 3.01537 65.8239 4.84752C67.3688 6.67967 68.1413 8.89861 68.1413 11.5043C68.1413 16.1051 66.637 19.3215 63.6285 21.1537V21.3979C67.3688 23.4744 69.239 26.7315 69.239 31.1694C69.239 36.2587 66.6574 40.4523 61.494 43.7502H43.1377ZM51.4316 18.6497H57.469C59.2579 17.5504 60.1523 15.8811 60.1523 13.6418C60.1523 11.4025 59.3189 9.63146 57.652 8.3286H51.4316V18.6497ZM51.4316 36.6659H57.713C58.4448 36.1366 59.0953 35.3019 59.6645 34.1619C60.2743 33.0219 60.5792 31.8819 60.5792 30.7419C60.5792 29.6019 60.3353 28.5637 59.8474 27.6273C59.3595 26.6908 58.7497 25.9987 58.0179 25.5508H51.4316V36.6659Z" fill="white"/>
<path d="M70.6402 1H86.8621C89.4234 1.855 91.5985 3.44287 93.3874 5.76359C95.2169 8.0436 96.1317 10.8529 96.1317 14.1915C96.1317 19.6472 93.9769 23.6576 89.6674 26.2226L95.8268 43.7502H87.289L82.1053 28.1769H78.8731V43.7502H70.6402V1ZM78.8731 8.3286V21.3369H84.1178C84.8089 21.174 85.5611 20.4819 86.3742 19.2604C87.228 17.9983 87.6549 16.5326 87.6549 14.8633C87.6549 13.194 87.289 11.7283 86.5572 10.4661C85.866 9.20396 85.1749 8.49146 84.4837 8.3286H78.8731Z" fill="white"/>
<path d="M115.661 43.7502L114.38 36.9712H104.745L103.464 43.7502H95.1703L103.403 1H116.027L123.833 43.7502H115.661ZM109.441 8.93932L107.062 23.169L105.721 30.4366H113.344L111.941 23.169L109.563 8.93932H109.441Z" fill="white"/>
<path d="M124.335 43.7502V1H132.69V43.7502H124.335Z" fill="white"/>
<path d="M154.547 43.7502L143.143 20.1154L142.838 20.2376L143.204 27.444V43.7502H135.52V1H141.679L152.9 25.5508L153.205 25.4287L152.534 17.9169V1H160.218V43.7502H154.547Z" fill="white"/>
<path d="M166.925 1H181.561V8.3286H169.852L169.669 8.69503L179.427 26.528C181.419 30.1108 182.415 32.8387 182.415 34.7116C182.415 38.8237 181.053 41.8366 178.329 43.7502H162.168V36.6659H174.792L174.975 36.2994L163.998 16.5733C162.412 13.7233 161.619 11.4025 161.619 9.61111C161.619 5.3768 163.388 2.50643 166.925 1Z" fill="white"/>
<path d="M190.507 8.3286H181.299V1H208.01V8.3286H198.801V43.7502H190.507V8.3286Z" fill="white"/>
<path d="M226.235 1C229.081 3.32072 231.195 6.43538 232.578 10.344C233.96 14.2526 234.651 18.2833 234.651 22.4362C234.651 26.5483 233.98 30.4569 232.639 34.1619C231.297 37.8669 229.163 41.063 226.235 43.7502H213.673C210.745 41.063 208.611 37.8669 207.269 34.1619C205.927 30.4569 205.257 26.5483 205.257 22.4362C205.257 18.2833 205.948 14.2526 207.33 10.344C208.712 6.43538 210.827 3.32072 213.673 1H226.235ZM217.758 36.6659H222.149C223.166 35.4851 224.02 33.5716 224.711 30.9251C225.442 28.238 225.808 25.4083 225.808 22.4362C225.808 19.464 225.463 16.6751 224.772 14.0693C224.08 11.4229 223.227 9.50932 222.21 8.3286H217.758C216.742 9.50932 215.868 11.4229 215.136 14.0693C214.445 16.6751 214.099 19.464 214.099 22.4362C214.099 25.4083 214.445 28.238 215.136 30.9251C215.868 33.5716 216.742 35.4851 217.758 36.6659Z" fill="white"/>
<path d="M236.358 1H252.58C255.141 1.855 257.317 3.44287 259.105 5.76359C260.935 8.0436 261.85 10.8529 261.85 14.1915C261.85 19.6472 259.695 23.6576 255.385 26.2226L261.545 43.7502H253.007L247.823 28.1769H244.591V43.7502H236.358V1ZM244.591 8.3286V21.3369H249.836C250.527 21.174 251.279 20.4819 252.092 19.2604C252.946 17.9983 253.373 16.5326 253.373 14.8633C253.373 13.194 253.007 11.7283 252.275 10.4661C251.584 9.20396 250.893 8.49146 250.202 8.3286H244.591Z" fill="white"/>
<path d="M278.757 24.2072L281.989 10.8325L284.611 1H292.234L294.979 43.7502H286.99L285.831 20.4208H285.526L281.135 37.643H276.134L271.743 20.4208H271.439L270.28 43.7502H262.291L265.035 1H272.658L275.281 10.8325L278.513 24.2072H278.757Z" fill="white"/>
<path d="M43.1377 43.7502V1H60.5183C62.5104 1.73286 64.279 3.01537 65.8239 4.84752C67.3688 6.67967 68.1413 8.89861 68.1413 11.5043C68.1413 16.1051 66.637 19.3215 63.6285 21.1537V21.3979C67.3688 23.4744 69.239 26.7315 69.239 31.1694C69.239 36.2587 66.6574 40.4523 61.494 43.7502H43.1377ZM51.4316 18.6497H57.469C59.2579 17.5504 60.1523 15.8811 60.1523 13.6418C60.1523 11.4025 59.3189 9.63146 57.652 8.3286H51.4316V18.6497ZM51.4316 36.6659H57.713C58.4448 36.1366 59.0953 35.3019 59.6645 34.1619C60.2743 33.0219 60.5792 31.8819 60.5792 30.7419C60.5792 29.6019 60.3353 28.5637 59.8474 27.6273C59.3595 26.6908 58.7497 25.9987 58.0179 25.5508H51.4316V36.6659Z" stroke="#FFEC44" stroke-width="0.4" mask="url(#path-1-outside-1_1505_8)"/>
<path d="M70.6402 1H86.8621C89.4234 1.855 91.5985 3.44287 93.3874 5.76359C95.2169 8.0436 96.1317 10.8529 96.1317 14.1915C96.1317 19.6472 93.9769 23.6576 89.6674 26.2226L95.8268 43.7502H87.289L82.1053 28.1769H78.8731V43.7502H70.6402V1ZM78.8731 8.3286V21.3369H84.1178C84.8089 21.174 85.5611 20.4819 86.3742 19.2604C87.228 17.9983 87.6549 16.5326 87.6549 14.8633C87.6549 13.194 87.289 11.7283 86.5572 10.4661C85.866 9.20396 85.1749 8.49146 84.4837 8.3286H78.8731Z" stroke="#FFEC44" stroke-width="0.4" mask="url(#path-1-outside-1_1505_8)"/>
<path d="M115.661 43.7502L114.38 36.9712H104.745L103.464 43.7502H95.1703L103.403 1H116.027L123.833 43.7502H115.661ZM109.441 8.93932L107.062 23.169L105.721 30.4366H113.344L111.941 23.169L109.563 8.93932H109.441Z" stroke="#FFEC44" stroke-width="0.4" mask="url(#path-1-outside-1_1505_8)"/>
<path d="M124.335 43.7502V1H132.69V43.7502H124.335Z" stroke="#FFEC44" stroke-width="0.4" mask="url(#path-1-outside-1_1505_8)"/>
<path d="M154.547 43.7502L143.143 20.1154L142.838 20.2376L143.204 27.444V43.7502H135.52V1H141.679L152.9 25.5508L153.205 25.4287L152.534 17.9169V1H160.218V43.7502H154.547Z" stroke="#FFEC44" stroke-width="0.4" mask="url(#path-1-outside-1_1505_8)"/>
<path d="M166.925 1H181.561V8.3286H169.852L169.669 8.69503L179.427 26.528C181.419 30.1108 182.415 32.8387 182.415 34.7116C182.415 38.8237 181.053 41.8366 178.329 43.7502H162.168V36.6659H174.792L174.975 36.2994L163.998 16.5733C162.412 13.7233 161.619 11.4025 161.619 9.61111C161.619 5.3768 163.388 2.50643 166.925 1Z" stroke="#FFEC44" stroke-width="0.4" mask="url(#path-1-outside-1_1505_8)"/>
<path d="M190.507 8.3286H181.299V1H208.01V8.3286H198.801V43.7502H190.507V8.3286Z" stroke="#FFEC44" stroke-width="0.4" mask="url(#path-1-outside-1_1505_8)"/>
<path d="M226.235 1C229.081 3.32072 231.195 6.43538 232.578 10.344C233.96 14.2526 234.651 18.2833 234.651 22.4362C234.651 26.5483 233.98 30.4569 232.639 34.1619C231.297 37.8669 229.163 41.063 226.235 43.7502H213.673C210.745 41.063 208.611 37.8669 207.269 34.1619C205.927 30.4569 205.257 26.5483 205.257 22.4362C205.257 18.2833 205.948 14.2526 207.33 10.344C208.712 6.43538 210.827 3.32072 213.673 1H226.235ZM217.758 36.6659H222.149C223.166 35.4851 224.02 33.5716 224.711 30.9251C225.442 28.238 225.808 25.4083 225.808 22.4362C225.808 19.464 225.463 16.6751 224.772 14.0693C224.08 11.4229 223.227 9.50932 222.21 8.3286H217.758C216.742 9.50932 215.868 11.4229 215.136 14.0693C214.445 16.6751 214.099 19.464 214.099 22.4362C214.099 25.4083 214.445 28.238 215.136 30.9251C215.868 33.5716 216.742 35.4851 217.758 36.6659Z" stroke="#FFEC44" stroke-width="0.4" mask="url(#path-1-outside-1_1505_8)"/>
<path d="M236.358 1H252.58C255.141 1.855 257.317 3.44287 259.105 5.76359C260.935 8.0436 261.85 10.8529 261.85 14.1915C261.85 19.6472 259.695 23.6576 255.385 26.2226L261.545 43.7502H253.007L247.823 28.1769H244.591V43.7502H236.358V1ZM244.591 8.3286V21.3369H249.836C250.527 21.174 251.279 20.4819 252.092 19.2604C252.946 17.9983 253.373 16.5326 253.373 14.8633C253.373 13.194 253.007 11.7283 252.275 10.4661C251.584 9.20396 250.893 8.49146 250.202 8.3286H244.591Z" stroke="#FFEC44" stroke-width="0.4" mask="url(#path-1-outside-1_1505_8)"/>
<path d="M278.757 24.2072L281.989 10.8325L284.611 1H292.234L294.979 43.7502H286.99L285.831 20.4208H285.526L281.135 37.643H276.134L271.743 20.4208H271.439L270.28 43.7502H262.291L265.035 1H272.658L275.281 10.8325L278.513 24.2072H278.757Z" stroke="#FFEC44" stroke-width="0.4" mask="url(#path-1-outside-1_1505_8)"/>
<mask id="path-2-outside-2_1505_8" maskUnits="userSpaceOnUse" x="42.2842" y="19.9111" width="254" height="45" fill="black">
<rect fill="white" x="42.2842" y="19.9111" width="254" height="45"/>
<path d="M43.2842 63.6613V20.9111H60.6647C62.6569 21.644 64.4254 22.9265 65.9704 24.7586C67.5153 26.5908 68.2878 28.8097 68.2878 31.4155C68.2878 36.0162 66.7835 39.2326 63.7749 41.0648V41.3091C67.5153 43.3855 69.3855 46.6427 69.3855 51.0805C69.3855 56.1698 66.8038 60.3634 61.6405 63.6613H43.2842ZM51.5781 38.5609H57.6155C59.4044 37.4616 60.2988 35.7923 60.2988 33.553C60.2988 31.3137 59.4654 29.5426 57.7985 28.2397H51.5781V38.5609ZM51.5781 56.577H57.8595C58.5913 56.0477 59.2418 55.2131 59.811 54.0731C60.4208 52.933 60.7257 51.793 60.7257 50.653C60.7257 49.513 60.4818 48.4748 59.9939 47.5384C59.506 46.602 58.8962 45.9098 58.1644 45.4619H51.5781V56.577Z"/>
<path d="M70.7867 20.9111H78.8976H87.0086C89.5699 21.7661 91.745 23.354 93.5339 25.6747C95.3634 27.9547 96.2782 30.764 96.2782 34.1026C96.2782 39.5584 94.1234 43.5687 89.8139 46.1337L95.9733 63.6613H91.7044H87.4355L82.2518 48.088H79.0196V63.6613H70.7867V20.9111ZM79.0196 28.2397V41.248H84.2643C84.9554 41.0851 85.7076 40.393 86.5207 39.1716C87.3745 37.9094 87.8014 36.4437 87.8014 34.7744C87.8014 33.1051 87.4355 31.6394 86.7037 30.3772C86.0125 29.1151 85.3213 28.4026 84.6302 28.2397H79.0196Z"/>
<path d="M115.808 63.6613L114.527 56.8824H104.891L103.611 63.6613H95.3167L103.55 20.9111H116.173L123.979 63.6613H115.808ZM109.587 28.8505L107.209 43.0802L105.867 50.3477H113.49L112.087 43.0802L109.709 28.8505H109.587Z"/>
<path d="M124.482 63.6613V20.9111H132.836V63.6613H124.482Z"/>
<path d="M154.693 63.6613L143.289 40.0266L142.984 40.1487L143.35 47.3552V63.6613H135.666V20.9111H141.825L153.047 45.4619L153.352 45.3398L152.681 37.828V20.9111H160.365V63.6613H154.693Z"/>
<path d="M167.072 20.9111H181.708V28.2397H169.999L169.816 28.6062L179.573 46.4391C181.566 50.022 182.562 52.7498 182.562 54.6227C182.562 58.7349 181.2 61.7477 178.476 63.6613H162.315V56.577H174.939L175.122 56.2106L164.144 36.4844C162.559 33.6344 161.766 31.3137 161.766 29.5222C161.766 25.2879 163.534 22.4176 167.072 20.9111Z"/>
<path d="M190.654 28.2397H181.445V20.9111H208.156V28.2397H198.948V63.6613H190.654V28.2397Z"/>
<path d="M226.382 20.9111C229.228 23.2319 231.342 26.3465 232.724 30.2551C234.106 34.1637 234.798 38.1944 234.798 42.3473C234.798 46.4595 234.127 50.368 232.785 54.0731C231.443 57.7781 229.309 60.9742 226.382 63.6613H213.819C210.892 60.9742 208.757 57.7781 207.416 54.0731C206.074 50.368 205.403 46.4595 205.403 42.3473C205.403 38.1944 206.094 34.1637 207.477 30.2551C208.859 26.3465 210.973 23.2319 213.819 20.9111H226.382ZM217.905 56.577H222.296C223.312 55.3963 224.166 53.4827 224.857 50.8363C225.589 48.1491 225.955 45.3194 225.955 42.3473C225.955 39.3751 225.609 36.5862 224.918 33.9805C224.227 31.334 223.373 29.4205 222.357 28.2397H217.905C216.889 29.4205 216.014 31.334 215.283 33.9805C214.591 36.5862 214.246 39.3751 214.246 42.3473C214.246 45.3194 214.591 48.1491 215.283 50.8363C216.014 53.4827 216.889 55.3963 217.905 56.577Z"/>
<path d="M236.505 20.9111H252.727C255.288 21.7661 257.463 23.354 259.252 25.6747C261.081 27.9547 261.996 30.764 261.996 34.1026C261.996 39.5584 259.841 43.5687 255.532 46.1337L261.691 63.6613H253.153L247.97 48.088H244.738V63.6613H236.505V20.9111ZM244.738 28.2397V41.248H249.982C250.673 41.0851 251.426 40.393 252.239 39.1716C253.092 37.9094 253.519 36.4437 253.519 34.7744C253.519 33.1051 253.153 31.6394 252.422 30.3772C251.73 29.1151 251.039 28.4026 250.348 28.2397H244.738Z"/>
<path d="M278.903 44.1184L282.135 30.7437L284.758 20.9111H292.381L295.125 63.6613H287.136L285.977 40.3319H285.672L281.282 57.5541H276.281L271.89 40.3319H271.585L270.426 63.6613H262.437L265.182 20.9111H272.805L275.427 30.7437L278.659 44.1184H278.903Z"/>
</mask>
<path d="M43.2842 63.6613V20.9111H60.6647C62.6569 21.644 64.4254 22.9265 65.9704 24.7586C67.5153 26.5908 68.2878 28.8097 68.2878 31.4155C68.2878 36.0162 66.7835 39.2326 63.7749 41.0648V41.3091C67.5153 43.3855 69.3855 46.6427 69.3855 51.0805C69.3855 56.1698 66.8038 60.3634 61.6405 63.6613H43.2842ZM51.5781 38.5609H57.6155C59.4044 37.4616 60.2988 35.7923 60.2988 33.553C60.2988 31.3137 59.4654 29.5426 57.7985 28.2397H51.5781V38.5609ZM51.5781 56.577H57.8595C58.5913 56.0477 59.2418 55.2131 59.811 54.0731C60.4208 52.933 60.7257 51.793 60.7257 50.653C60.7257 49.513 60.4818 48.4748 59.9939 47.5384C59.506 46.602 58.8962 45.9098 58.1644 45.4619H51.5781V56.577Z" fill="white"/>
<path d="M70.7867 20.9111H78.8976H87.0086C89.5699 21.7661 91.745 23.354 93.5339 25.6747C95.3634 27.9547 96.2782 30.764 96.2782 34.1026C96.2782 39.5584 94.1234 43.5687 89.8139 46.1337L95.9733 63.6613H91.7044H87.4355L82.2518 48.088H79.0196V63.6613H70.7867V20.9111ZM79.0196 28.2397V41.248H84.2643C84.9554 41.0851 85.7076 40.393 86.5207 39.1716C87.3745 37.9094 87.8014 36.4437 87.8014 34.7744C87.8014 33.1051 87.4355 31.6394 86.7037 30.3772C86.0125 29.1151 85.3213 28.4026 84.6302 28.2397H79.0196Z" fill="white"/>
<path d="M115.808 63.6613L114.527 56.8824H104.891L103.611 63.6613H95.3167L103.55 20.9111H116.173L123.979 63.6613H115.808ZM109.587 28.8505L107.209 43.0802L105.867 50.3477H113.49L112.087 43.0802L109.709 28.8505H109.587Z" fill="white"/>
<path d="M124.482 63.6613V20.9111H132.836V63.6613H124.482Z" fill="white"/>
<path d="M154.693 63.6613L143.289 40.0266L142.984 40.1487L143.35 47.3552V63.6613H135.666V20.9111H141.825L153.047 45.4619L153.352 45.3398L152.681 37.828V20.9111H160.365V63.6613H154.693Z" fill="white"/>
<path d="M167.072 20.9111H181.708V28.2397H169.999L169.816 28.6062L179.573 46.4391C181.566 50.022 182.562 52.7498 182.562 54.6227C182.562 58.7349 181.2 61.7477 178.476 63.6613H162.315V56.577H174.939L175.122 56.2106L164.144 36.4844C162.559 33.6344 161.766 31.3137 161.766 29.5222C161.766 25.2879 163.534 22.4176 167.072 20.9111Z" fill="white"/>
<path d="M190.654 28.2397H181.445V20.9111H208.156V28.2397H198.948V63.6613H190.654V28.2397Z" fill="white"/>
<path d="M226.382 20.9111C229.228 23.2319 231.342 26.3465 232.724 30.2551C234.106 34.1637 234.798 38.1944 234.798 42.3473C234.798 46.4595 234.127 50.368 232.785 54.0731C231.443 57.7781 229.309 60.9742 226.382 63.6613H213.819C210.892 60.9742 208.757 57.7781 207.416 54.0731C206.074 50.368 205.403 46.4595 205.403 42.3473C205.403 38.1944 206.094 34.1637 207.477 30.2551C208.859 26.3465 210.973 23.2319 213.819 20.9111H226.382ZM217.905 56.577H222.296C223.312 55.3963 224.166 53.4827 224.857 50.8363C225.589 48.1491 225.955 45.3194 225.955 42.3473C225.955 39.3751 225.609 36.5862 224.918 33.9805C224.227 31.334 223.373 29.4205 222.357 28.2397H217.905C216.889 29.4205 216.014 31.334 215.283 33.9805C214.591 36.5862 214.246 39.3751 214.246 42.3473C214.246 45.3194 214.591 48.1491 215.283 50.8363C216.014 53.4827 216.889 55.3963 217.905 56.577Z" fill="white"/>
<path d="M236.505 20.9111H252.727C255.288 21.7661 257.463 23.354 259.252 25.6747C261.081 27.9547 261.996 30.764 261.996 34.1026C261.996 39.5584 259.841 43.5687 255.532 46.1337L261.691 63.6613H253.153L247.97 48.088H244.738V63.6613H236.505V20.9111ZM244.738 28.2397V41.248H249.982C250.673 41.0851 251.426 40.393 252.239 39.1716C253.092 37.9094 253.519 36.4437 253.519 34.7744C253.519 33.1051 253.153 31.6394 252.422 30.3772C251.73 29.1151 251.039 28.4026 250.348 28.2397H244.738Z" fill="white"/>
<path d="M278.903 44.1184L282.135 30.7437L284.758 20.9111H292.381L295.125 63.6613H287.136L285.977 40.3319H285.672L281.282 57.5541H276.281L271.89 40.3319H271.585L270.426 63.6613H262.437L265.182 20.9111H272.805L275.427 30.7437L278.659 44.1184H278.903Z" fill="white"/>
<path d="M43.2842 63.6613V20.9111H60.6647C62.6569 21.644 64.4254 22.9265 65.9704 24.7586C67.5153 26.5908 68.2878 28.8097 68.2878 31.4155C68.2878 36.0162 66.7835 39.2326 63.7749 41.0648V41.3091C67.5153 43.3855 69.3855 46.6427 69.3855 51.0805C69.3855 56.1698 66.8038 60.3634 61.6405 63.6613H43.2842ZM51.5781 38.5609H57.6155C59.4044 37.4616 60.2988 35.7923 60.2988 33.553C60.2988 31.3137 59.4654 29.5426 57.7985 28.2397H51.5781V38.5609ZM51.5781 56.577H57.8595C58.5913 56.0477 59.2418 55.2131 59.811 54.0731C60.4208 52.933 60.7257 51.793 60.7257 50.653C60.7257 49.513 60.4818 48.4748 59.9939 47.5384C59.506 46.602 58.8962 45.9098 58.1644 45.4619H51.5781V56.577Z" stroke="#FFEC44" mask="url(#path-2-outside-2_1505_8)"/>
<path d="M70.7867 20.9111H78.8976H87.0086C89.5699 21.7661 91.745 23.354 93.5339 25.6747C95.3634 27.9547 96.2782 30.764 96.2782 34.1026C96.2782 39.5584 94.1234 43.5687 89.8139 46.1337L95.9733 63.6613H91.7044H87.4355L82.2518 48.088H79.0196V63.6613H70.7867V20.9111ZM79.0196 28.2397V41.248H84.2643C84.9554 41.0851 85.7076 40.393 86.5207 39.1716C87.3745 37.9094 87.8014 36.4437 87.8014 34.7744C87.8014 33.1051 87.4355 31.6394 86.7037 30.3772C86.0125 29.1151 85.3213 28.4026 84.6302 28.2397H79.0196Z" stroke="#FFEC44" mask="url(#path-2-outside-2_1505_8)"/>
<path d="M115.808 63.6613L114.527 56.8824H104.891L103.611 63.6613H95.3167L103.55 20.9111H116.173L123.979 63.6613H115.808ZM109.587 28.8505L107.209 43.0802L105.867 50.3477H113.49L112.087 43.0802L109.709 28.8505H109.587Z" stroke="#FFEC44" mask="url(#path-2-outside-2_1505_8)"/>
<path d="M124.482 63.6613V20.9111H132.836V63.6613H124.482Z" stroke="#FFEC44" mask="url(#path-2-outside-2_1505_8)"/>
<path d="M154.693 63.6613L143.289 40.0266L142.984 40.1487L143.35 47.3552V63.6613H135.666V20.9111H141.825L153.047 45.4619L153.352 45.3398L152.681 37.828V20.9111H160.365V63.6613H154.693Z" stroke="#FFEC44" mask="url(#path-2-outside-2_1505_8)"/>
<path d="M167.072 20.9111H181.708V28.2397H169.999L169.816 28.6062L179.573 46.4391C181.566 50.022 182.562 52.7498 182.562 54.6227C182.562 58.7349 181.2 61.7477 178.476 63.6613H162.315V56.577H174.939L175.122 56.2106L164.144 36.4844C162.559 33.6344 161.766 31.3137 161.766 29.5222C161.766 25.2879 163.534 22.4176 167.072 20.9111Z" stroke="#FFEC44" mask="url(#path-2-outside-2_1505_8)"/>
<path d="M190.654 28.2397H181.445V20.9111H208.156V28.2397H198.948V63.6613H190.654V28.2397Z" stroke="#FFEC44" mask="url(#path-2-outside-2_1505_8)"/>
<path d="M226.382 20.9111C229.228 23.2319 231.342 26.3465 232.724 30.2551C234.106 34.1637 234.798 38.1944 234.798 42.3473C234.798 46.4595 234.127 50.368 232.785 54.0731C231.443 57.7781 229.309 60.9742 226.382 63.6613H213.819C210.892 60.9742 208.757 57.7781 207.416 54.0731C206.074 50.368 205.403 46.4595 205.403 42.3473C205.403 38.1944 206.094 34.1637 207.477 30.2551C208.859 26.3465 210.973 23.2319 213.819 20.9111H226.382ZM217.905 56.577H222.296C223.312 55.3963 224.166 53.4827 224.857 50.8363C225.589 48.1491 225.955 45.3194 225.955 42.3473C225.955 39.3751 225.609 36.5862 224.918 33.9805C224.227 31.334 223.373 29.4205 222.357 28.2397H217.905C216.889 29.4205 216.014 31.334 215.283 33.9805C214.591 36.5862 214.246 39.3751 214.246 42.3473C214.246 45.3194 214.591 48.1491 215.283 50.8363C216.014 53.4827 216.889 55.3963 217.905 56.577Z" stroke="#FFEC44" mask="url(#path-2-outside-2_1505_8)"/>
<path d="M236.505 20.9111H252.727C255.288 21.7661 257.463 23.354 259.252 25.6747C261.081 27.9547 261.996 30.764 261.996 34.1026C261.996 39.5584 259.841 43.5687 255.532 46.1337L261.691 63.6613H253.153L247.97 48.088H244.738V63.6613H236.505V20.9111ZM244.738 28.2397V41.248H249.982C250.673 41.0851 251.426 40.393 252.239 39.1716C253.092 37.9094 253.519 36.4437 253.519 34.7744C253.519 33.1051 253.153 31.6394 252.422 30.3772C251.73 29.1151 251.039 28.4026 250.348 28.2397H244.738Z" stroke="#FFEC44" mask="url(#path-2-outside-2_1505_8)"/>
<path d="M278.903 44.1184L282.135 30.7437L284.758 20.9111H292.381L295.125 63.6613H287.136L285.977 40.3319H285.672L281.282 57.5541H276.281L271.89 40.3319H271.585L270.426 63.6613H262.437L265.182 20.9111H272.805L275.427 30.7437L278.659 44.1184H278.903Z" stroke="#FFEC44" mask="url(#path-2-outside-2_1505_8)"/>
<path d="M43.2842 84.7435V41.4077H60.7252C62.7242 42.1506 64.4989 43.4507 66.0492 45.3079C67.5996 47.1652 68.3747 49.4145 68.3747 52.0559C68.3747 56.7197 66.8652 59.9802 63.8462 61.8374V62.0851C67.5996 64.19 69.4762 67.4917 69.4762 71.9904C69.4762 77.1494 66.8856 81.4005 61.7043 84.7435H43.2842ZM51.6069 59.2992H57.6653C59.4604 58.1849 60.358 56.4927 60.358 54.2227C60.358 51.9528 59.5216 50.1574 57.8489 48.8367H51.6069V59.2992ZM51.6069 77.5621H57.9101C58.6445 77.0256 59.2972 76.1795 59.8684 75.0239C60.4804 73.8683 60.7864 72.7127 60.7864 71.557C60.7864 70.4014 60.5416 69.349 60.052 68.3997C59.5624 67.4505 58.9505 66.7488 58.2161 66.2948H51.6069V77.5621Z" fill="#FFEC44"/>
<path d="M70.8823 41.4077H87.1606C89.7308 42.2744 91.9135 43.884 93.7086 46.2366C95.5445 48.5478 96.4624 51.3956 96.4624 54.7799C96.4624 60.3104 94.3001 64.3757 89.9756 66.9758L96.1564 84.7435H87.5889L82.3872 68.9569H79.1438V84.7435H70.8823V41.4077ZM79.1438 48.8367V62.0232H84.4067C85.1003 61.8581 85.855 61.1565 86.671 59.9183C87.5277 58.6389 87.9561 57.1531 87.9561 55.4609C87.9561 53.7687 87.5889 52.2829 86.8546 51.0035C86.161 49.7241 85.4675 49.0018 84.7739 48.8367H79.1438Z" fill="#FFEC44"/>
<path d="M116.06 84.7435L114.774 77.8717H105.105L103.82 84.7435H95.4976L103.759 41.4077H116.427L124.26 84.7435H116.06ZM109.818 49.4558L107.431 63.8804L106.085 71.2475H113.734L112.327 63.8804L109.94 49.4558H109.818Z" fill="#FFEC44"/>
<path d="M124.764 84.7435V41.4077H133.148V84.7435H124.764Z" fill="#FFEC44"/>
<path d="M155.08 84.7435L143.637 60.785L143.331 60.9088L143.698 68.214V84.7435H135.987V41.4077H142.168L153.428 66.2948L153.734 66.171L153.061 58.5563V41.4077H160.772V84.7435H155.08Z" fill="#FFEC44"/>
<path d="M167.502 41.4077H182.189V48.8367H170.439L170.256 49.2082L180.047 67.2854C182.046 70.9173 183.046 73.6826 183.046 75.5811C183.046 79.7496 181.679 82.8037 178.946 84.7435H162.729V77.5621H175.396L175.58 77.1907L164.564 57.1943C162.973 54.3053 162.178 51.9528 162.178 50.1368C162.178 45.8445 163.952 42.9348 167.502 41.4077Z" fill="#FFEC44"/>
<path d="M191.166 48.8367H181.926V41.4077H208.73V48.8367H199.489V84.7435H191.166V48.8367Z" fill="#FFEC44"/>
<path d="M227.018 41.4077C229.874 43.7602 231.996 46.9176 233.383 50.8797C234.77 54.8418 235.463 58.9278 235.463 63.1375C235.463 67.306 234.79 71.2681 233.444 75.0239C232.098 78.7797 229.956 82.0195 227.018 84.7435H214.412C211.474 82.0195 209.332 78.7797 207.986 75.0239C206.64 71.2681 205.967 67.306 205.967 63.1375C205.967 58.9278 206.66 54.8418 208.047 50.8797C209.434 46.9176 211.556 43.7602 214.412 41.4077H227.018ZM218.512 77.5621H222.918C223.938 76.3652 224.795 74.4255 225.488 71.7428C226.223 69.0188 226.59 66.1504 226.59 63.1375C226.59 60.1247 226.243 57.2975 225.55 54.6561C224.856 51.9734 223.999 50.0336 222.979 48.8367H218.512C217.492 50.0336 216.615 51.9734 215.881 54.6561C215.187 57.2975 214.84 60.1247 214.84 63.1375C214.84 66.1504 215.187 69.0188 215.881 71.7428C216.615 74.4255 217.492 76.3652 218.512 77.5621Z" fill="#FFEC44"/>
<path d="M237.176 41.4077H253.455C256.025 42.2744 258.208 43.884 260.003 46.2366C261.839 48.5478 262.756 51.3956 262.756 54.7799C262.756 60.3104 260.594 64.3757 256.27 66.9758L262.45 84.7435H253.883L248.681 68.9569H245.438V84.7435H237.176V41.4077ZM245.438 48.8367V62.0232H250.701C251.394 61.8581 252.149 61.1565 252.965 59.9183C253.822 58.6389 254.25 57.1531 254.25 55.4609C254.25 53.7687 253.883 52.2829 253.149 51.0035C252.455 49.7241 251.762 49.0018 251.068 48.8367H245.438Z" fill="#FFEC44"/>
<path d="M279.722 64.9329L282.966 51.3749L285.597 41.4077H293.247L296 84.7435H287.984L286.821 61.0945H286.515L282.109 78.5527H277.091L272.685 61.0945H272.379L271.216 84.7435H263.199L265.953 41.4077H273.603L276.234 51.3749L279.477 64.9329H279.722Z" fill="#FFEC44"/>
<path d="M237.176 41.4077H253.455C256.025 42.2744 258.208 43.884 260.003 46.2366C261.839 48.5478 262.756 51.3956 262.756 54.7799C262.756 60.3104 260.594 64.3757 256.27 66.9758L262.45 84.7435H253.883L248.681 68.9569H245.438V84.7435H237.176V41.4077ZM245.438 48.8367V62.0232H250.701C251.394 61.8581 252.149 61.1565 252.965 59.9183C253.822 58.6389 254.25 57.1531 254.25 55.4609C254.25 53.7687 253.883 52.2829 253.149 51.0035C252.455 49.7241 251.762 49.0018 251.068 48.8367H245.438Z" fill="#FFEC44"/>
<path d="M279.722 64.9329L282.966 51.3749L285.597 41.4077H293.247L296 84.7435H287.984L286.821 61.0945H286.515L282.109 78.5527H277.091L272.685 61.0945H272.379L271.216 84.7435H263.199L265.953 41.4077H273.603L276.234 51.3749L279.477 64.9329H279.722Z" fill="#FFEC44"/>
<path d="M9.96973 107.5C11.581 106.384 25.1804 64.745 33.1191 55.7404C38.9552 49.1206 44.1443 54.7218 47.0775 60.5866C50.8851 68.1998 54.2834 72.8724 59.0117 78.2589C62.0784 81.7526 66.9616 86.0367 71.7379 86.9481C75.5644 87.6782 81.333 87.5641 84.3183 84.6766C87.0948 81.991 90.9197 77.6701 91.1007 73.6439C91.181 71.8576 90.9052 69.9772 88.5482 71.4445C87.5095 72.0912 86.4378 73.275 85.7841 74.2693C84.9087 75.601 84.485 76.476 83.8114 78.0887C82.5679 81.066 82.2398 84.7624 82.2398 88.0658C82.2398 90.0623 81.6877 93.077 84.3183 94.2922C85.638 94.7306 86.9532 94.6765 88.2027 93.2232C88.9818 92.3168 89.1743 91.1517 89.1316 90.0127C89.0402 87.5733 84.4688 86.9481 82.3856 87.5864C81.3999 87.8615 81.2354 88.2879 82.3856 88.8049C83.1296 89.1392 84.1363 89.3775 84.9406 89.3775C85.9298 89.3775 86.9943 89.3262 87.9762 89.1768C89.5245 88.9413 91.1265 88.3307 92.5066 87.5864C94.3886 86.718 94.7546 86.236 95.1264 86.1521C95.1494 86.1294 94.0109 87.9583 93.9972 88.8049C93.8222 90.3623 94.2588 91.9248 94.9777 92.6686C99.118 96.2051 102.687 86.0467 99.2166 85.7402C99.2166 85.7402 97.9639 85.851 97.2335 86.236C96.503 86.621 95.8826 87.1426 96.534 87.3266C97.6435 87.6401 99.8364 87.8314 101.324 87.5864C101.819 87.4625 102.988 87.1038 103.545 86.8427C104.274 86.5003 105.219 86.1076 105.838 85.7402C106.096 85.5867 105.073 87.0566 104.846 88.0658C104.211 90.8921 104.722 93.2883 107.201 93.2232C109.108 93.2232 110.523 91.3824 111.12 89.7784C111.474 88.8289 111.603 86.5551 110.446 86.0467C109.816 85.77 107.449 85.3552 106.953 86.8427C106.623 87.8343 108.579 87.8314 109.505 87.8314C110.432 87.8314 112.591 87.5864 112.591 87.5864C112.591 87.5864 113.45 87.4052 114.926 87.2004C117.812 86.8002 122.32 86.3999 122.32 86.3999C122.32 86.3999 119.164 85.325 118.69 86.2089C117.855 87.7685 120.521 87.6057 121.695 88.895C123.621 91.0112 115.93 95.8179 115.93 91.4008C115.93 89.7764 120.578 90.32 122.023 90.2651C123.506 90.2087 124.713 89.8737 126.344 89.2535C128.301 88.5091 130.503 85.3769 131.088 83.7692C131.452 82.7693 131.819 80.9923 131.99 79.2385C132.046 78.6567 132.137 76.9658 131.819 76.7539C131.38 76.4616 130.691 79.1127 130.503 80.2616C130.106 82.7011 129.64 86.2473 129.64 88.7227C129.64 90.296 129.477 91.6724 130.796 92.9768C131.547 93.72 132.988 93.5844 134.248 93.0991C136.13 92.3743 137.529 91.0629 138.388 89.9586C139.289 88.8004 140.418 87.5591 140.328 86.0467C140.262 84.9378 139.016 84.5208 137.635 85.6559C136.753 86.3816 136.004 87.6408 136.554 90.7518C137.259 92.851 137.967 93.7325 139.126 93.9999C141.026 94.4383 142.226 93.4848 143.1 92.3743C143.972 91.2653 144.595 89.5479 144.595 88.1559C144.595 87.561 144.595 86.9661 144.595 86.3712C144.595 85.3943 144.197 85.3283 143.783 85.6559C142.54 86.6389 144.953 87.7648 146.042 88.0129C146.669 88.1559 147.366 88.3181 148.205 88.3181C149.241 88.3181 149.429 88.0129 149.773 87.3927C150.003 87.2107 149.996 86.0156 149.773 85.7943C149.272 85.2998 148.591 86.4518 148.425 86.6483C147.728 87.4756 147.296 88.7227 146.92 89.7497C146.647 90.494 146.226 91.5059 146.226 92.3743C146.226 93.6723 146.579 93.9999 147.017 94.4383C148.205 95.3152 149.385 95.0229 150.671 94.4383C152.279 93.7076 153.155 93.2691 154.617 92.3743C158.563 90.0538 178.418 77.9179 185.628 82.4784C191.432 85.3551 200.572 78.7502 213.743 74.9429C219.595 73.2514 224.162 72.1947 237.052 77.2768" stroke="#FC4545" stroke-width="0.8" stroke-linecap="round"/>
<path d="M126.744 81.8154H135.444" stroke="#FC4545" stroke-width="0.8" stroke-linecap="round"/>
<path d="M39.1346 66.9346C33.1065 60.166 17.6073 74.7261 15.3452 77.3345C10.893 82.4681 6.65836 87.745 4.8942 94.437C4.10066 97.4472 3.47761 100.858 6.72581 102.523C10.6177 104.519 15.5794 103.946 19.6548 102.978C28.6108 100.849 39.9223 95.2998 38.9837 84.5128C38.5363 79.3705 36.0987 74.3724 30.3428 74.3724C22.438 74.3724 13.7509 79.4635 7.76013 84.1452C1.96241 88.6761 -2.29337 98.507 4.44168 104.167C7.49122 106.729 11.6368 107.262 15.4744 107.28C22.4713 107.313 29.8638 106.177 35.5144 101.702C39.9189 98.2135 43.5118 93.0554 41.9358 87.2155C40.409 81.5577 36.3032 75.986 31.8081 72.3399C28.9468 70.0191 25.5272 68.2694 22.0036 67.2373C18.7777 66.2924 13.541 64.9796 10.2597 66.4805C4.81529 68.971 9.27047 81.9348 10.8846 84.8155C15.9655 93.8831 25.1013 99.2535 34.8464 102.005C37.2038 102.67 48.0365 105.781 50.1458 102.113C51.105 100.444 49.1451 97.1287 48.4219 95.7127C46.9077 92.7481 44.5931 90.5454 42.0867 88.4047C36.5818 83.7028 30.2966 82.2182 23.0595 82.4588C18.5199 82.6097 14.2869 82.9098 10.7984 86.2209C7.83539 89.0333 7.31555 92.9119 6.68271 96.6641C6.0677 100.311 4.68373 107.056 6.94129 110.567C8.82499 113.496 13.3058 111.557 15.5822 110.459C24.7313 106.042 31.6505 98.0347 37.4538 89.8965C41.4174 84.3383 46.0425 77.5993 47.1506 70.6319C47.398 69.0757 47.7228 65.1023 45.7499 64.1887C43.7538 63.2643 40.3812 65.9874 39.1346 66.9346ZM39.1346 66.9346C33.8833 70.9243 29.1486 75.7947 24.6972 80.6426C21.267 84.3781 18.0519 88.3118 15.8623 92.9235C15.1399 94.4451 11.4127 102.094 14.397 103.345C16.4163 104.192 19.278 103.7 21.2925 103.302C26.7601 102.22 32.1242 100.086 36.7211 96.9019C39.8451 94.738 43.3688 91.8895 44.6294 88.1236C45.8505 84.4756 44.0978 80.2163 42.3237 77.075C39.0931 71.3546 33.4278 67.5738 26.852 67.2805C20.1772 66.9829 1.30852 69.3212 7.63084 80.621C8.19876 81.636 9.51253 83.6488 10.6907 84.0155C13.5703 84.9117 18.9973 84.0218 21.2063 83.7128C26.5039 82.9719 36.9661 80.9952 42.2375 79.9074C45.2633 79.2831 52.8064 78.8957 50.8569 76.4913C50.004 75.4394 48.5179 74.8785 47.2367 74.6318C45.2419 74.2477 43.3565 74.541 41.3756 74.8913C36.0716 75.8292 30.792 76.8909 25.4729 77.7453C21.0364 78.458 16.5804 79.1157 12.1129 79.6047C11.4771 79.6743 10.9583 79.5773 10.4752 80.0372C7.42305 82.9426 1.72658 86.8539 1.72658 91.4965C1.72658 92.6452 1.93133 92.8461 3.10568 93.0965C8.86408 94.3243 14.9117 93.5782 20.7323 93.3127" stroke="#FC4545" stroke-width="0.8" stroke-linecap="round"/>
<path d="M245.5 82.5C257.5 90.5 281 111 290.5 126C310.133 157 307.5 186 298.5 201.5C288.838 218.14 259 230.5 212.5 224C163.25 217.116 113.431 210.713 80 214.5C34 219.711 22.5 242 14 261.5C6.70825 278.228 2.91751 322 14 365C24.0515 404 9.49999 411.5 4.5 435" stroke="#FC4545" stroke-width="0.8"/>
</svg>
