<svg width="1262" height="1013" viewBox="0 0 1262 1013" fill="none" xmlns="http://www.w3.org/2000/svg">
<path d="M991.001 311C1000.5 315.5 1000.62 319.5 1028.5 369.5C1043 395.5 1083.32 506.586 1120.41 466.5C1166.12 417.093 1251.67 439.093 1259.5 500.425C1267.33 561.757 1227.27 578.876 1227.27 608.136C1222.61 645.878 1228.39 632.526 1218.79 652.663C1205.22 658.6 1224.3 653.511 1214.97 667.929C1218.79 673.442 1218.79 677.258 1214.97 681.075C1219.22 688.284 1214.97 690.404 1209.89 692.949C1205.65 710.335 1185.28 712.343 1169 707.593C1148.64 701.656 1154.5 667.929 1120.41 667.929C1052.56 648.422 1052.33 580.997 1071.41 594.991C1090.49 608.985 1026 672.5 953.5 724C866.416 785.859 793.5 793.958 666 808C615.528 811.672 557.5 817 480 808C429.34 802.117 432.563 799.273 396 790.416C331.796 774.862 303.53 761.956 260.7 751.354C182.5 724 119.774 770.5 115 831.5C110.5 889 103.5 983 115 1011.5" stroke="#FC4545" stroke-width="2" stroke-linecap="round"/>
<path d="M1172.56 613.226C1173.45 608.75 1173.84 606.125 1173.84 603.638C1173.84 601.151 1173.84 598.92 1173.84 595.774C1173.84 593.022 1173.84 591.449 1173.84 588.696C1173.84 585.944 1174.06 582.788 1173.84 580.439C1173.25 574.148 1173.11 572.575 1171.87 565.104C1171.28 562.804 1170.69 558.813 1170.29 556.454C1169.74 553.183 1169.35 551.519 1168.32 547.41C1167.92 545.838 1166.86 542.684 1166.34 541.512C1166.34 541.512 1164.56 536.957 1163.98 535.221C1162.79 531.682 1160.67 527.357 1158.84 523.425C1156.48 518.314 1155.29 515.561 1152.53 510.843C1150.69 507.697 1148.44 504.068 1147 501.406C1146.15 499.819 1145.03 497.081 1143.06 495.115C1142.66 494.722 1141.08 493.247 1139.11 494.722C1137.93 495.901 1138.32 498.261 1140.29 499.833C1141.15 500.745 1142.61 501.507 1143.85 502.192C1145.95 503.357 1147 504.159 1150.56 505.731C1154.5 507.209 1157.8 507.209 1162.11 507.209C1164.93 507.209 1167.37 506.936 1169.82 505.384C1172.5 503.685 1172.56 502.217 1172.56 498.898C1172.56 497.339 1169.66 494.02 1168.34 496.263C1167.11 498.348 1167.53 500.906 1167.53 503.357C1167.53 504.397 1167.47 506.19 1168.26 506.981C1168.72 507.435 1169.94 509.213 1170.38 509.388C1173.12 510.483 1175.29 510.857 1178.26 510.857C1180.68 510.857 1184.68 509.779 1186.32 507.867C1187.47 506.539 1188.91 502.387 1188.05 500.469C1187.45 499.118 1185.3 498.988 1184.11 500.469C1182.97 501.884 1183.39 505.589 1183.58 507.209C1183.88 509.936 1186.34 512.194 1188.64 513.34C1193.57 515.797 1198.71 511.629 1200.29 506.518C1201.16 503.692 1201.08 501.406 1199.5 501.013C1197.58 500.536 1196.55 503.25 1196.49 504.7C1196.27 510.555 1199.89 512.022 1204.38 510.857C1207.79 509.973 1209.64 508.503 1211.48 507.665C1213.87 506.575 1216.47 505.227 1216.47 502.586C1216.47 499.22 1212.82 502.192 1211.48 504.7C1209.24 508.877 1207.18 512.565 1205.17 516.026C1201.96 521.565 1199.75 527.564 1197.92 533.648C1196.97 536.794 1196.21 539.467 1195.45 542.326C1194.32 546.589 1193.23 550.766 1192.68 555.147C1192.17 559.214 1191.52 563.426 1190.82 567.464C1190.18 571.059 1190.03 574.148 1189.63 578.08C1189.04 583.978 1188.59 588.532 1188.59 593.963C1188.59 599.184 1189.04 603.811 1189.97 608.901C1190.39 611.192 1190.42 611.895 1191.6 615.827C1192.31 618.186 1193.61 620.045 1194.76 622.118C1197.53 626.05 1197.53 625.264 1198.76 626.699C1199.14 627.289 1198.97 627.155 1198.26 627.155C1197.24 627.155 1198.88 627.155 1197.84 627.155C1191.88 627.155 1189.92 627.155 1184.05 627.155C1181.38 627.155 1176.55 627.155 1171.42 627.774C1168.64 628.11 1163.05 628.588 1163.13 630.134C1163.29 633.017 1171.42 632.297 1179.91 632.297C1187.21 632.297 1192.01 631.351 1196.29 632.297C1197.38 632.54 1200.44 633.384 1198.66 635.162C1197.55 636.262 1196.29 636.369 1193.13 636.818C1190.37 637.211 1188.68 637.355 1186.04 637.746C1179.91 638.391 1182.08 637.998 1176.55 638.784C1173 639.289 1171.42 639.57 1168.66 640.75C1167.08 641.536 1166.29 642.046 1166.29 642.716C1166.29 644.873 1177.27 644.942 1179.23 644.942C1181.68 644.942 1184.45 644.942 1188.39 644.942C1190.31 644.942 1194.91 645.08 1195.89 647.041C1196.83 650.006 1195.64 650.903 1193.13 652.153C1190.43 653.497 1188.79 653.547 1185.23 654.512C1182.69 655.203 1178.52 655.692 1176 657.23C1173.39 658.444 1173.67 661.542 1176.05 661.791C1177.29 661.921 1182.44 663.008 1182.63 664.553" stroke="#ACACAC" stroke-width="2" stroke-linecap="round"/>
<path d="M152.286 334.526C128.53 307.942 67.4485 365.128 58.5335 375.373C40.9879 395.536 24.2993 416.262 17.3468 442.545C14.2195 454.368 11.7641 467.763 24.5651 474.306C39.9028 482.145 59.4567 479.893 75.5177 476.089C110.813 467.73 155.391 445.934 151.692 403.567C149.929 383.37 140.322 363.739 117.638 363.739C86.4861 363.739 52.2505 383.735 28.6413 402.123C5.79281 419.919 -10.979 458.531 15.5635 480.76C27.5815 490.825 43.919 492.918 59.043 492.989C86.6171 493.117 115.751 488.656 138.019 471.079C155.377 457.378 169.537 437.119 163.326 414.182C157.309 391.96 141.128 370.076 123.413 355.756C112.137 346.641 98.6602 339.769 84.7741 335.715C72.0608 332.004 51.4233 326.848 38.4921 332.743C17.0358 342.524 34.5935 393.441 40.9548 404.756C60.9782 440.37 96.9819 461.463 135.387 472.268C144.677 474.882 187.368 487.101 195.681 472.692C199.461 466.14 191.737 453.117 188.887 447.556C182.92 435.912 173.798 427.261 163.92 418.853C142.226 400.385 117.456 394.554 88.9352 395.499C71.0449 396.092 54.363 397.271 40.6152 410.275C28.9379 421.322 26.8892 436.555 24.3953 451.292C21.9715 465.614 16.5174 492.106 25.4143 505.897C32.8379 517.403 50.4963 509.788 59.4676 505.472C95.5239 488.126 122.792 456.676 145.662 424.712C161.283 402.881 179.51 376.413 183.877 349.047C184.852 342.936 186.132 327.329 178.357 323.741C170.49 320.11 157.199 330.806 152.286 334.526ZM152.286 334.526C131.591 350.196 112.932 369.325 95.3892 388.366C81.8713 403.038 69.2007 418.488 60.5716 436.601C57.7246 442.577 43.0358 472.618 54.797 477.533C62.7547 480.859 74.0327 478.929 81.9717 477.363C103.519 473.113 124.659 464.733 142.775 452.227C155.086 443.728 168.973 432.54 173.941 417.749C178.753 403.421 171.846 386.692 164.855 374.354C152.123 351.886 129.796 337.037 103.881 335.885C77.5764 334.716 3.21587 343.9 28.1318 388.281C30.3699 392.268 35.5474 400.173 40.1906 401.614C51.5387 405.134 72.9262 401.638 81.632 400.425C102.509 397.514 143.741 389.751 164.515 385.479C176.439 383.026 206.166 381.505 198.483 372.061C195.122 367.93 189.265 365.727 184.217 364.758C176.355 363.249 168.924 364.401 161.118 365.777C140.215 369.461 119.409 373.631 98.4463 376.986C80.9624 379.786 63.4013 382.369 45.7953 384.29C43.2899 384.563 41.245 384.182 39.3413 385.988C27.3129 397.4 4.8634 412.762 4.8634 430.996C4.8634 435.508 5.67031 436.297 10.2984 437.28C32.9919 442.103 56.8253 439.172 79.7637 438.13" stroke="#FC4545" stroke-width="2.5" stroke-linecap="round"/>
<mask id="path-4-outside-1_1102_17" maskUnits="userSpaceOnUse" x="198.484" y="0" width="995" height="170" fill="black">
<rect fill="white" x="198.484" width="995" height="170"/>
<path d="M199.484 168.907V1H267.98C275.831 3.87841 282.8 8.91561 288.889 16.1116C294.977 23.3076 298.022 32.0228 298.022 42.2571C298.022 60.3271 292.093 72.9601 280.237 80.1561V81.1156C294.977 89.2711 302.348 102.064 302.348 119.494C302.348 139.483 292.174 155.954 271.825 168.907H199.484ZM232.17 70.3216H255.963C263.013 66.004 266.538 59.4476 266.538 50.6525C266.538 41.8573 263.253 34.9012 256.684 29.784H232.17V70.3216ZM232.17 141.082H256.924C259.808 139.003 262.372 135.725 264.615 131.248C267.018 126.77 268.22 122.293 268.22 117.815C268.22 113.338 267.259 109.26 265.336 105.582C263.413 101.904 261.01 99.1856 258.126 97.4266H232.17V141.082Z"/>
<path d="M307.87 1H371.799C381.893 4.35814 390.465 10.5947 397.515 19.7096C404.725 28.6647 408.33 39.6986 408.33 52.8113C408.33 74.2394 399.839 89.9907 382.855 100.065L407.129 168.907H373.482L353.053 107.741H340.315V168.907H307.87V1ZM340.315 29.784V80.8757H360.984C363.708 80.2361 366.672 77.5176 369.877 72.7202C373.241 67.763 374.924 62.0062 374.924 55.4498C374.924 48.8935 373.482 43.1367 370.598 38.1794C367.874 33.2221 365.15 30.4237 362.426 29.784H340.315Z"/>
<path d="M485.294 168.907L480.247 142.282H442.274L437.227 168.907H404.541L436.987 1H486.736L517.499 168.907H485.294ZM460.78 32.1827L451.407 88.0717L446.12 116.616H476.162L470.634 88.0717L461.261 32.1827H460.78Z"/>
<path d="M519.478 168.907V1H552.405V168.907H519.478Z"/>
<path d="M638.541 168.907L593.598 76.0784L592.396 76.5581L593.838 104.862V168.907H563.556V1H587.83L632.052 97.4266L633.253 96.9468L630.61 67.4432V1H660.892V168.907H638.541Z"/>
<path d="M687.323 1H745.004V29.784H698.859L698.138 31.2233L736.592 101.264C744.443 115.337 748.369 126.051 748.369 133.407C748.369 149.558 743.001 161.391 732.266 168.907H668.577V141.082H718.327L719.048 139.643L675.787 62.1661C669.538 50.9723 666.414 41.8574 666.414 34.8213C666.414 18.1905 673.384 6.91672 687.323 1Z"/>
<path d="M780.26 29.784H743.969V1H849.237V29.784H812.946V168.907H780.26V29.784Z"/>
<path d="M921.062 1C932.277 10.115 940.609 22.3482 946.057 37.6997C951.504 53.0511 954.228 68.8824 954.228 85.1933C954.228 101.344 951.584 116.696 946.297 131.248C941.009 145.8 932.598 158.353 921.062 168.907H871.552C860.016 158.353 851.604 145.8 846.317 131.248C841.03 116.696 838.386 101.344 838.386 85.1933C838.386 68.8824 841.11 53.0511 846.557 37.6997C852.005 22.3482 860.337 10.115 871.552 1H921.062ZM887.655 141.082H904.959C908.965 136.445 912.329 128.929 915.053 118.535C917.937 107.981 919.379 96.8669 919.379 85.1933C919.379 73.5198 918.017 62.5659 915.293 52.3315C912.57 41.9373 909.205 34.4215 905.199 29.784H887.655C883.649 34.4215 880.204 41.9373 877.32 52.3315C874.596 62.5659 873.235 73.5198 873.235 85.1933C873.235 96.8669 874.596 107.981 877.32 118.535C880.204 128.929 883.649 136.445 887.655 141.082Z"/>
<path d="M960.955 1H1024.88C1034.98 4.35814 1043.55 10.5947 1050.6 19.7096C1057.81 28.6647 1061.42 39.6986 1061.42 52.8113C1061.42 74.2394 1052.92 89.9907 1035.94 100.065L1060.21 168.907H1026.57L1006.14 107.741H993.401V168.907H960.955V1ZM993.401 29.784V80.8757H1014.07C1016.79 80.2361 1019.76 77.5176 1022.96 72.7202C1026.33 67.763 1028.01 62.0062 1028.01 55.4498C1028.01 48.8935 1026.57 43.1367 1023.68 38.1794C1020.96 33.2221 1018.24 30.4237 1015.51 29.784H993.401Z"/>
<path d="M1128.05 92.1495L1140.78 39.6186L1151.12 1H1181.16L1191.97 168.907H1160.49L1155.92 77.2777H1154.72L1137.42 144.92H1117.71L1100.41 77.2777H1099.21L1094.64 168.907H1063.15L1073.97 1H1104.01L1114.35 39.6186L1127.08 92.1495H1128.05Z"/>
</mask>
<path d="M199.484 168.907V1H267.98C275.831 3.87841 282.8 8.91561 288.889 16.1116C294.977 23.3076 298.022 32.0228 298.022 42.2571C298.022 60.3271 292.093 72.9601 280.237 80.1561V81.1156C294.977 89.2711 302.348 102.064 302.348 119.494C302.348 139.483 292.174 155.954 271.825 168.907H199.484ZM232.17 70.3216H255.963C263.013 66.004 266.538 59.4476 266.538 50.6525C266.538 41.8573 263.253 34.9012 256.684 29.784H232.17V70.3216ZM232.17 141.082H256.924C259.808 139.003 262.372 135.725 264.615 131.248C267.018 126.77 268.22 122.293 268.22 117.815C268.22 113.338 267.259 109.26 265.336 105.582C263.413 101.904 261.01 99.1856 258.126 97.4266H232.17V141.082Z" fill="white"/>
<path d="M307.87 1H371.799C381.893 4.35814 390.465 10.5947 397.515 19.7096C404.725 28.6647 408.33 39.6986 408.33 52.8113C408.33 74.2394 399.839 89.9907 382.855 100.065L407.129 168.907H373.482L353.053 107.741H340.315V168.907H307.87V1ZM340.315 29.784V80.8757H360.984C363.708 80.2361 366.672 77.5176 369.877 72.7202C373.241 67.763 374.924 62.0062 374.924 55.4498C374.924 48.8935 373.482 43.1367 370.598 38.1794C367.874 33.2221 365.15 30.4237 362.426 29.784H340.315Z" fill="white"/>
<path d="M485.294 168.907L480.247 142.282H442.274L437.227 168.907H404.541L436.987 1H486.736L517.499 168.907H485.294ZM460.78 32.1827L451.407 88.0717L446.12 116.616H476.162L470.634 88.0717L461.261 32.1827H460.78Z" fill="white"/>
<path d="M519.478 168.907V1H552.405V168.907H519.478Z" fill="white"/>
<path d="M638.541 168.907L593.598 76.0784L592.396 76.5581L593.838 104.862V168.907H563.556V1H587.83L632.052 97.4266L633.253 96.9468L630.61 67.4432V1H660.892V168.907H638.541Z" fill="white"/>
<path d="M687.323 1H745.004V29.784H698.859L698.138 31.2233L736.592 101.264C744.443 115.337 748.369 126.051 748.369 133.407C748.369 149.558 743.001 161.391 732.266 168.907H668.577V141.082H718.327L719.048 139.643L675.787 62.1661C669.538 50.9723 666.414 41.8574 666.414 34.8213C666.414 18.1905 673.384 6.91672 687.323 1Z" fill="white"/>
<path d="M780.26 29.784H743.969V1H849.237V29.784H812.946V168.907H780.26V29.784Z" fill="white"/>
<path d="M921.062 1C932.277 10.115 940.609 22.3482 946.057 37.6997C951.504 53.0511 954.228 68.8824 954.228 85.1933C954.228 101.344 951.584 116.696 946.297 131.248C941.009 145.8 932.598 158.353 921.062 168.907H871.552C860.016 158.353 851.604 145.8 846.317 131.248C841.03 116.696 838.386 101.344 838.386 85.1933C838.386 68.8824 841.11 53.0511 846.557 37.6997C852.005 22.3482 860.337 10.115 871.552 1H921.062ZM887.655 141.082H904.959C908.965 136.445 912.329 128.929 915.053 118.535C917.937 107.981 919.379 96.8669 919.379 85.1933C919.379 73.5198 918.017 62.5659 915.293 52.3315C912.57 41.9373 909.205 34.4215 905.199 29.784H887.655C883.649 34.4215 880.204 41.9373 877.32 52.3315C874.596 62.5659 873.235 73.5198 873.235 85.1933C873.235 96.8669 874.596 107.981 877.32 118.535C880.204 128.929 883.649 136.445 887.655 141.082Z" fill="white"/>
<path d="M960.955 1H1024.88C1034.98 4.35814 1043.55 10.5947 1050.6 19.7096C1057.81 28.6647 1061.42 39.6986 1061.42 52.8113C1061.42 74.2394 1052.92 89.9907 1035.94 100.065L1060.21 168.907H1026.57L1006.14 107.741H993.401V168.907H960.955V1ZM993.401 29.784V80.8757H1014.07C1016.79 80.2361 1019.76 77.5176 1022.96 72.7202C1026.33 67.763 1028.01 62.0062 1028.01 55.4498C1028.01 48.8935 1026.57 43.1367 1023.68 38.1794C1020.96 33.2221 1018.24 30.4237 1015.51 29.784H993.401Z" fill="white"/>
<path d="M1128.05 92.1495L1140.78 39.6186L1151.12 1H1181.16L1191.97 168.907H1160.49L1155.92 77.2777H1154.72L1137.42 144.92H1117.71L1100.41 77.2777H1099.21L1094.64 168.907H1063.15L1073.97 1H1104.01L1114.35 39.6186L1127.08 92.1495H1128.05Z" fill="white"/>
<path d="M199.484 168.907V1H267.98C275.831 3.87841 282.8 8.91561 288.889 16.1116C294.977 23.3076 298.022 32.0228 298.022 42.2571C298.022 60.3271 292.093 72.9601 280.237 80.1561V81.1156C294.977 89.2711 302.348 102.064 302.348 119.494C302.348 139.483 292.174 155.954 271.825 168.907H199.484ZM232.17 70.3216H255.963C263.013 66.004 266.538 59.4476 266.538 50.6525C266.538 41.8573 263.253 34.9012 256.684 29.784H232.17V70.3216ZM232.17 141.082H256.924C259.808 139.003 262.372 135.725 264.615 131.248C267.018 126.77 268.22 122.293 268.22 117.815C268.22 113.338 267.259 109.26 265.336 105.582C263.413 101.904 261.01 99.1856 258.126 97.4266H232.17V141.082Z" stroke="#FFEC44" mask="url(#path-4-outside-1_1102_17)"/>
<path d="M307.87 1H371.799C381.893 4.35814 390.465 10.5947 397.515 19.7096C404.725 28.6647 408.33 39.6986 408.33 52.8113C408.33 74.2394 399.839 89.9907 382.855 100.065L407.129 168.907H373.482L353.053 107.741H340.315V168.907H307.87V1ZM340.315 29.784V80.8757H360.984C363.708 80.2361 366.672 77.5176 369.877 72.7202C373.241 67.763 374.924 62.0062 374.924 55.4498C374.924 48.8935 373.482 43.1367 370.598 38.1794C367.874 33.2221 365.15 30.4237 362.426 29.784H340.315Z" stroke="#FFEC44" mask="url(#path-4-outside-1_1102_17)"/>
<path d="M485.294 168.907L480.247 142.282H442.274L437.227 168.907H404.541L436.987 1H486.736L517.499 168.907H485.294ZM460.78 32.1827L451.407 88.0717L446.12 116.616H476.162L470.634 88.0717L461.261 32.1827H460.78Z" stroke="#FFEC44" mask="url(#path-4-outside-1_1102_17)"/>
<path d="M519.478 168.907V1H552.405V168.907H519.478Z" stroke="#FFEC44" mask="url(#path-4-outside-1_1102_17)"/>
<path d="M638.541 168.907L593.598 76.0784L592.396 76.5581L593.838 104.862V168.907H563.556V1H587.83L632.052 97.4266L633.253 96.9468L630.61 67.4432V1H660.892V168.907H638.541Z" stroke="#FFEC44" mask="url(#path-4-outside-1_1102_17)"/>
<path d="M687.323 1H745.004V29.784H698.859L698.138 31.2233L736.592 101.264C744.443 115.337 748.369 126.051 748.369 133.407C748.369 149.558 743.001 161.391 732.266 168.907H668.577V141.082H718.327L719.048 139.643L675.787 62.1661C669.538 50.9723 666.414 41.8574 666.414 34.8213C666.414 18.1905 673.384 6.91672 687.323 1Z" stroke="#FFEC44" mask="url(#path-4-outside-1_1102_17)"/>
<path d="M780.26 29.784H743.969V1H849.237V29.784H812.946V168.907H780.26V29.784Z" stroke="#FFEC44" mask="url(#path-4-outside-1_1102_17)"/>
<path d="M921.062 1C932.277 10.115 940.609 22.3482 946.057 37.6997C951.504 53.0511 954.228 68.8824 954.228 85.1933C954.228 101.344 951.584 116.696 946.297 131.248C941.009 145.8 932.598 158.353 921.062 168.907H871.552C860.016 158.353 851.604 145.8 846.317 131.248C841.03 116.696 838.386 101.344 838.386 85.1933C838.386 68.8824 841.11 53.0511 846.557 37.6997C852.005 22.3482 860.337 10.115 871.552 1H921.062ZM887.655 141.082H904.959C908.965 136.445 912.329 128.929 915.053 118.535C917.937 107.981 919.379 96.8669 919.379 85.1933C919.379 73.5198 918.017 62.5659 915.293 52.3315C912.57 41.9373 909.205 34.4215 905.199 29.784H887.655C883.649 34.4215 880.204 41.9373 877.32 52.3315C874.596 62.5659 873.235 73.5198 873.235 85.1933C873.235 96.8669 874.596 107.981 877.32 118.535C880.204 128.929 883.649 136.445 887.655 141.082Z" stroke="#FFEC44" mask="url(#path-4-outside-1_1102_17)"/>
<path d="M960.955 1H1024.88C1034.98 4.35814 1043.55 10.5947 1050.6 19.7096C1057.81 28.6647 1061.42 39.6986 1061.42 52.8113C1061.42 74.2394 1052.92 89.9907 1035.94 100.065L1060.21 168.907H1026.57L1006.14 107.741H993.401V168.907H960.955V1ZM993.401 29.784V80.8757H1014.07C1016.79 80.2361 1019.76 77.5176 1022.96 72.7202C1026.33 67.763 1028.01 62.0062 1028.01 55.4498C1028.01 48.8935 1026.57 43.1367 1023.68 38.1794C1020.96 33.2221 1018.24 30.4237 1015.51 29.784H993.401Z" stroke="#FFEC44" mask="url(#path-4-outside-1_1102_17)"/>
<path d="M1128.05 92.1495L1140.78 39.6186L1151.12 1H1181.16L1191.97 168.907H1160.49L1155.92 77.2777H1154.72L1137.42 144.92H1117.71L1100.41 77.2777H1099.21L1094.64 168.907H1063.15L1073.97 1H1104.01L1114.35 39.6186L1127.08 92.1495H1128.05Z" stroke="#FFEC44" mask="url(#path-4-outside-1_1102_17)"/>
<mask id="path-5-outside-2_1102_17" maskUnits="userSpaceOnUse" x="199.059" y="78.2031" width="995" height="170" fill="black">
<rect fill="white" x="199.059" y="78.2031" width="995" height="170"/>
<path d="M200.059 247.11V79.2031H268.555C276.406 82.0815 283.375 87.1187 289.464 94.3148C295.552 101.511 298.597 110.226 298.597 120.46C298.597 138.53 292.668 151.163 280.812 158.359V159.319C295.552 167.474 302.923 180.267 302.923 197.697C302.923 217.686 292.749 234.157 272.4 247.11H200.059ZM232.745 148.525H256.538C263.588 144.207 267.113 137.651 267.113 128.856C267.113 120.06 263.828 113.104 257.259 107.987H232.745V148.525ZM232.745 219.285H257.499C260.383 217.207 262.947 213.928 265.19 209.451C267.593 204.973 268.795 200.496 268.795 196.018C268.795 191.541 267.834 187.463 265.911 183.785C263.988 180.107 261.585 177.389 258.701 175.63H232.745V219.285Z"/>
<path d="M308.445 79.2031H340.41H372.374C382.468 82.5613 391.04 88.7978 398.09 97.9128C405.3 106.868 408.905 117.902 408.905 131.014C408.905 152.443 400.413 168.194 383.43 178.268L407.704 247.11H390.88H374.057L353.628 185.944H340.89V247.11H308.445V79.2031ZM340.89 107.987V159.079H361.559C364.283 158.439 367.247 155.721 370.452 150.923C373.816 145.966 375.499 140.209 375.499 133.653C375.499 127.097 374.057 121.34 371.173 116.383C368.449 111.425 365.725 108.627 363.001 107.987H340.89Z"/>
<path d="M485.869 247.11L480.822 220.485H442.849L437.802 247.11H405.116L437.562 79.2031H487.311L518.074 247.11H485.869ZM461.355 110.386L451.982 166.275L446.695 194.819H476.737L471.209 166.275L461.836 110.386H461.355Z"/>
<path d="M520.053 247.11V79.2031H552.979V247.11H520.053Z"/>
<path d="M639.116 247.11L594.173 154.282L592.971 154.761L594.413 183.066V247.11H564.131V79.2031H588.405L632.626 175.63L633.828 175.15L631.184 145.646V79.2031H661.467V247.11H639.116Z"/>
<path d="M687.898 79.2031H745.579V107.987H699.434L698.713 109.426L737.167 179.468C745.018 193.54 748.944 204.254 748.944 211.61C748.944 227.761 743.576 239.594 732.841 247.11H669.152V219.285H718.902L719.623 217.846L676.362 140.369C670.113 129.175 666.989 120.06 666.989 113.024C666.989 96.3936 673.959 85.1198 687.898 79.2031Z"/>
<path d="M780.835 107.987H744.544V79.2031H849.812V107.987H813.521V247.11H780.835V107.987Z"/>
<path d="M921.636 79.2031C932.852 88.3181 941.184 100.551 946.631 115.903C952.079 131.254 954.803 147.086 954.803 163.396C954.803 179.548 952.159 194.899 946.872 209.451C941.584 224.003 933.173 236.556 921.636 247.11H872.127C860.591 236.556 852.179 224.003 846.892 209.451C841.604 194.899 838.961 179.548 838.961 163.396C838.961 147.086 841.685 131.254 847.132 115.903C852.58 100.551 860.911 88.3181 872.127 79.2031H921.636ZM888.23 219.285H905.534C909.539 214.648 912.904 207.132 915.628 196.738C918.512 186.184 919.954 175.07 919.954 163.396C919.954 151.723 918.592 140.769 915.868 130.535C913.145 120.14 909.78 112.625 905.774 107.987H888.23C884.224 112.625 880.779 120.14 877.895 130.535C875.171 140.769 873.81 151.723 873.81 163.396C873.81 175.07 875.171 186.184 877.895 196.738C880.779 207.132 884.224 214.648 888.23 219.285Z"/>
<path d="M961.53 79.2031H1025.46C1035.55 82.5613 1044.13 88.7978 1051.18 97.9128C1058.39 106.868 1061.99 117.902 1061.99 131.014C1061.99 152.443 1053.5 168.194 1036.52 178.268L1060.79 247.11H1027.14L1006.71 185.944H993.976V247.11H961.53V79.2031ZM993.976 107.987V159.079H1014.64C1017.37 158.439 1020.33 155.721 1023.54 150.923C1026.9 145.966 1028.58 140.209 1028.58 133.653C1028.58 127.097 1027.14 121.34 1024.26 116.383C1021.53 111.425 1018.81 108.627 1016.09 107.987H993.976Z"/>
<path d="M1128.62 170.353L1141.36 117.822L1151.69 79.2031H1181.73L1192.55 247.11H1161.07L1156.5 155.481H1155.3L1137.99 223.123H1118.29L1100.98 155.481H1099.78L1095.21 247.11H1063.73L1074.54 79.2031H1104.59L1114.92 117.822L1127.66 170.353H1128.62Z"/>
</mask>
<path d="M200.059 247.11V79.2031H268.555C276.406 82.0815 283.375 87.1187 289.464 94.3148C295.552 101.511 298.597 110.226 298.597 120.46C298.597 138.53 292.668 151.163 280.812 158.359V159.319C295.552 167.474 302.923 180.267 302.923 197.697C302.923 217.686 292.749 234.157 272.4 247.11H200.059ZM232.745 148.525H256.538C263.588 144.207 267.113 137.651 267.113 128.856C267.113 120.06 263.828 113.104 257.259 107.987H232.745V148.525ZM232.745 219.285H257.499C260.383 217.207 262.947 213.928 265.19 209.451C267.593 204.973 268.795 200.496 268.795 196.018C268.795 191.541 267.834 187.463 265.911 183.785C263.988 180.107 261.585 177.389 258.701 175.63H232.745V219.285Z" fill="white"/>
<path d="M308.445 79.2031H340.41H372.374C382.468 82.5613 391.04 88.7978 398.09 97.9128C405.3 106.868 408.905 117.902 408.905 131.014C408.905 152.443 400.413 168.194 383.43 178.268L407.704 247.11H390.88H374.057L353.628 185.944H340.89V247.11H308.445V79.2031ZM340.89 107.987V159.079H361.559C364.283 158.439 367.247 155.721 370.452 150.923C373.816 145.966 375.499 140.209 375.499 133.653C375.499 127.097 374.057 121.34 371.173 116.383C368.449 111.425 365.725 108.627 363.001 107.987H340.89Z" fill="white"/>
<path d="M485.869 247.11L480.822 220.485H442.849L437.802 247.11H405.116L437.562 79.2031H487.311L518.074 247.11H485.869ZM461.355 110.386L451.982 166.275L446.695 194.819H476.737L471.209 166.275L461.836 110.386H461.355Z" fill="white"/>
<path d="M520.053 247.11V79.2031H552.979V247.11H520.053Z" fill="white"/>
<path d="M639.116 247.11L594.173 154.282L592.971 154.761L594.413 183.066V247.11H564.131V79.2031H588.405L632.626 175.63L633.828 175.15L631.184 145.646V79.2031H661.467V247.11H639.116Z" fill="white"/>
<path d="M687.898 79.2031H745.579V107.987H699.434L698.713 109.426L737.167 179.468C745.018 193.54 748.944 204.254 748.944 211.61C748.944 227.761 743.576 239.594 732.841 247.11H669.152V219.285H718.902L719.623 217.846L676.362 140.369C670.113 129.175 666.989 120.06 666.989 113.024C666.989 96.3936 673.959 85.1198 687.898 79.2031Z" fill="white"/>
<path d="M780.835 107.987H744.544V79.2031H849.812V107.987H813.521V247.11H780.835V107.987Z" fill="white"/>
<path d="M921.636 79.2031C932.852 88.3181 941.184 100.551 946.631 115.903C952.079 131.254 954.803 147.086 954.803 163.396C954.803 179.548 952.159 194.899 946.872 209.451C941.584 224.003 933.173 236.556 921.636 247.11H872.127C860.591 236.556 852.179 224.003 846.892 209.451C841.604 194.899 838.961 179.548 838.961 163.396C838.961 147.086 841.685 131.254 847.132 115.903C852.58 100.551 860.911 88.3181 872.127 79.2031H921.636ZM888.23 219.285H905.534C909.539 214.648 912.904 207.132 915.628 196.738C918.512 186.184 919.954 175.07 919.954 163.396C919.954 151.723 918.592 140.769 915.868 130.535C913.145 120.14 909.78 112.625 905.774 107.987H888.23C884.224 112.625 880.779 120.14 877.895 130.535C875.171 140.769 873.81 151.723 873.81 163.396C873.81 175.07 875.171 186.184 877.895 196.738C880.779 207.132 884.224 214.648 888.23 219.285Z" fill="white"/>
<path d="M961.53 79.2031H1025.46C1035.55 82.5613 1044.13 88.7978 1051.18 97.9128C1058.39 106.868 1061.99 117.902 1061.99 131.014C1061.99 152.443 1053.5 168.194 1036.52 178.268L1060.79 247.11H1027.14L1006.71 185.944H993.976V247.11H961.53V79.2031ZM993.976 107.987V159.079H1014.64C1017.37 158.439 1020.33 155.721 1023.54 150.923C1026.9 145.966 1028.58 140.209 1028.58 133.653C1028.58 127.097 1027.14 121.34 1024.26 116.383C1021.53 111.425 1018.81 108.627 1016.09 107.987H993.976Z" fill="white"/>
<path d="M1128.62 170.353L1141.36 117.822L1151.69 79.2031H1181.73L1192.55 247.11H1161.07L1156.5 155.481H1155.3L1137.99 223.123H1118.29L1100.98 155.481H1099.78L1095.21 247.11H1063.73L1074.54 79.2031H1104.59L1114.92 117.822L1127.66 170.353H1128.62Z" fill="white"/>
<path d="M200.059 247.11V79.2031H268.555C276.406 82.0815 283.375 87.1187 289.464 94.3148C295.552 101.511 298.597 110.226 298.597 120.46C298.597 138.53 292.668 151.163 280.812 158.359V159.319C295.552 167.474 302.923 180.267 302.923 197.697C302.923 217.686 292.749 234.157 272.4 247.11H200.059ZM232.745 148.525H256.538C263.588 144.207 267.113 137.651 267.113 128.856C267.113 120.06 263.828 113.104 257.259 107.987H232.745V148.525ZM232.745 219.285H257.499C260.383 217.207 262.947 213.928 265.19 209.451C267.593 204.973 268.795 200.496 268.795 196.018C268.795 191.541 267.834 187.463 265.911 183.785C263.988 180.107 261.585 177.389 258.701 175.63H232.745V219.285Z" stroke="#FFEC44" stroke-width="2" mask="url(#path-5-outside-2_1102_17)"/>
<path d="M308.445 79.2031H340.41H372.374C382.468 82.5613 391.04 88.7978 398.09 97.9128C405.3 106.868 408.905 117.902 408.905 131.014C408.905 152.443 400.413 168.194 383.43 178.268L407.704 247.11H390.88H374.057L353.628 185.944H340.89V247.11H308.445V79.2031ZM340.89 107.987V159.079H361.559C364.283 158.439 367.247 155.721 370.452 150.923C373.816 145.966 375.499 140.209 375.499 133.653C375.499 127.097 374.057 121.34 371.173 116.383C368.449 111.425 365.725 108.627 363.001 107.987H340.89Z" stroke="#FFEC44" stroke-width="2" mask="url(#path-5-outside-2_1102_17)"/>
<path d="M485.869 247.11L480.822 220.485H442.849L437.802 247.11H405.116L437.562 79.2031H487.311L518.074 247.11H485.869ZM461.355 110.386L451.982 166.275L446.695 194.819H476.737L471.209 166.275L461.836 110.386H461.355Z" stroke="#FFEC44" stroke-width="2" mask="url(#path-5-outside-2_1102_17)"/>
<path d="M520.053 247.11V79.2031H552.979V247.11H520.053Z" stroke="#FFEC44" stroke-width="2" mask="url(#path-5-outside-2_1102_17)"/>
<path d="M639.116 247.11L594.173 154.282L592.971 154.761L594.413 183.066V247.11H564.131V79.2031H588.405L632.626 175.63L633.828 175.15L631.184 145.646V79.2031H661.467V247.11H639.116Z" stroke="#FFEC44" stroke-width="2" mask="url(#path-5-outside-2_1102_17)"/>
<path d="M687.898 79.2031H745.579V107.987H699.434L698.713 109.426L737.167 179.468C745.018 193.54 748.944 204.254 748.944 211.61C748.944 227.761 743.576 239.594 732.841 247.11H669.152V219.285H718.902L719.623 217.846L676.362 140.369C670.113 129.175 666.989 120.06 666.989 113.024C666.989 96.3936 673.959 85.1198 687.898 79.2031Z" stroke="#FFEC44" stroke-width="2" mask="url(#path-5-outside-2_1102_17)"/>
<path d="M780.835 107.987H744.544V79.2031H849.812V107.987H813.521V247.11H780.835V107.987Z" stroke="#FFEC44" stroke-width="2" mask="url(#path-5-outside-2_1102_17)"/>
<path d="M921.636 79.2031C932.852 88.3181 941.184 100.551 946.631 115.903C952.079 131.254 954.803 147.086 954.803 163.396C954.803 179.548 952.159 194.899 946.872 209.451C941.584 224.003 933.173 236.556 921.636 247.11H872.127C860.591 236.556 852.179 224.003 846.892 209.451C841.604 194.899 838.961 179.548 838.961 163.396C838.961 147.086 841.685 131.254 847.132 115.903C852.58 100.551 860.911 88.3181 872.127 79.2031H921.636ZM888.23 219.285H905.534C909.539 214.648 912.904 207.132 915.628 196.738C918.512 186.184 919.954 175.07 919.954 163.396C919.954 151.723 918.592 140.769 915.868 130.535C913.145 120.14 909.78 112.625 905.774 107.987H888.23C884.224 112.625 880.779 120.14 877.895 130.535C875.171 140.769 873.81 151.723 873.81 163.396C873.81 175.07 875.171 186.184 877.895 196.738C880.779 207.132 884.224 214.648 888.23 219.285Z" stroke="#FFEC44" stroke-width="2" mask="url(#path-5-outside-2_1102_17)"/>
<path d="M961.53 79.2031H1025.46C1035.55 82.5613 1044.13 88.7978 1051.18 97.9128C1058.39 106.868 1061.99 117.902 1061.99 131.014C1061.99 152.443 1053.5 168.194 1036.52 178.268L1060.79 247.11H1027.14L1006.71 185.944H993.976V247.11H961.53V79.2031ZM993.976 107.987V159.079H1014.64C1017.37 158.439 1020.33 155.721 1023.54 150.923C1026.9 145.966 1028.58 140.209 1028.58 133.653C1028.58 127.097 1027.14 121.34 1024.26 116.383C1021.53 111.425 1018.81 108.627 1016.09 107.987H993.976Z" stroke="#FFEC44" stroke-width="2" mask="url(#path-5-outside-2_1102_17)"/>
<path d="M1128.62 170.353L1141.36 117.822L1151.69 79.2031H1181.73L1192.55 247.11H1161.07L1156.5 155.481H1155.3L1137.99 223.123H1118.29L1100.98 155.481H1099.78L1095.21 247.11H1063.73L1074.54 79.2031H1104.59L1114.92 117.822L1127.66 170.353H1128.62Z" stroke="#FFEC44" stroke-width="2" mask="url(#path-5-outside-2_1102_17)"/>
<mask id="path-6-outside-3_1102_17" maskUnits="userSpaceOnUse" x="199.059" y="158.707" width="998" height="173" fill="black">
<rect fill="white" x="199.059" y="158.707" width="998" height="173"/>
<path d="M200.059 329.914V159.707H268.793C276.671 162.624 283.665 167.731 289.775 175.025C295.884 182.32 298.939 191.154 298.939 201.529C298.939 219.846 292.99 232.652 281.093 239.947V240.92C295.884 249.187 303.28 262.155 303.28 279.824C303.28 300.087 293.071 316.783 272.652 329.914H200.059ZM232.858 229.978H256.734C263.809 225.601 267.346 218.955 267.346 210.039C267.346 201.124 264.05 194.072 257.458 188.885H232.858V229.978ZM232.858 301.708H257.699C260.593 299.601 263.165 296.277 265.416 291.739C267.828 287.2 269.034 282.661 269.034 278.122C269.034 273.583 268.069 269.45 266.14 265.721C264.211 261.993 261.799 259.237 258.905 257.454H232.858V301.708Z"/>
<path d="M308.822 159.707H372.973C383.102 163.111 391.704 169.433 398.779 178.672C406.014 187.75 409.631 198.935 409.631 212.228C409.631 233.949 401.11 249.916 384.067 260.129L408.426 329.914H374.661L354.162 267.91H341.38V329.914H308.822V159.707ZM341.38 188.885V240.676H362.121C364.854 240.028 367.828 237.272 371.044 232.409C374.42 227.384 376.109 221.548 376.109 214.902C376.109 208.256 374.661 202.42 371.767 197.395C369.034 192.37 366.301 189.533 363.568 188.885H341.38Z"/>
<path d="M486.863 329.914L481.798 302.924H443.693L438.628 329.914H405.829L438.387 159.707H488.31L519.18 329.914H486.863ZM462.263 191.316L452.858 247.971L447.552 276.906H477.698L472.151 247.971L462.746 191.316H462.263Z"/>
<path d="M521.166 329.914V159.707H554.206V329.914H521.166Z"/>
<path d="M640.642 329.914L595.543 235.813L594.337 236.3L595.784 264.992V329.914H565.396V159.707H589.755L634.13 257.454L635.336 256.968L632.683 227.06V159.707H663.071V329.914H640.642Z"/>
<path d="M689.594 159.707H747.475V188.885H701.17L700.447 190.344L739.034 261.344C746.912 275.609 750.852 286.47 750.852 293.927C750.852 310.299 745.465 322.295 734.693 329.914H670.783V301.708H720.705L721.429 300.249L678.018 221.711C671.747 210.363 668.612 201.124 668.612 193.991C668.612 177.133 675.606 165.704 689.594 159.707Z"/>
<path d="M782.854 188.885H746.437V159.707H852.07V188.885H815.653V329.914H782.854V188.885Z"/>
<path d="M924.145 159.707C935.399 168.946 943.76 181.347 949.227 196.909C954.693 212.471 957.427 228.519 957.427 245.053C957.427 261.426 954.774 276.987 949.468 291.739C944.162 306.49 935.721 319.215 924.145 329.914H874.463C862.887 319.215 854.446 306.49 849.14 291.739C843.835 276.987 841.182 261.426 841.182 245.053C841.182 228.519 843.915 212.471 849.382 196.909C854.848 181.347 863.209 168.946 874.463 159.707H924.145ZM890.622 301.708H907.986C912.006 297.007 915.382 289.388 918.115 278.851C921.01 268.153 922.457 256.887 922.457 245.053C922.457 233.22 921.09 222.116 918.357 211.741C915.623 201.205 912.247 193.586 908.227 188.885H890.622C886.602 193.586 883.146 201.205 880.252 211.741C877.518 222.116 876.152 233.22 876.152 245.053C876.152 256.887 877.518 268.153 880.252 278.851C883.146 289.388 886.602 297.007 890.622 301.708Z"/>
<path d="M964.177 159.707H1028.33C1038.46 163.111 1047.06 169.433 1054.13 178.672C1061.37 187.75 1064.99 198.935 1064.99 212.228C1064.99 233.949 1056.47 249.916 1039.42 260.129L1063.78 329.914H1030.02L1009.52 267.91H996.736V329.914H964.177V159.707ZM996.736 188.885V240.676H1017.48C1020.21 240.028 1023.18 237.272 1026.4 232.409C1029.78 227.384 1031.46 221.548 1031.46 214.902C1031.46 208.256 1030.02 202.42 1027.12 197.395C1024.39 192.37 1021.66 189.533 1018.92 188.885H996.736Z"/>
<path d="M1131.85 252.105L1144.63 198.854L1155 159.707H1185.15L1196 329.914H1164.41L1159.82 237.029H1158.62L1141.25 305.598H1121.48L1104.11 237.029H1102.91L1098.33 329.914H1066.73L1077.58 159.707H1107.73L1118.1 198.854L1130.88 252.105H1131.85Z"/>
<path d="M964.177 159.707H1028.33C1038.46 163.111 1047.06 169.433 1054.13 178.672C1061.37 187.75 1064.99 198.935 1064.99 212.228C1064.99 233.949 1056.47 249.916 1039.42 260.129L1063.78 329.914H1030.02L1009.52 267.91H996.736V329.914H964.177V159.707ZM996.736 188.885V240.676H1017.48C1020.21 240.028 1023.18 237.272 1026.4 232.409C1029.78 227.384 1031.46 221.548 1031.46 214.902C1031.46 208.256 1030.02 202.42 1027.12 197.395C1024.39 192.37 1021.66 189.533 1018.92 188.885H996.736Z"/>
<path d="M1131.85 252.105L1144.63 198.854L1155 159.707H1185.15L1196 329.914H1164.41L1159.82 237.029H1158.62L1141.25 305.598H1121.48L1104.11 237.029H1102.91L1098.33 329.914H1066.73L1077.58 159.707H1107.73L1118.1 198.854L1130.88 252.105H1131.85Z"/>
</mask>
<path d="M200.059 329.914V159.707H268.793C276.671 162.624 283.665 167.731 289.775 175.025C295.884 182.32 298.939 191.154 298.939 201.529C298.939 219.846 292.99 232.652 281.093 239.947V240.92C295.884 249.187 303.28 262.155 303.28 279.824C303.28 300.087 293.071 316.783 272.652 329.914H200.059ZM232.858 229.978H256.734C263.809 225.601 267.346 218.955 267.346 210.039C267.346 201.124 264.05 194.072 257.458 188.885H232.858V229.978ZM232.858 301.708H257.699C260.593 299.601 263.165 296.277 265.416 291.739C267.828 287.2 269.034 282.661 269.034 278.122C269.034 273.583 268.069 269.45 266.14 265.721C264.211 261.993 261.799 259.237 258.905 257.454H232.858V301.708Z" fill="#FFEC44"/>
<path d="M308.822 159.707H372.973C383.102 163.111 391.704 169.433 398.779 178.672C406.014 187.75 409.631 198.935 409.631 212.228C409.631 233.949 401.11 249.916 384.067 260.129L408.426 329.914H374.661L354.162 267.91H341.38V329.914H308.822V159.707ZM341.38 188.885V240.676H362.121C364.854 240.028 367.828 237.272 371.044 232.409C374.42 227.384 376.109 221.548 376.109 214.902C376.109 208.256 374.661 202.42 371.767 197.395C369.034 192.37 366.301 189.533 363.568 188.885H341.38Z" fill="#FFEC44"/>
<path d="M486.863 329.914L481.798 302.924H443.693L438.628 329.914H405.829L438.387 159.707H488.31L519.18 329.914H486.863ZM462.263 191.316L452.858 247.971L447.552 276.906H477.698L472.151 247.971L462.746 191.316H462.263Z" fill="#FFEC44"/>
<path d="M521.166 329.914V159.707H554.206V329.914H521.166Z" fill="#FFEC44"/>
<path d="M640.642 329.914L595.543 235.813L594.337 236.3L595.784 264.992V329.914H565.396V159.707H589.755L634.13 257.454L635.336 256.968L632.683 227.06V159.707H663.071V329.914H640.642Z" fill="#FFEC44"/>
<path d="M689.594 159.707H747.475V188.885H701.17L700.447 190.344L739.034 261.344C746.912 275.609 750.852 286.47 750.852 293.927C750.852 310.299 745.465 322.295 734.693 329.914H670.783V301.708H720.705L721.429 300.249L678.018 221.711C671.747 210.363 668.612 201.124 668.612 193.991C668.612 177.133 675.606 165.704 689.594 159.707Z" fill="#FFEC44"/>
<path d="M782.854 188.885H746.437V159.707H852.07V188.885H815.653V329.914H782.854V188.885Z" fill="#FFEC44"/>
<path d="M924.145 159.707C935.399 168.946 943.76 181.347 949.227 196.909C954.693 212.471 957.427 228.519 957.427 245.053C957.427 261.426 954.774 276.987 949.468 291.739C944.162 306.49 935.721 319.215 924.145 329.914H874.463C862.887 319.215 854.446 306.49 849.14 291.739C843.835 276.987 841.182 261.426 841.182 245.053C841.182 228.519 843.915 212.471 849.382 196.909C854.848 181.347 863.209 168.946 874.463 159.707H924.145ZM890.622 301.708H907.986C912.006 297.007 915.382 289.388 918.115 278.851C921.01 268.153 922.457 256.887 922.457 245.053C922.457 233.22 921.09 222.116 918.357 211.741C915.623 201.205 912.247 193.586 908.227 188.885H890.622C886.602 193.586 883.146 201.205 880.252 211.741C877.518 222.116 876.152 233.22 876.152 245.053C876.152 256.887 877.518 268.153 880.252 278.851C883.146 289.388 886.602 297.007 890.622 301.708Z" fill="#FFEC44"/>
<path d="M964.177 159.707H1028.33C1038.46 163.111 1047.06 169.433 1054.13 178.672C1061.37 187.75 1064.99 198.935 1064.99 212.228C1064.99 233.949 1056.47 249.916 1039.42 260.129L1063.78 329.914H1030.02L1009.52 267.91H996.736V329.914H964.177V159.707ZM996.736 188.885V240.676H1017.48C1020.21 240.028 1023.18 237.272 1026.4 232.409C1029.78 227.384 1031.46 221.548 1031.46 214.902C1031.46 208.256 1030.02 202.42 1027.12 197.395C1024.39 192.37 1021.66 189.533 1018.92 188.885H996.736Z" fill="#FFEC44"/>
<path d="M1131.85 252.105L1144.63 198.854L1155 159.707H1185.15L1196 329.914H1164.41L1159.82 237.029H1158.62L1141.25 305.598H1121.48L1104.11 237.029H1102.91L1098.33 329.914H1066.73L1077.58 159.707H1107.73L1118.1 198.854L1130.88 252.105H1131.85Z" fill="#FFEC44"/>
<path d="M964.177 159.707H1028.33C1038.46 163.111 1047.06 169.433 1054.13 178.672C1061.37 187.75 1064.99 198.935 1064.99 212.228C1064.99 233.949 1056.47 249.916 1039.42 260.129L1063.78 329.914H1030.02L1009.52 267.91H996.736V329.914H964.177V159.707ZM996.736 188.885V240.676H1017.48C1020.21 240.028 1023.18 237.272 1026.4 232.409C1029.78 227.384 1031.46 221.548 1031.46 214.902C1031.46 208.256 1030.02 202.42 1027.12 197.395C1024.39 192.37 1021.66 189.533 1018.92 188.885H996.736Z" fill="#FFEC44"/>
<path d="M1131.85 252.105L1144.63 198.854L1155 159.707H1185.15L1196 329.914H1164.41L1159.82 237.029H1158.62L1141.25 305.598H1121.48L1104.11 237.029H1102.91L1098.33 329.914H1066.73L1077.58 159.707H1107.73L1118.1 198.854L1130.88 252.105H1131.85Z" fill="#FFEC44"/>
<path d="M200.059 329.914V159.707H268.793C276.671 162.624 283.665 167.731 289.775 175.025C295.884 182.32 298.939 191.154 298.939 201.529C298.939 219.846 292.99 232.652 281.093 239.947V240.92C295.884 249.187 303.28 262.155 303.28 279.824C303.28 300.087 293.071 316.783 272.652 329.914H200.059ZM232.858 229.978H256.734C263.809 225.601 267.346 218.955 267.346 210.039C267.346 201.124 264.05 194.072 257.458 188.885H232.858V229.978ZM232.858 301.708H257.699C260.593 299.601 263.165 296.277 265.416 291.739C267.828 287.2 269.034 282.661 269.034 278.122C269.034 273.583 268.069 269.45 266.14 265.721C264.211 261.993 261.799 259.237 258.905 257.454H232.858V301.708Z" stroke="#FFEC44" stroke-width="2" mask="url(#path-6-outside-3_1102_17)"/>
<path d="M308.822 159.707H372.973C383.102 163.111 391.704 169.433 398.779 178.672C406.014 187.75 409.631 198.935 409.631 212.228C409.631 233.949 401.11 249.916 384.067 260.129L408.426 329.914H374.661L354.162 267.91H341.38V329.914H308.822V159.707ZM341.38 188.885V240.676H362.121C364.854 240.028 367.828 237.272 371.044 232.409C374.42 227.384 376.109 221.548 376.109 214.902C376.109 208.256 374.661 202.42 371.767 197.395C369.034 192.37 366.301 189.533 363.568 188.885H341.38Z" stroke="#FFEC44" stroke-width="2" mask="url(#path-6-outside-3_1102_17)"/>
<path d="M486.863 329.914L481.798 302.924H443.693L438.628 329.914H405.829L438.387 159.707H488.31L519.18 329.914H486.863ZM462.263 191.316L452.858 247.971L447.552 276.906H477.698L472.151 247.971L462.746 191.316H462.263Z" stroke="#FFEC44" stroke-width="2" mask="url(#path-6-outside-3_1102_17)"/>
<path d="M521.166 329.914V159.707H554.206V329.914H521.166Z" stroke="#FFEC44" stroke-width="2" mask="url(#path-6-outside-3_1102_17)"/>
<path d="M640.642 329.914L595.543 235.813L594.337 236.3L595.784 264.992V329.914H565.396V159.707H589.755L634.13 257.454L635.336 256.968L632.683 227.06V159.707H663.071V329.914H640.642Z" stroke="#FFEC44" stroke-width="2" mask="url(#path-6-outside-3_1102_17)"/>
<path d="M689.594 159.707H747.475V188.885H701.17L700.447 190.344L739.034 261.344C746.912 275.609 750.852 286.47 750.852 293.927C750.852 310.299 745.465 322.295 734.693 329.914H670.783V301.708H720.705L721.429 300.249L678.018 221.711C671.747 210.363 668.612 201.124 668.612 193.991C668.612 177.133 675.606 165.704 689.594 159.707Z" stroke="#FFEC44" stroke-width="2" mask="url(#path-6-outside-3_1102_17)"/>
<path d="M782.854 188.885H746.437V159.707H852.07V188.885H815.653V329.914H782.854V188.885Z" stroke="#FFEC44" stroke-width="2" mask="url(#path-6-outside-3_1102_17)"/>
<path d="M924.145 159.707C935.399 168.946 943.76 181.347 949.227 196.909C954.693 212.471 957.427 228.519 957.427 245.053C957.427 261.426 954.774 276.987 949.468 291.739C944.162 306.49 935.721 319.215 924.145 329.914H874.463C862.887 319.215 854.446 306.49 849.14 291.739C843.835 276.987 841.182 261.426 841.182 245.053C841.182 228.519 843.915 212.471 849.382 196.909C854.848 181.347 863.209 168.946 874.463 159.707H924.145ZM890.622 301.708H907.986C912.006 297.007 915.382 289.388 918.115 278.851C921.01 268.153 922.457 256.887 922.457 245.053C922.457 233.22 921.09 222.116 918.357 211.741C915.623 201.205 912.247 193.586 908.227 188.885H890.622C886.602 193.586 883.146 201.205 880.252 211.741C877.518 222.116 876.152 233.22 876.152 245.053C876.152 256.887 877.518 268.153 880.252 278.851C883.146 289.388 886.602 297.007 890.622 301.708Z" stroke="#FFEC44" stroke-width="2" mask="url(#path-6-outside-3_1102_17)"/>
<path d="M964.177 159.707H1028.33C1038.46 163.111 1047.06 169.433 1054.13 178.672C1061.37 187.75 1064.99 198.935 1064.99 212.228C1064.99 233.949 1056.47 249.916 1039.42 260.129L1063.78 329.914H1030.02L1009.52 267.91H996.736V329.914H964.177V159.707ZM996.736 188.885V240.676H1017.48C1020.21 240.028 1023.18 237.272 1026.4 232.409C1029.78 227.384 1031.46 221.548 1031.46 214.902C1031.46 208.256 1030.02 202.42 1027.12 197.395C1024.39 192.37 1021.66 189.533 1018.92 188.885H996.736Z" stroke="#FFEC44" stroke-width="2" mask="url(#path-6-outside-3_1102_17)"/>
<path d="M1131.85 252.105L1144.63 198.854L1155 159.707H1185.15L1196 329.914H1164.41L1159.82 237.029H1158.62L1141.25 305.598H1121.48L1104.11 237.029H1102.91L1098.33 329.914H1066.73L1077.58 159.707H1107.73L1118.1 198.854L1130.88 252.105H1131.85Z" stroke="#FFEC44" stroke-width="2" mask="url(#path-6-outside-3_1102_17)"/>
<path d="M964.177 159.707H1028.33C1038.46 163.111 1047.06 169.433 1054.13 178.672C1061.37 187.75 1064.99 198.935 1064.99 212.228C1064.99 233.949 1056.47 249.916 1039.42 260.129L1063.78 329.914H1030.02L1009.52 267.91H996.736V329.914H964.177V159.707ZM996.736 188.885V240.676H1017.48C1020.21 240.028 1023.18 237.272 1026.4 232.409C1029.78 227.384 1031.46 221.548 1031.46 214.902C1031.46 208.256 1030.02 202.42 1027.12 197.395C1024.39 192.37 1021.66 189.533 1018.92 188.885H996.736Z" stroke="#FFEC44" stroke-width="2" mask="url(#path-6-outside-3_1102_17)"/>
<path d="M1131.85 252.105L1144.63 198.854L1155 159.707H1185.15L1196 329.914H1164.41L1159.82 237.029H1158.62L1141.25 305.598H1121.48L1104.11 237.029H1102.91L1098.33 329.914H1066.73L1077.58 159.707H1107.73L1118.1 198.854L1130.88 252.105H1131.85Z" stroke="#FFEC44" stroke-width="2" mask="url(#path-6-outside-3_1102_17)"/>
<path d="M49 385.5C55.35 381.118 128.714 251.367 160 216C183 190 203.45 212 215.009 235.034C230.015 264.936 243.407 283.288 262.041 304.444C274.127 318.167 293.372 334.993 312.195 338.572C327.275 341.44 350.009 340.992 361.773 329.651C372.715 319.103 387.789 302.132 388.503 286.318C388.819 279.303 387.732 271.917 378.443 277.68C374.35 280.22 370.126 284.87 367.55 288.775C364.1 294.005 362.43 297.442 359.776 303.776C354.875 315.47 353.582 329.988 353.582 342.962C353.582 350.804 351.406 362.645 361.773 367.417C366.974 369.139 372.158 368.927 377.081 363.219C380.152 359.659 380.911 355.083 380.742 350.609C380.382 341.028 362.367 338.572 354.157 341.08C350.272 342.16 349.624 343.835 354.157 345.865C357.089 347.178 361.056 348.114 364.226 348.114C368.124 348.114 372.319 347.913 376.189 347.326C382.291 346.401 388.604 344.003 394.043 341.08C401.46 337.669 402.902 335.776 404.368 335.446C404.458 335.357 399.971 342.54 399.918 345.865C399.228 351.982 400.948 358.119 403.782 361.04C420.098 374.93 434.164 335.032 420.487 333.828C420.487 333.828 415.55 334.264 412.671 335.776C409.793 337.288 407.348 339.337 409.915 340.059C414.287 341.29 422.929 342.042 428.791 341.08C430.745 340.593 435.351 339.184 437.544 338.158C440.419 336.814 444.142 335.272 446.579 333.828C447.598 333.225 443.566 338.999 442.672 342.962C440.168 354.063 442.183 363.475 451.953 363.219C459.469 363.219 465.043 355.989 467.398 349.689C468.793 345.959 469.299 337.029 464.74 335.032C462.258 333.945 452.93 332.316 450.976 338.158C449.673 342.053 457.382 342.042 461.035 342.042C464.688 342.042 473.195 341.08 473.195 341.08C473.195 341.08 476.579 340.368 482.398 339.564C493.771 337.992 511.534 336.42 511.534 336.42C511.534 336.42 499.097 332.198 497.232 335.669C493.941 341.795 504.446 341.155 509.072 346.219C516.663 354.531 486.354 373.41 486.354 356.061C486.354 349.681 504.672 351.816 510.365 351.6C516.211 351.379 520.965 350.063 527.393 347.627C535.106 344.704 543.787 332.401 546.09 326.087C547.523 322.16 548.97 315.18 549.643 308.292C549.866 306.007 550.222 299.366 548.97 298.534C547.242 297.385 544.525 307.798 543.787 312.31C542.218 321.892 540.382 335.82 540.382 345.543C540.382 351.722 539.74 357.128 544.939 362.251C547.901 365.17 553.578 364.637 558.543 362.731C565.96 359.885 571.474 354.734 574.86 350.397C578.411 345.848 582.86 340.972 582.505 335.032C582.245 330.677 577.332 329.039 571.893 333.497C568.416 336.348 565.465 341.293 567.632 353.512C570.41 361.757 573.201 365.219 577.767 366.269C585.254 367.991 589.984 364.246 593.427 359.885C596.865 355.529 599.319 348.784 599.319 343.316C599.319 340.98 599.319 338.643 599.319 336.307C599.319 332.47 597.753 332.211 596.121 333.497C591.224 337.358 600.731 341.78 605.021 342.755C607.493 343.316 610.241 343.954 613.546 343.954C617.631 343.954 618.371 342.755 619.725 340.319C620.632 339.604 620.607 334.91 619.725 334.041C617.754 332.099 615.068 336.623 614.416 337.395C611.668 340.644 609.966 345.543 608.482 349.576C607.407 352.499 605.75 356.474 605.75 359.885C605.75 364.983 607.14 366.269 608.867 367.991C613.546 371.435 618.198 370.287 623.266 367.991C629.601 365.121 633.057 363.399 638.816 359.885C654.366 350.77 732.616 303.105 761.031 321.017C783.904 332.316 819.922 306.374 871.828 291.421C894.89 284.777 912.89 280.627 963.69 300.587" stroke="#FC4545" stroke-width="2.5" stroke-linecap="round"/>
<path d="M528.972 318.413H563.258" stroke="#FC4545" stroke-width="2.5" stroke-linecap="round"/>
</svg>
