<svg width="840" height="395" viewBox="0 0 840 395" fill="none" xmlns="http://www.w3.org/2000/svg">
<path fill-rule="evenodd" clip-rule="evenodd" d="M840 0H0V304.755L70.7084 312.367H83.6275C84.3913 312.367 84.8989 312.354 85.4357 312.34H85.4391L85.4448 312.34C85.8624 312.329 86.2992 312.318 86.8883 312.312C87.9429 312.301 89.2665 312.319 90.6438 312.577C92.7357 312.968 94.5036 313.82 96.0768 315.099L112.678 316.886C115.428 316.602 118.62 316.398 121.99 316.871C125.06 317.302 128.003 317.977 130.607 318.574L130.613 318.575C131.318 318.736 131.998 318.892 132.649 319.036L144.214 320.281H164.998C166.503 320.281 168.19 320.172 170.205 320.042L170.518 320.022C172.582 319.888 174.933 319.743 177.284 319.76C181.744 319.791 187.448 320.379 192.023 323.895C192.095 323.925 192.316 324.016 192.752 324.132C193.499 324.33 194.482 324.5 195.679 324.65C196.719 324.78 197.773 324.877 198.859 324.977L199.332 325.021C200.482 325.128 201.825 325.257 202.935 325.455C204.708 325.772 206.464 326.027 208.339 326.3L208.361 326.303C210.2 326.57 212.154 326.854 214.169 327.214C215.899 327.523 217.704 327.96 219.338 328.369L234.053 329.954H240.552C241.489 329.954 242.523 329.937 243.612 329.92H243.618C246.031 329.882 248.708 329.839 251.185 329.961C251.282 329.966 251.394 329.971 251.52 329.976L251.831 329.989L251.835 329.99L251.836 329.99C252.833 330.032 254.403 330.099 255.914 330.227C256.884 330.31 257.95 330.426 258.96 330.6C259.858 330.755 261.167 331.028 262.37 331.589C264.282 332.479 266.539 332.556 270.398 332.465C270.582 332.461 270.771 332.456 270.964 332.451C274.32 332.365 279.064 332.243 283.606 334.122C286.575 335.351 290.178 335.767 294.729 335.98C295.574 336.02 296.467 336.052 297.394 336.086C301.079 336.22 305.304 336.373 309.225 337.085C312.124 337.611 314.873 337.704 318.244 337.817L318.258 337.818C318.759 337.835 319.273 337.852 319.804 337.871C322.227 337.96 323.981 339.099 324.774 339.691C333.456 340.134 342.082 340.505 350.901 340.505C355.812 340.505 360.11 342.212 363.26 343.464L363.4 343.519C363.839 343.694 364.257 343.859 364.656 344.015L380.477 345.718C384.608 345.684 388.977 345.741 393.076 346.271C395.149 346.539 397.057 346.819 398.872 347.086C403.746 347.803 407.938 348.419 412.786 348.419C417.74 348.419 422.921 349.443 427.831 350.817L470.903 355.454H486.65C489.212 355.454 491.462 356.128 492.866 356.549L492.987 356.585C494.663 357.086 495.212 357.212 495.647 357.212C503.265 357.212 510.276 358.076 517.223 358.932L519.698 359.236L519.703 359.237L519.705 359.237C530.118 360.516 540.609 361.804 551.073 363.386C554.423 363.893 558.159 363.922 562.266 363.79C563.575 363.747 564.966 363.686 566.392 363.622L566.393 363.622C569.196 363.498 572.132 363.368 574.83 363.368C581.471 363.368 588.044 363.82 594.374 364.256L594.45 364.261C600.872 364.703 607.045 365.126 613.204 365.126C618.627 365.126 623.33 366.577 627.145 367.754L627.391 367.829C631.447 369.08 634.559 370 638 370C645.765 370 653.414 371.017 660.685 372.098C661.804 372.264 662.911 372.431 664.009 372.597C670.175 373.529 676.042 374.415 681.906 374.813C682.624 374.861 683.344 374.784 684.654 374.644L685.07 374.6C685.206 374.585 685.349 374.57 685.499 374.555C687.044 374.394 689.474 374.166 691.993 374.768C692.713 374.94 693.731 375.008 695.247 374.971C695.625 374.962 696.182 374.937 696.809 374.909L696.824 374.909L696.834 374.908L696.836 374.908L696.838 374.908L696.84 374.908C697.962 374.858 699.302 374.799 700.241 374.799C703.832 374.799 708.217 376.048 711.531 376.992L712.01 377.128C716.044 378.273 718.799 379 720.5 379C723.386 379 726.342 379.707 728.964 380.518C731.593 381.332 734.328 382.397 736.823 383.368L736.927 383.409C737.772 383.738 738.591 384.057 739.386 384.36L814.329 392.428L840 395V373.247C838.33 372.783 836.783 372.043 835.547 371.418C835.486 371.387 835.428 371.356 835.375 371.328C834.511 371.266 833.569 371.259 832.693 371.301C832.053 371.332 831.541 371.341 831.106 371.35L831.103 371.35C830.283 371.365 829.737 371.375 829.126 371.514C829.116 371.516 829.097 371.521 829.07 371.527C828.885 371.572 828.328 371.706 827.677 371.813C827.608 378.286 822.348 383.513 815.869 383.513C809.348 383.513 804.061 378.217 804.061 371.683C804.061 365.15 809.348 359.854 815.869 359.854C819.264 359.854 822.325 361.289 824.479 363.587C825.267 362.854 826.381 362.493 827.519 362.71C827.671 362.738 827.81 362.76 827.936 362.773C828.063 362.786 828.159 362.789 828.228 362.787L828.231 362.787C829.274 362.28 830.249 362.39 830.671 362.463C831.02 362.523 831.329 362.619 831.562 362.705C832.01 362.695 832.321 362.681 832.608 362.641C834.275 362.408 835.963 362.566 837.231 362.703C837.601 362.655 837.964 362.653 838.308 362.685C838.971 362.747 839.565 362.937 840 363.109V307.862C839.724 307.741 839.462 307.683 839.191 307.683C837.393 307.683 835.575 307.296 833.947 306.949C833.475 306.849 833.019 306.752 832.584 306.669C830.545 306.278 828.742 306.12 826.935 306.722C826.315 306.929 825.686 307.026 825.09 307.069C822.926 309.775 819.6 311.508 815.869 311.508C809.348 311.508 804.061 306.212 804.061 299.679C804.061 293.145 809.348 287.849 815.869 287.849C821.068 287.849 825.481 291.214 827.059 295.888C827.119 295.887 827.179 295.886 827.24 295.886C829.552 295.886 831.774 296.174 833.936 296.454C834.247 296.494 834.556 296.534 834.864 296.573C836.59 296.791 838.219 296.711 840 296.617V233.104C839.172 232.974 838.354 232.831 837.55 232.69L837.548 232.69C836.778 232.555 836.021 232.423 835.281 232.307C834.399 232.169 833.437 232.154 832.387 232.181C832.031 232.191 831.649 232.206 831.256 232.222L831.254 232.222C830.558 232.249 829.83 232.278 829.16 232.278C828.828 232.278 828.368 232.389 827.757 232.618C827.371 232.764 827.073 232.893 826.757 233.03C826.611 233.094 826.462 233.159 826.298 233.228C824.312 236.961 820.387 239.503 815.869 239.503C809.348 239.503 804.061 234.206 804.061 227.673C804.061 221.14 809.348 215.844 815.869 215.844C820.34 215.844 824.23 218.332 826.235 222.002C826.608 222.074 826.964 222.145 827.306 222.215C828.849 222.526 830.137 222.785 831.627 222.785C831.893 222.785 832.18 222.705 832.706 222.516L832.826 222.473C833.285 222.306 833.948 222.066 834.682 222C836.132 221.87 837.881 221.794 839.45 221.968C839.68 221.994 839.885 222.066 840 222.109V166.085C838.627 165.909 837.338 165.625 836.327 165.387C835.528 165.199 834.853 164.933 834.352 164.711C833.917 164.518 833.5 164.305 833.242 164.173L833.241 164.173L833.169 164.136C833.002 164.051 832.891 163.996 832.812 163.958C832.741 163.954 832.644 163.951 832.515 163.948C832.415 163.946 832.311 163.945 832.186 163.943L832.163 163.943C832.05 163.941 831.917 163.94 831.783 163.937C831.5 163.932 831.136 163.921 830.746 163.893C830.568 163.88 830.406 163.862 830.268 163.844C829.577 163.945 828.53 164.002 827.318 163.664C826.899 163.548 826.544 163.426 826.277 163.329C826.161 163.288 826.048 163.246 825.965 163.215L825.939 163.206C825.847 163.172 825.788 163.15 825.738 163.132C825.521 163.107 825.308 163.075 825.104 163.041C822.941 165.757 819.608 167.497 815.869 167.497C809.348 167.497 804.061 162.201 804.061 155.668C804.061 149.135 809.348 143.838 815.869 143.838C820.791 143.838 825.009 146.854 826.783 151.142C826.848 151.157 826.906 151.17 826.967 151.183C827.078 151.206 827.125 151.213 827.13 151.213C828.215 151.323 829.072 151.586 829.653 151.789C830.622 151.719 831.391 151.859 831.676 151.911L831.677 151.911C831.721 151.919 831.765 151.927 831.802 151.935C831.894 151.938 831.995 151.939 832.14 151.941C832.289 151.943 832.483 151.945 832.76 151.951C833.302 151.962 834.227 151.989 835.212 152.179C836.71 152.467 837.978 153.117 838.523 153.396L838.611 153.441C838.95 153.614 839.088 153.684 839.209 153.737C839.485 153.802 839.748 153.861 840 153.914V88.3863C839.58 88.3578 839.156 88.2843 838.735 88.1626C838.737 88.1632 838.737 88.1632 838.735 88.1626C838.72 88.159 838.626 88.1362 838.39 88.096C838.259 88.0737 838.117 88.0512 837.934 88.0225L837.891 88.0158C837.728 87.9902 837.53 87.9592 837.331 87.9259C837.058 87.8804 836.664 87.8144 836.197 87.7072C836.136 87.7694 836.073 87.8313 836.009 87.8927C835.326 88.5415 834.499 89.083 833.537 89.4541C832.6 89.8158 831.674 89.9624 830.827 89.9889L830.804 89.9901L830.774 89.9919C830.735 89.9942 830.707 89.996 830.669 89.9985L830.552 90.0061C830.37 90.0177 830.051 90.0373 829.694 90.0394C829.143 90.0426 827.729 90.0294 826.229 89.344C824.223 93.0083 820.336 95.4923 815.869 95.4923C809.348 95.4923 804.061 90.1961 804.061 83.6629C804.061 77.1297 809.348 71.8335 815.869 71.8335C819.322 71.8335 822.429 73.318 824.588 75.6847C825.98 75.6777 827.451 76.035 828.818 76.9673C828.885 77.0128 828.95 77.0591 829.014 77.1061C829.43 76.7137 829.92 76.3407 830.493 76.0194C831.389 75.5172 832.326 75.2329 833.236 75.1043C835.301 74.8125 837.14 75.1405 838.886 76.0112C838.97 76.0297 839.101 76.0554 839.307 76.0898C839.41 76.1069 839.514 76.1235 839.633 76.1423L840 76.2V0ZM831.113 163.675C831.125 163.672 831.122 163.673 831.109 163.676L831.113 163.675ZM838.783 75.9857C838.783 75.9857 838.787 75.9867 838.794 75.9888L838.787 75.987L838.783 75.9857Z" fill="white"/>
</svg>
