<svg width="1269" height="7625" viewBox="0 0 1269 7625" fill="none" xmlns="http://www.w3.org/2000/svg">
<path d="M332.848 7012.79C346.48 7012.79 364.256 7014.77 381.773 7018.55C428 7028.5 454.892 7047.36 579.623 7060.38C704.355 7073.4 840.38 7038.34 958.66 7016.3C1076.94 6994.26 1083.39 7016.3 1147.91 7016.3C1212.42 7016.3 1245.8 6965.08 1263 6918C1280.2 6870.92 1249.92 6763.48 1190.43 6720.5C1130.22 6677 1054.28 6648.21 975.323 6633.86C896.368 6619.5 809.279 6604.69 712.957 6587.28C636.018 6573.37 526.509 6586.31 381.773 6507.5C278.009 6451 210.5 6414 136 6319C52.4999 6197 27.63 6073.6 73.8665 5992C120.103 5910.41 206.112 5907.5 311.479 5918C434.585 5930.27 492.644 5957.73 630.803 5945C804.443 5929 902.853 5908.77 1003.89 5850.5C1100.11 5795 1103.42 5674 1074.85 5638C1043.11 5598 1010.34 5558.5 826.484 5558.5C642.63 5558.5 420.608 5638 279.224 5603.5C114.723 5563.36 48.6002 5471.5 15.8076 5365.5L8.81897 5339.5M332.848 7012.79C328.278 7012.79 323.708 7012.79 317.794 7013.8C311.88 7014.8 310.267 7015.54 304.353 7017.8M332.848 7012.79C336.611 7012.79 347.902 7016.3 369.945 7020.81C391.988 7025.32 405.277 7025.9 416.182 7032.33C427.5 7039 425.322 7051.36 416.182 7060.38C407.042 7069.39 389.3 7073.9 376.934 7075.91C364.569 7077.91 340.274 7080.13 326.934 7078.41C307.5 7075.91 298.439 7073.01 291.5 7068C284.561 7062.99 277.568 7054.67 277.568 7043.5C277.568 7032.33 287.686 7025.82 298.439 7020.81C300.415 7019.89 302.411 7018.4 304.353 7017.8M304.353 7017.8C299.622 7019.61 292.113 7027.32 290.5 7032.33C288.887 7037.34 287.387 7042.36 289 7048C290.613 7053.64 296 7058.5 306 7063.5C316 7068.5 343.063 7071.4 364.569 7070.9C386.074 7070.4 398.049 7067.01 404.5 7063.5C410.951 7059.99 416.783 7055.5 418 7049.5C419.217 7043.5 417.5 7039.5 408.5 7034C399.5 7028.5 381.773 7024.31 364.569 7022.31C319.315 7017.04 318.5 7019.5 306 7022.31C296.685 7024.41 287.621 7032.73 284.998 7035.33C278.284 7042 268.869 7050.36 272.633 7070.9C276.396 7091.43 256.344 7118.43 280 7159C298.925 7191.46 260.406 7247 238.365 7284C216.324 7321 162.166 7375 193.746 7469.5C225.325 7564 295.763 7607 411.343 7621C526.924 7635 671.658 7591 749.07 7588.5" stroke="#FC4545" stroke-width="2"/>
<path d="M178.835 29.5259C155.079 2.9416 93.9977 60.1281 85.0827 70.373C67.5371 90.5359 50.8485 111.262 43.896 137.545C40.7687 149.368 38.3133 162.763 51.1143 169.306C66.452 177.145 86.0059 174.893 102.067 171.089C137.362 162.73 181.94 140.934 178.241 98.5667C176.478 78.3697 166.871 58.7388 144.188 58.7388C113.035 58.7388 78.7997 78.7351 55.1905 97.1231C32.342 114.919 15.5702 153.531 42.1127 175.76C54.1307 185.825 70.4682 187.918 85.5922 187.989C113.166 188.117 142.3 183.656 164.569 166.079C181.926 152.378 196.086 132.119 189.875 109.182C183.858 86.9602 167.677 65.0765 149.962 50.7562C138.686 41.6409 125.209 34.7686 111.323 30.7149C98.61 27.0036 77.9725 21.8476 65.0413 27.7427C43.585 37.5242 61.1427 88.4411 67.504 99.7556C87.5274 135.37 123.531 156.463 161.936 167.268C171.226 169.882 213.917 182.101 222.23 167.692C226.01 161.14 218.287 148.117 215.436 142.556C209.469 130.912 200.347 122.261 190.47 113.853C168.775 95.3852 144.006 89.5543 115.484 90.4993C97.5941 91.092 80.9122 92.2707 67.1643 105.275C55.4871 116.322 53.4384 131.555 50.9444 146.292C48.5207 160.614 43.0666 187.106 51.9635 200.897C59.387 212.403 77.0455 204.788 86.0168 200.472C122.073 183.126 149.341 151.676 172.212 119.712C187.832 97.8812 206.059 71.4132 210.426 44.0475C211.401 37.9356 212.681 22.3295 204.906 18.7411C197.04 15.1104 183.748 25.8058 178.835 29.5259ZM178.835 29.5259C158.14 45.1962 139.481 64.3253 121.938 83.3659C108.42 98.0378 95.7499 113.488 87.1208 131.601C84.2738 137.577 69.585 167.618 81.3462 172.533C89.3039 175.859 100.582 173.929 108.521 172.363C130.068 168.113 151.208 159.733 169.324 147.227C181.635 138.728 195.522 127.54 200.49 112.749C205.303 98.4208 198.395 81.6918 191.404 69.3539C178.672 46.8862 156.345 32.0365 130.43 30.8847C104.126 29.7156 29.7651 38.8995 54.681 83.281C56.9191 87.2677 62.0966 95.1733 66.7397 96.6136C78.0879 100.134 99.4754 96.6382 108.181 95.4247C129.059 92.5145 170.29 84.7509 191.064 80.4786C202.989 78.0262 232.715 76.5047 225.032 67.0611C221.671 62.9298 215.815 60.7268 210.766 59.7579C202.904 58.2491 195.474 59.4012 187.667 60.7769C166.764 64.4606 145.958 68.6305 124.996 71.9865C107.512 74.7855 89.9505 77.369 72.3445 79.2897C69.839 79.563 67.7942 79.182 65.8905 80.9881C53.8621 92.3997 31.4126 107.762 31.4126 125.996C31.4126 130.508 32.2195 131.297 36.8476 132.28C59.5411 137.103 83.3745 134.172 106.313 133.13" stroke="#FC4545" stroke-width="2" stroke-linecap="round"/>
<path fill-rule="evenodd" clip-rule="evenodd" d="M558.84 12.252C705.303 -1.02761 877.206 -4.89793 1004.18 12.257C1092.15 24.1416 1151.2 45.1108 1187.85 71.507C1224.55 97.9395 1238.78 129.828 1237.02 163.363C1235.25 196.82 1217.57 231.754 1190.79 264.406C1164 297.073 1128.03 327.546 1089.53 352.092C1048.14 378.474 875.286 483.865 835.458 504.389C830.551 506.918 823.109 510.79 814.044 515.507C778.458 534.022 717.863 565.551 687.427 579.904C661.731 592.022 631.297 604.221 598.71 617.069C594.631 618.677 590.519 620.295 586.378 621.924C557.42 633.319 527.051 645.269 496.965 658.168C443.884 680.924 414.799 690.313 377.597 702.323C362.584 707.17 346.248 712.444 326.48 719.195C271.209 738.07 226.31 755.781 182.058 782.108C122.505 817.537 82.8658 854.935 51.2442 910.245C33.3252 941.587 13.9315 1003.4 6.11218 1073.8C-1.70612 1144.19 2.06619 1223 30.3282 1288.35C59.546 1355.91 110.355 1413.11 158.743 1456.09C207.125 1499.06 253.026 1527.77 272.342 1538.37C370.636 1592.33 476.565 1629.45 544.133 1647.28C583.841 1657.76 682.683 1674.63 767.685 1677.81C800.62 1679.05 831.407 1678.22 855.849 1674.2C863.108 1654.67 872.902 1638.77 882.186 1629.12C887.791 1623.29 893.348 1619.59 898.162 1618.92C900.609 1618.58 902.885 1619.03 904.827 1620.39C906.753 1621.74 908.253 1623.94 909.303 1626.92C913.297 1638.25 911.756 1647.58 905.69 1655.05C899.685 1662.44 889.352 1667.88 876.033 1671.78C870.34 1673.45 864.074 1674.84 857.325 1675.99C855.946 1679.77 854.664 1683.69 853.5 1687.73C838.99 1738.1 842.993 1806.52 908.963 1856.45C975.316 1906.67 1018.8 1933.21 1051.63 1953.11L1053.62 1954.32C1085.37 1973.56 1107.22 1986.8 1130.55 2010.04C1266.9 2145.88 1258.95 2352.05 1150.4 2448.99C1127.26 2469.66 1094.99 2485.7 1060.07 2497.57C1033.76 2506.51 1005.91 2513.1 979.262 2517.5C1001.09 2529.69 1022.78 2545.76 1042.17 2565.64C1076.5 2600.82 1103.67 2647.93 1111.75 2706.44C1119.83 2764.96 1108.8 2834.81 1066.89 2915.46C1036.41 2974.1 984.198 3019.34 922.342 3054.08C860.484 3088.81 788.926 3113.06 719.672 3129.68C650.414 3146.3 583.426 3155.29 530.688 3159.5C504.319 3161.6 481.505 3162.5 463.744 3162.56C446.051 3162.62 433.297 3161.84 427.048 3160.55C408.116 3158.1 391.021 3155.12 374.899 3152.23C372.818 3151.85 370.754 3151.48 368.704 3151.11C354.855 3148.61 341.67 3146.24 328.547 3144.37C298.44 3140.07 268.704 3138.46 232.325 3144.23C213.863 3147.17 193.233 3153.57 174.542 3162.42C155.84 3171.28 139.158 3182.56 128.522 3195.21C90.0249 3240.98 61.135 3290.51 69.0878 3368.64L69.0906 3368.67L69.0919 3368.69C70.4224 3397.42 85.4093 3441.2 109.752 3479.16C129.54 3510.01 155.382 3536.82 184.892 3548.65C198.815 3533.76 214.263 3520.15 231.063 3508.42C246.01 3497.98 268.822 3483.92 289.294 3474.82C299.541 3470.27 316.292 3464.23 332.794 3462.34C349.238 3460.47 365.806 3462.69 375.2 3475.13L375.245 3475.19L375.28 3475.26C382.216 3488.02 378.234 3502.97 366.971 3516.14C355.696 3529.32 336.996 3540.92 313.935 3547.2C264.256 3560.74 231.704 3559.92 205.621 3556.29C198.721 3555.33 191.981 3553.53 185.427 3551.01C180.662 3556.15 176.078 3561.44 171.683 3566.86C153.098 3589.79 141.45 3608.18 131.375 3640.53C121.279 3672.94 117.749 3692.63 116.504 3724.75C116.508 3786.26 135.824 3834.59 167.897 3873.42C199.991 3912.27 244.897 3941.67 296.132 3965.2C347.366 3988.73 404.871 4006.37 462.114 4021.76C485.689 4028.09 509.235 4034.05 532.277 4039.89C565.139 4048.2 596.975 4056.26 626.406 4064.79C650.753 4071.84 676.695 4079.02 703.637 4086.48C766.383 4103.85 834.56 4122.72 900.69 4144.98C995.216 4176.81 1085.71 4215.61 1150.36 4266.97L1150.39 4266.99L1150.42 4267.02C1221.39 4333.03 1255.02 4444.47 1259.73 4559.4C1264.44 4674.35 1240.23 4793.04 1195.23 4873.74C1111.07 5024.66 934.259 5090.28 713.056 5054.24C686.933 5049.98 660.053 5045.17 632.701 5040.28C549.924 5025.47 462.834 5009.89 379.404 5006.53C268.428 5002.07 164.182 5019.25 85.4419 5088.5C57.9731 5112.66 34.1043 5154.78 19.6043 5201.29C5.10653 5247.79 0.0277886 5298.5 9.97216 5339.77C10.1015 5340.3 9.77116 5340.84 9.23424 5340.97C8.69732 5341.1 8.15719 5340.77 8.02781 5340.23C-2.02782 5298.5 3.12943 5247.41 17.695 5200.69C32.2584 5153.98 56.2803 5111.48 84.1211 5087C163.43 5017.25 268.305 5000.06 379.485 5004.53C463.066 5007.9 550.355 5023.51 633.165 5038.33C660.488 5043.22 687.324 5048.02 713.377 5052.27C934.067 5088.22 1109.87 5022.71 1193.48 4872.77C1238.26 4792.46 1262.43 4674.15 1257.73 4559.48C1253.03 4444.8 1219.48 4334 1149.08 4268.51C1084.72 4217.38 994.512 4178.68 900.052 4146.88C833.977 4124.63 765.891 4105.79 703.168 4088.42C676.21 4080.96 650.242 4073.77 625.85 4066.71C596.434 4058.19 564.672 4050.15 531.851 4041.84C508.806 4036.01 485.239 4030.04 461.595 4023.69C404.321 4008.29 346.686 3990.61 295.298 3967.01C243.911 3943.41 198.711 3913.87 166.355 3874.69C133.982 3835.5 114.504 3786.71 114.504 3724.73V3724.71L114.505 3724.69C115.757 3692.38 119.32 3672.51 129.465 3639.93C139.633 3607.29 151.425 3588.68 170.129 3565.6C174.39 3560.35 178.827 3555.21 183.435 3550.22C153.652 3538.02 127.776 3510.96 108.069 3480.24C83.6043 3442.09 68.4548 3397.99 67.0953 3368.81C59.0765 3289.96 88.3097 3239.91 126.991 3193.92C137.882 3180.97 154.845 3169.54 173.686 3160.62C192.539 3151.68 213.351 3145.22 232.011 3142.26C268.642 3136.44 298.587 3138.07 328.829 3142.39C341.985 3144.26 355.204 3146.64 369.042 3149.14C371.098 3149.51 373.167 3149.88 375.252 3150.26C391.378 3153.15 408.446 3156.12 427.342 3158.57L427.379 3158.58L427.416 3158.59C433.424 3159.83 446.003 3160.62 463.737 3160.56C481.44 3160.5 504.203 3159.6 530.529 3157.5C583.183 3153.31 650.065 3144.33 719.205 3127.74C788.349 3111.14 859.717 3086.95 921.363 3052.33C983.011 3017.72 1034.88 2972.72 1065.11 2914.54C1106.87 2834.19 1117.78 2764.76 1109.77 2706.72C1101.76 2648.68 1074.81 2601.95 1040.74 2567.03C1020.82 2546.62 998.478 2530.25 976.063 2518.02C968.42 2519.24 960.886 2520.28 953.524 2521.14C919.576 2525.11 889.253 2525.36 868.986 2522.25C858.889 2520.7 851.127 2518.3 846.688 2514.99C844.45 2513.32 842.963 2511.34 842.549 2509.05C842.133 2506.75 842.835 2504.33 844.538 2501.86L844.599 2501.77L844.677 2501.7C852.585 2494.27 864.667 2490.24 879.272 2489.39C893.893 2488.54 911.151 2490.89 929.55 2496.32C944.655 2500.78 960.552 2507.33 976.42 2515.94C1003.74 2511.55 1032.41 2504.86 1059.43 2495.68C1094.22 2483.85 1126.21 2467.92 1149.07 2447.5C1256.63 2351.44 1264.8 2146.61 1129.14 2011.46C1105.98 1988.39 1084.31 1975.25 1052.49 1955.98L1050.59 1954.82C1017.73 1934.91 974.186 1908.32 907.756 1858.05C840.942 1807.48 836.91 1738.09 851.578 1687.18C852.646 1683.47 853.814 1679.86 855.065 1676.36C830.583 1680.26 800.068 1681.03 767.61 1679.81C682.466 1676.62 583.478 1659.73 543.623 1649.21C475.927 1631.35 369.841 1594.17 271.379 1540.12C251.947 1529.46 205.921 1500.67 157.414 1457.58C108.913 1414.5 57.8713 1357.08 28.4925 1289.14C0.039644 1223.35 -3.71431 1144.16 4.1244 1073.58C11.9621 1003.02 31.4086 940.91 49.5079 909.252C81.3313 853.589 121.244 815.96 181.035 780.389C225.466 753.956 270.52 736.192 325.833 717.302C345.657 710.532 362.016 705.251 377.038 700.401C414.206 688.403 443.185 679.047 496.177 656.329C526.291 643.419 556.688 631.458 585.642 620.064C589.785 618.434 593.898 616.816 597.976 615.208C630.57 602.358 660.945 590.182 686.573 578.096C716.969 563.761 777.495 532.269 813.088 513.749C822.166 509.026 829.621 505.147 834.542 502.611C874.276 482.135 1047.05 376.792 1088.45 350.405C1126.82 325.951 1162.61 295.611 1189.25 263.138C1215.89 230.649 1233.29 196.114 1235.02 163.258C1236.75 130.481 1222.89 99.2129 1186.68 73.1298C1150.42 47.0103 1091.74 26.1044 1003.92 14.239C877.153 -2.88699 705.419 0.970074 559.021 14.2439C430.239 25.9204 382.713 40.8377 336.027 55.4914C329.667 57.4878 323.322 59.4793 316.79 61.4571C298.603 66.9633 276.329 76.4244 251.923 86.7909C239.836 91.9252 227.226 97.2817 214.33 102.49C175.479 118.18 134.113 132.486 97.1169 134.998C96.5659 135.035 96.0889 134.619 96.0515 134.068C96.0141 133.517 96.4304 133.04 96.9814 133.002C133.634 130.514 174.743 116.32 213.581 100.635C226.376 95.4677 238.934 90.1341 250.998 85.01C275.474 74.6141 297.92 65.0802 316.21 59.5429C322.739 57.5662 329.083 55.5752 335.444 53.5789C382.192 38.9064 429.855 23.947 558.84 12.252ZM973.149 2516.45C958.176 2508.52 943.22 2502.44 928.983 2498.24C910.745 2492.85 893.724 2490.56 879.388 2491.39C865.087 2492.21 853.565 2496.14 846.125 2503.08C844.663 2505.24 844.228 2507.1 844.517 2508.7C844.811 2510.32 845.893 2511.9 847.884 2513.38C851.905 2516.38 859.244 2518.73 869.289 2520.27C889.308 2523.34 919.434 2523.12 953.292 2519.15C959.791 2518.39 966.425 2517.49 973.149 2516.45ZM186.901 3549.43C193.084 3551.75 199.423 3553.41 205.897 3554.31C231.726 3557.9 264.005 3558.73 313.41 3545.27C336.162 3539.07 354.486 3527.66 365.451 3514.84C376.408 3502.03 379.892 3488.01 373.558 3476.28C364.831 3464.78 349.272 3462.48 333.02 3464.33C316.798 3466.18 300.255 3472.14 290.107 3476.65C269.79 3485.68 247.092 3499.66 232.208 3510.06C215.751 3521.55 200.592 3534.86 186.901 3549.43ZM858.131 1673.82C864.372 1672.72 870.176 1671.41 875.471 1669.86C888.644 1666 898.512 1660.71 904.137 1653.79C909.7 1646.94 911.216 1638.37 907.416 1627.58C906.457 1624.86 905.162 1623.07 903.677 1622.03C902.209 1621 900.46 1620.62 898.436 1620.9C894.31 1621.47 889.149 1624.76 883.628 1630.5C874.739 1639.75 865.269 1654.99 858.131 1673.82Z" fill="#FC4545"/>
</svg>
