<svg width="50" height="64" viewBox="0 0 50 64" fill="none" xmlns="http://www.w3.org/2000/svg">
<path d="M0.530967 11.1761L1.63347 10.2765L3.62295 10.8383L4.98905 9.28675L6.97854 9.84855L8.76409 8.17324L10.7536 8.73505L12.1197 7.18346L14.1092 7.74526L15.8947 6.06995L17.8842 6.63175L18.8309 5.20388L20.8203 5.76569L22.1864 4.2141L24.1759 4.7759L25.542 3.22431L27.5315 3.78612L28.8976 2.23453L30.8871 2.79633L32.2532 1.24474L34.2427 1.80655L41.957 27.9598L8.40114 37.8576L0.530967 11.1761Z" fill="#F2F2F2" fill-opacity="0.3"/>
<path d="M0.530967 11.1761L1.63347 10.2765L3.62295 10.8383L4.98905 9.28675L6.97854 9.84855L8.76409 8.17324L10.7536 8.73505L12.1197 7.18346L14.1092 7.74526L15.8947 6.06995L17.8842 6.63175L18.8309 5.20388L20.8203 5.76569L22.1864 4.2141L24.1759 4.7759L25.542 3.22431L27.5315 3.78612L28.8976 2.23453L30.8871 2.79633L32.2532 1.24474L34.2427 1.80655L41.957 27.9598L8.40114 37.8576L0.530967 11.1761Z" fill="#F2F2F2" fill-opacity="0.3"/>
<path d="M49.4992 53.53L48.3902 54.4075L46.4137 53.8898L45.0346 55.3973L43.0581 54.8796L41.2596 56.5108L39.2831 55.9931L37.904 57.5006L35.9275 56.9829L34.129 58.6141L32.1525 58.0964L31.1928 59.4802L29.2163 58.9624L27.8372 60.47L25.8607 59.9522L24.4817 61.4598L22.5052 60.942L21.1261 62.4496L19.1496 61.9318L17.7705 63.4393L15.794 62.9216L8.40109 37.858L41.957 27.9602L49.4992 53.53Z" fill="#F2F2F2" fill-opacity="0.3"/>
<path d="M49.4992 53.53L48.3902 54.4075L46.4137 53.8898L45.0346 55.3973L43.0581 54.8796L41.2596 56.5108L39.2831 55.9931L37.904 57.5006L35.9275 56.9829L34.129 58.6141L32.1525 58.0964L31.1928 59.4802L29.2163 58.9624L27.8372 60.47L25.8607 59.9522L24.4817 61.4598L22.5052 60.942L21.1261 62.4496L19.1496 61.9318L17.7705 63.4393L15.794 62.9216L8.40109 37.858L41.957 27.9602L49.4992 53.53Z" fill="#F2F2F2" fill-opacity="0.3"/>
</svg>
