<svg width="36" height="41" viewBox="0 0 36 41" fill="none" xmlns="http://www.w3.org/2000/svg">
<path d="M17.5703 18.0881C14.746 15.6757 12.322 12.9893 9.60919 10.4961C8.98853 9.92575 8.42105 9.2803 7.44311 9.01653C6.69734 8.81538 6.2579 8.34116 5.7375 7.94531C5.67606 7.89858 5.46294 7.78274 5.51958 7.83304C5.95254 8.2175 6.47077 8.54753 6.90756 8.93179C8.55921 10.3848 10.1391 11.8896 11.6632 13.4322C12.4512 14.2296 13.1864 15.0695 14.0682 15.8015C14.6348 16.2719 15.4004 16.5704 15.9767 17.0267C16.2493 17.2425 16.6308 17.3601 16.8755 17.595C16.8792 17.5985 17.0248 17.7154 17.0099 17.7266C16.9328 17.7847 16.8622 17.699 16.7991 17.6737C16.5183 17.5611 16.3558 17.4712 16.1041 17.3072C14.5298 16.2817 13.3815 14.8735 12.1931 13.5758C10.6903 11.9346 9.35295 10.182 7.81323 8.56602C7.27436 8.00044 6.69993 7.27974 5.78108 7.02106C5.01559 6.80554 4.67037 6.0701 4.27463 5.57735C3.93109 5.1496 3.48753 4.78993 3.05244 4.42569C2.62904 4.07124 3.53688 5.36309 3.7888 5.82655C3.95252 6.12774 3.91445 6.27958 3.8279 6.68353C3.6604 7.46528 3.87195 8.05763 4.19098 8.64454C4.37657 8.98597 4.53474 9.34841 4.75482 9.67029C4.79207 9.72476 5.14635 10.0142 4.97898 9.79405C4.16379 8.72175 3.29902 7.69229 2.61381 6.53966C2.16702 5.78808 1.76434 5.01154 1.347 4.24376C1.2603 4.08426 1.0692 3.8697 1.04112 3.66949C1.02422 3.549 1.80702 3.4668 1.86441 3.46386C2.79992 3.41589 3.67882 3.72937 4.52534 3.83346C5.58615 3.9639 6.60895 4.13091 7.49647 4.47356C7.69121 4.54875 7.83715 4.69394 8.05665 4.74215C8.23892 4.78218 7.6378 4.74175 7.42858 4.74119C6.35944 4.73832 5.39622 4.57822 4.48267 4.35531C4.13216 4.26979 3.89839 4.19866 3.43542 4.31055C2.78209 4.46844 2.55054 4.90766 2.69142 5.25084C3.30319 6.74117 4.2346 8.10135 5.0022 9.51349" stroke="#222222" stroke-width="0.8" stroke-linecap="round"/>
<path d="M17.1166 32.8835C17.1305 32.8777 17.1206 32.8245 17.0868 32.724C17.0571 32.6135 17.0463 32.5485 17.0545 32.5287L16.9522 32.0187L16.9921 31.7319L16.7878 31.0067C16.7662 30.9747 16.743 30.9189 16.7179 30.8393L16.6847 30.7304L16.6585 30.6676L16.3589 29.4787L16.198 28.5634C16.1625 28.5372 16.1244 28.5245 16.0837 28.5251C15.8577 28.513 15.6415 28.6523 15.4354 28.943L14.6241 29.5886C14.6067 29.645 14.5919 29.688 14.5797 29.7176L14.584 29.7281C14.5788 29.7548 14.5428 29.7862 14.476 29.8223C14.4481 29.8339 14.4092 29.8584 14.3592 29.8956L14.225 30.0744C14.2169 30.0941 14.2073 30.1104 14.1963 30.1232L14.1405 30.1956C14.1324 30.2154 14.1077 30.2543 14.0665 30.3125L13.5027 30.7565L13.5245 30.8088L13.5367 30.7792C13.5367 30.7792 13.5373 30.7707 13.5384 30.7539C13.296 30.6831 13.158 30.5975 13.1242 30.4969C13.0899 30.4539 13.0579 30.4263 13.0283 30.4142L12.9715 30.2782L12.9992 29.8737C13.0404 29.8155 13.073 29.7856 13.0968 29.7838L13.4714 29.3573L14.0335 28.9385L14.0858 28.9167L14.1651 28.8713C14.218 28.8411 14.254 28.8097 14.2732 28.7771L14.5625 28.5581C14.5973 28.4454 14.6624 28.3855 14.7577 28.3784L14.8431 28.3182L14.9215 28.2118L15.2553 28.0112C15.3552 27.9367 15.4598 27.8439 15.569 27.7329L15.711 27.6613L15.847 27.6046L16.0927 27.4283L15.7783 24.6736L15.729 23.9082C15.7325 23.8577 15.7424 23.8126 15.7586 23.7731C15.662 23.5023 15.5978 23.1033 15.5662 22.5762L15.5548 22.5196C15.5542 22.4789 15.5262 22.3432 15.4709 22.1125L15.3966 21.7873L15.2753 21.5555C15.2927 21.4009 15.3388 21.2957 15.4137 21.2398L15.4956 21.0829L15.6455 20.9712L16.4075 21.1199L16.459 21.1843L16.5968 21.2497C16.698 21.453 16.7455 21.5765 16.7391 21.6201L16.7113 21.8773L16.6706 22.3978C16.6608 22.4919 16.6609 22.5902 16.6708 22.6924L16.6892 22.9426L16.7016 23.2077C16.7081 23.3605 16.7157 23.4474 16.7244 23.4683C16.696 23.6357 16.6795 23.7531 16.6749 23.8205C16.7057 23.9141 16.7204 24.0963 16.7188 24.3671C16.7212 24.6281 16.7463 24.8059 16.794 24.9006L16.7664 25.3052L16.8242 25.9442L16.8741 26.3286C16.8806 26.3832 16.8946 26.4756 16.9161 26.6058L16.9267 26.7488C16.9395 26.7598 16.9447 26.7822 16.9424 26.8159L16.9346 26.856C16.9253 26.8926 16.9997 26.8943 17.1578 26.8611L17.4864 26.7363C17.5352 26.7159 17.6427 26.6792 17.8089 26.6262C17.8298 26.6175 17.9155 26.5776 18.066 26.5067C18.1607 26.4589 18.2243 26.4447 18.2569 26.4638L18.8051 26.2473L19.0021 26.1897C19.0806 26.1815 19.1602 26.1565 19.241 26.1146L19.3412 26.0605C19.3133 26.0721 19.3874 26.0535 19.5635 26.0046C19.7913 25.9423 19.8837 25.9283 19.8407 25.9626L20.1614 25.8778L20.4596 25.8271L20.5093 25.9169L20.4832 26.0015L20.3726 26.2073C20.3703 26.241 20.178 26.3294 19.7956 26.4726C19.7259 26.5017 19.6756 26.5186 19.6448 26.5232L19.3833 26.6324C19.3653 26.6481 19.3011 26.6708 19.1907 26.7005L19.1593 26.7136L19.1009 26.7502L19.0277 26.7808C19.0335 26.7947 19.0399 26.8002 19.0469 26.7973L19.0129 26.7747L18.6173 27.0626L17.0537 27.9361C17.0404 27.9826 17.0558 28.0785 17.1001 28.2237C17.1129 28.2348 17.126 28.2662 17.1394 28.3179L17.1682 28.4164C17.1421 28.5501 17.1509 28.6692 17.1945 28.7738C17.2021 28.8116 17.217 28.8668 17.2391 28.9394L17.2514 29.0571L17.2976 29.1974C17.3594 29.3845 17.3757 29.4432 17.3466 29.3735C17.3885 29.4543 17.3989 29.499 17.378 29.5077L17.4333 30.111L17.5878 30.5991C17.5966 30.62 17.61 30.6718 17.628 30.7543L17.7093 31.1256C17.7816 31.4557 17.8305 31.6318 17.8561 31.6538C17.8688 31.6649 17.8787 31.6689 17.8857 31.666L17.8561 31.6538L17.9766 32.1193C18.0086 32.196 18.029 32.2939 18.0378 32.4131L18.1234 32.7949L18.38 33.351L18.4655 33.4381L18.4255 33.5776C18.4441 33.6026 18.4578 33.6255 18.4665 33.6464C18.4683 33.6703 18.457 33.7118 18.4326 33.7711L17.7162 34.2911C17.6697 34.2778 17.6189 34.254 17.5636 34.2197C17.5689 34.193 17.5642 34.1622 17.5496 34.1273C17.531 34.1023 17.5238 34.0849 17.5278 34.075L17.2713 33.6663C17.2113 33.4048 17.1597 33.1438 17.1166 32.8835ZM23.666 26.8101C23.6421 26.6154 23.6124 26.505 23.5769 26.4788L23.6395 26.158L23.5826 25.7274C23.4179 25.4113 23.1859 25.2379 22.8866 25.2073C22.861 25.1852 22.8398 25.1736 22.8229 25.1724L22.4482 25.4516C22.414 25.5068 22.3675 25.5426 22.3088 25.5589L22.1312 25.9278C22.105 25.9633 22.0815 25.9854 22.0606 25.9941L21.8413 26.8224C21.7554 26.9893 21.7026 27.1177 21.6829 27.2078C21.571 27.7048 21.513 28.0074 21.509 28.1155L21.4582 29.2296C21.5299 29.6173 21.5742 29.9099 21.5912 30.1075C21.6046 30.1592 21.62 30.206 21.6374 30.2478C21.6665 30.3175 21.7046 30.3794 21.7517 30.4334L21.9708 30.8701C22.015 30.9171 22.076 30.9162 22.1539 30.8674C22.3305 30.7609 22.4862 30.6141 22.6209 30.4269C22.6883 30.3332 22.7937 30.1542 22.9371 29.8897L23.0503 29.5723L23.1556 29.295C23.1439 29.2671 23.173 29.1895 23.2426 29.0622L23.2852 28.8111C23.316 28.8064 23.3375 28.7892 23.3497 28.7596C23.3711 28.5951 23.4274 28.4161 23.5185 28.2225C23.5497 27.8656 23.5824 27.6104 23.6166 27.457C23.6358 27.4244 23.6564 27.3954 23.6785 27.3698L23.666 26.8101ZM27.739 30.0963C27.6315 30.133 27.531 30.1667 27.4375 30.1976L26.9972 30.1725C26.7764 30.2319 26.6349 30.246 26.5727 30.2146C26.3692 30.2176 26.1297 30.1538 25.8542 30.0232C25.4769 29.845 25.2537 29.7417 25.1845 29.7132L24.9289 29.3655L24.6585 29.159L24.3898 28.7799C24.3683 28.748 24.3552 28.7166 24.3505 28.6858L24.2964 28.5856C24.2539 28.5624 24.2234 28.5383 24.2048 28.5133C24.1822 28.5964 24.1572 28.6641 24.1299 28.7164C24.094 28.8461 24.0577 28.9554 24.0211 29.0443L23.9394 29.3486L23.882 29.5936C23.8256 29.6744 23.7893 29.7346 23.7731 29.7741C23.747 29.9078 23.7133 30.0037 23.6721 30.0619C23.6867 30.0967 23.6634 30.1392 23.6024 30.1892L23.4196 30.6339L23.2402 31.0281C23.0712 31.1723 22.9431 31.2871 22.8559 31.3726C22.5765 31.6448 22.2369 31.8315 21.8371 31.9329C21.6198 31.9417 21.4084 31.7884 21.2031 31.4729C21.1356 31.3701 21.083 31.2733 21.0451 31.1827L20.9325 30.8244L20.7174 29.6616C20.697 29.6128 20.6833 29.4916 20.6762 29.2981C20.6597 28.9447 20.6572 28.6346 20.6687 28.3679L20.7531 27.952L20.8156 27.4838L20.9652 26.9301L21.1934 26.4174L21.3753 25.9116C21.4165 25.8535 21.4508 25.7983 21.4781 25.7459L21.5921 25.3422L21.8848 24.9254C21.9888 24.841 22.0648 24.7683 22.1131 24.7073C22.5041 24.4868 22.7519 24.3547 22.8565 24.3111L22.9715 24.2631L23.1014 24.2212C23.3094 24.1507 23.5489 24.1654 23.8198 24.2652C23.8907 24.3175 23.9469 24.4128 23.9882 24.5511C24.0243 24.6179 24.0566 24.6658 24.085 24.6949L24.1514 24.9128L24.3522 25.3939L24.457 25.7923C24.5257 25.8782 24.5717 26.0965 24.5951 26.4469C24.6236 26.476 24.6472 26.503 24.6658 26.528L24.6939 27.0074C24.6748 27.04 24.6763 27.0926 24.6984 27.1652C24.8177 27.5493 24.8847 27.7588 24.8992 27.7937C24.9225 27.8495 24.9484 27.941 24.977 28.0682C25.0026 28.1885 25.0271 28.2766 25.0503 28.3324L25.4133 28.8195L26.0386 29.2585L26.8007 29.5545L27.5618 29.6422L27.7083 29.7284C27.7345 29.7912 27.7619 29.8371 27.7904 29.8661C27.7979 29.9039 27.7872 29.937 27.7582 29.9655C27.7378 30.0149 27.7315 30.0585 27.739 30.0963ZM30.6041 22.9446C30.5976 22.7918 30.5303 22.562 30.4023 22.2552L30.3281 22.0774L30.2505 21.9501C30.1162 21.8833 30.0075 21.8387 29.9243 21.816C29.7872 21.8405 29.6907 21.8644 29.6349 21.8877L29.2707 22.1625L28.9606 22.6849L28.9302 22.9063C28.9029 22.9586 28.882 23.0165 28.8675 23.0798L28.6864 23.4993L28.6578 23.6954C28.6235 23.7507 28.5866 23.8193 28.5472 23.9012L28.5275 24.5603C28.5025 24.6772 28.4637 24.7998 28.4108 24.9283L28.395 26.2735L28.3567 26.3877L28.4123 27.5803L28.5152 27.7093C28.5158 27.7499 28.533 27.7714 28.5667 27.7737L28.8639 27.662L29.1979 27.756L29.3746 27.3261C29.4437 27.1581 29.549 26.9299 29.6907 26.6415L29.7438 26.5334L30.4279 24.4059C30.4394 24.2373 30.4757 24.0789 30.5366 23.9307C30.536 23.89 30.5299 23.8557 30.5182 23.8278L30.537 23.1077L30.6041 22.9446ZM27.1037 25.9159L27.1185 25.922L27.1176 25.8609C27.1182 25.8034 27.1053 25.7433 27.0791 25.6805C27.0436 25.4579 27.0434 25.1633 27.0787 24.7965L27.3864 24.6804L27.4107 24.6211C27.5025 24.5664 27.5502 24.5138 27.5536 24.4632L27.8277 23.5015C27.805 23.3882 27.8421 23.2417 27.9391 23.062C28.0593 22.8399 28.1374 22.7132 28.1734 22.6818C28.2018 22.6126 28.2157 22.5577 28.2151 22.517C28.3109 22.256 28.3959 22.0772 28.4703 21.9807L28.7526 21.7155C28.7973 21.7051 28.8467 21.6763 28.9008 21.6292C28.9617 21.5791 29.0062 21.5483 29.0341 21.5367C29.0899 21.5134 29.1619 21.4997 29.2503 21.4956L29.6329 21.3236C29.655 21.298 29.6666 21.2768 29.6677 21.26L30.1768 21.244L30.5587 21.3057C30.7011 21.3527 30.7878 21.423 30.8186 21.5165L30.8736 21.6778L31.0254 21.8355L31.2246 22.6366C31.3241 22.8161 31.3502 23.2023 31.3028 23.7951C31.2837 23.8277 31.2666 23.9044 31.2515 24.0253L31.1515 24.3741L30.9662 25.0777L30.4813 26.4467L30.4055 26.5888L30.1322 27.3169L30.0024 27.5062C29.8068 28.0381 29.639 28.3619 29.499 28.4776L29.2552 29.0706C29.2431 29.1002 29.2117 29.1625 29.1612 29.2572L29.1081 29.3653L29.1002 29.4055L29.0837 29.4246L29.0985 29.4307L29.0732 29.429C29.0878 29.4639 29.0875 29.4926 29.0724 29.5153L29.0393 29.5537C29.0242 29.5764 29.0126 29.5976 29.0045 29.6174C28.9603 29.6685 28.9034 29.7087 28.8337 29.7378C28.7639 29.7669 28.6814 29.7849 28.5861 29.7919C28.5541 29.8135 28.5405 29.8396 28.5452 29.8704C28.5132 29.7937 28.5443 29.9567 28.6387 30.3594L28.6282 30.3638L28.638 30.5931L28.8792 31.6714C28.8896 31.7161 28.8897 31.7652 28.8792 31.8187C28.8752 31.8286 28.8726 31.842 28.8714 31.8588L28.9421 31.9398L29.102 32.6468L29.3405 33.542L29.4262 34.0711C29.4722 34.142 29.4917 34.228 29.4848 34.3291L29.6654 34.5854C29.67 34.6162 29.686 34.6545 29.7134 34.7004C29.718 34.7312 29.698 34.7518 29.6532 34.7623L29.5776 35.0518L29.473 35.2428L28.8838 35.3904L28.7564 35.1734L28.6735 34.9747L28.6392 34.5101C28.6269 34.3433 28.6004 34.2111 28.5597 34.1134L28.4609 33.7003L28.4381 33.4396L28.3526 33.2051C28.3508 33.1813 28.3336 33.1107 28.301 32.9933C28.2882 32.9823 28.2853 32.9753 28.2923 32.9724L27.8222 31.0809L27.677 30.2327L27.6055 30.0906L27.5216 29.6835L27.4804 29.32C27.4984 29.2061 27.482 29.0492 27.4313 28.8493L27.4051 28.7865C27.4022 28.7796 27.3973 28.7775 27.3903 28.7804L27.2808 27.7823C27.329 27.623 27.3067 27.3048 27.214 26.8277L27.2192 26.7519L27.2096 26.6699L27.1169 26.0946L27.1037 25.9159Z" fill="black"/>
</svg>
