<svg width="220" height="24" viewBox="0 0 220 24" fill="none" xmlns="http://www.w3.org/2000/svg">
<g clip-path="url(#clip0_954_1077)">
<mask id="mask0_954_1077" style="mask-type:luminance" maskUnits="userSpaceOnUse" x="0" y="0" width="220" height="24">
<path d="M220 0H0V24H220V0Z" fill="white"/>
</mask>
<g mask="url(#mask0_954_1077)">
<path d="M23.5244 0.591064L15.5194 10.7509L7.51378 0.591064H0L12.281 16.1667V23.6417H18.7577V16.1667L31.0387 0.591064H23.5244Z" fill="white"/>
<path d="M56.0062 3.1665C53.2973 1.0555 49.3634 0 44.2042 0C39.045 0 35.1114 1.0555 32.4032 3.1665C29.7648 5.23314 28.4458 8.1777 28.4462 12.0002C28.4465 15.8227 29.7655 18.7672 32.4032 20.8335C35.1114 22.9448 39.045 24.0003 44.2042 24C49.3634 23.9997 53.2973 22.9441 56.0062 20.8335C58.6439 18.7669 59.9628 15.8224 59.9628 12.0002C59.9628 8.17807 58.6439 5.23347 56.0062 3.1665ZM44.2042 18.0802C38.4254 18.0802 35.5359 16.0536 35.5359 12.0002C35.5359 7.94689 38.4254 5.92007 44.2042 5.91975C49.9834 5.91975 52.8729 7.94659 52.8729 12.0002C52.8729 16.0539 49.9834 18.0806 44.2042 18.0802Z" fill="white"/>
<path d="M92.2509 12.0002C92.2509 8.17837 90.9328 5.23379 88.2949 3.1665C85.5864 1.0555 81.6527 0 76.4933 0C71.3337 0 67.3999 1.0555 64.6918 3.1665C62.0533 5.23314 60.7343 8.1777 60.7346 12.0002C60.735 15.8227 62.054 18.7672 64.6918 20.8335C67.3995 22.9448 71.3334 24.0003 76.4933 24C81.6534 23.9997 85.5872 22.9441 88.2949 20.8335C90.9328 18.7669 92.2517 15.8224 92.2509 12.0002ZM76.4933 18.0802C70.7141 18.0802 67.8243 16.0536 67.824 12.0002C67.8236 7.94689 70.7134 5.92007 76.4933 5.91975C82.2718 5.91975 85.1616 7.94659 85.1616 12.0002C85.1624 16.0539 82.2726 18.0806 76.4933 18.0802Z" fill="white"/>
<path d="M97.4053 20.8316C100.113 22.9429 104.047 23.9984 109.206 23.9981C114.365 23.9978 118.3 22.9422 121.008 20.8316C123.646 18.765 124.965 15.8205 124.964 11.9983C124.964 8.17607 123.646 5.23153 121.008 3.16456C118.299 1.05487 114.365 0 109.206 0C104.047 0 100.113 1.0555 97.4053 3.1665C94.7659 5.23314 93.447 8.1777 93.4478 12.0002C93.4493 15.8227 94.7682 18.7665 97.4053 20.8316ZM109.206 5.91782C114.986 5.91782 117.875 7.94467 117.875 11.9983C117.874 16.0519 114.985 18.0786 109.206 18.0783C103.428 18.0783 100.538 16.0516 100.538 11.9983C100.537 7.94496 103.427 5.91878 109.206 5.91975V5.91782Z" fill="white"/>
<path d="M220 6.09016V0.564697H197.178V23.5998H220V18.0744H203.918V14.6418H219.04V9.52278H203.918V6.09016H220Z" fill="white"/>
<path d="M124.673 6.09016H134.232V23.5998H141.809V6.09016H151.561V0.564697H124.673V6.09016Z" fill="white"/>
<path d="M161.016 0.564697H153.482V23.5998H161.016V0.564697Z" fill="white"/>
<path d="M179.053 12.73L169.072 0.564697H163.219V23.5998H170.027V12.3464L179.054 22.9419L188.081 12.3464V23.5998H194.889V0.564697H189.035L179.053 12.73Z" fill="white"/>
</g>
</g>
<defs>
<clipPath id="clip0_954_1077">
<rect width="220" height="24" fill="white"/>
</clipPath>
</defs>
</svg>
