<svg width="63" height="125" viewBox="0 0 63 125" fill="none" xmlns="http://www.w3.org/2000/svg">
<path d="M38.27 51.6071V52.5C54.5273 57.619 62.656 68.75 62.656 85.8929C62.656 94.5833 60.342 102.381 55.714 109.286C51.2047 116.19 46.1613 121.429 40.584 125H0V104.286H30.616C32.04 102.976 33.642 100.357 35.422 96.4286C37.202 92.5 38.092 88.5119 38.092 84.4643C38.092 76.9643 35.422 71.4286 30.082 67.8571H15.664V48.3929L37.202 23.3929L36.312 21.4286H0.712V0H43.61C53.6967 4.28572 58.74 11.0714 58.74 20.3571C58.74 27.5 55.4767 34.3452 48.95 40.8929L38.27 51.6071Z" fill="#FC4545"/>
</svg>
