<svg width="13" height="25" viewBox="0 0 13 25" fill="none" xmlns="http://www.w3.org/2000/svg">
<path d="M7.6846 10.6087V10.7809C10.8203 11.7682 12.3882 13.9152 12.3882 17.2217C12.3882 18.8979 11.9419 20.402 11.0492 21.7338C10.1795 23.0656 9.20669 24.0759 8.13093 24.7648H0.30304V20.7694H6.20829C6.48295 20.5168 6.79195 20.0116 7.13528 19.2539C7.47861 18.4961 7.65027 17.7269 7.65027 16.9462C7.65027 15.4996 7.13528 14.4318 6.10529 13.743H3.32433V9.98868L7.4786 5.16665L7.30694 4.78777H0.440371V0.654602H8.71459C10.6601 1.48124 11.6329 2.79007 11.6329 4.58111C11.6329 5.95884 11.0034 7.27915 9.74457 8.54207L7.6846 10.6087Z" fill="#FC4545" fill-opacity="0.8"/>
</svg>
