<svg width="13" height="25" viewBox="0 0 13 25" fill="none" xmlns="http://www.w3.org/2000/svg">
<path d="M7.68479 10.6086V10.7808C10.8205 11.7682 12.3884 13.9151 12.3884 17.2217C12.3884 18.8979 11.9421 20.4019 11.0494 21.7337C10.1796 23.0655 9.20688 24.0758 8.13111 24.7647H0.303223V20.7693H6.20847C6.48314 20.5167 6.79213 20.0116 7.13546 19.2538C7.47879 18.4961 7.65045 17.7268 7.65045 16.9461C7.65045 15.4995 7.13546 14.4318 6.10547 13.7429H3.32451V9.98862L7.47879 5.16659L7.30712 4.78772H0.440554V0.654549H8.71477C10.6603 1.48118 11.6331 2.79002 11.6331 4.58106C11.6331 5.95878 11.0036 7.2791 9.74476 8.54201L7.68479 10.6086Z" fill="#B8E97D"/>
</svg>
