<svg width="62" height="124" viewBox="0 0 62 124" fill="none" xmlns="http://www.w3.org/2000/svg">
<path d="M36.1369 67.6688H25.9122C23.0679 73.5736 21.6457 78.7698 21.6457 83.2574C21.6457 87.6269 22.179 91.7012 23.2456 95.4802C24.3123 99.2593 25.4974 101.916 26.801 103.452H35.9591C39.159 97.9012 41.969 91.4679 41.969 84.5002C41.969 77.4145 39.2183 71.9202 36.1369 67.6688ZM34.969 47.0002L43.969 47.1203C50.7242 50.545 53.6064 55.6231 57.2803 62.3545C61.0728 68.9679 61.969 76.2898 61.969 83.2574C61.969 99.9088 56.3322 113.135 45.5587 124H17.7348C6.96903 114 2.46901 106.5 0.468994 91.0002C-0.647654 82.3463 0.357797 70.2079 2.13549 63.2402C4.0317 56.2726 5.07278 51.106 6.96899 46.5002C8.8652 41.8945 11 36.0002 14.0016 28.3431L26.801 0.000244141H45.2032L25.9122 49.3615C30.2972 46.6453 30.821 47.0002 34.969 47.0002Z" fill="#FC4545"/>
</svg>
