<svg width="13" height="25" viewBox="0 0 13 25" fill="none" xmlns="http://www.w3.org/2000/svg">
<path d="M7.08327 13.3732H5.11111C4.5625 14.5121 4.28819 15.5144 4.28819 16.38C4.28819 17.2228 4.39105 18.0086 4.59678 18.7375C4.80251 19.4664 5.03111 19.9789 5.28255 20.2751H7.04898C7.66617 19.2045 8.20816 17.9636 8.20816 16.6197C8.20816 15.253 7.6776 14.1932 7.08327 13.3732ZM6.85799 9.38664L8.59392 9.40979C9.89688 10.0704 10.4528 11.0498 11.1614 12.3482C11.8929 13.6238 12.0658 15.036 12.0658 16.38C12.0658 19.5917 10.9786 22.1429 8.90056 24.2385H3.53384C1.45733 22.3097 0.589361 20.8631 0.203596 17.8734C-0.0117839 16.2042 0.182149 13.863 0.525033 12.519C0.890776 11.1751 1.09158 10.1786 1.45732 9.2902C1.82307 8.40185 2.23483 7.26495 2.81378 5.78803L5.28255 0.321228H8.83198L5.11111 9.84208C5.95689 9.31818 6.05793 9.38664 6.85799 9.38664Z" fill="#FC4545" fill-opacity="0.8"/>
</svg>
