<svg width="13" height="25" viewBox="0 0 13 25" fill="none" xmlns="http://www.w3.org/2000/svg">
<path d="M7.08341 13.3732H5.11126C4.56264 14.5121 4.28833 15.5144 4.28833 16.38C4.28833 17.2227 4.3912 18.0086 4.59693 18.7375C4.80266 19.4664 5.03125 19.9789 5.2827 20.275H7.04912C7.66632 19.2045 8.20831 17.9636 8.20831 16.6197C8.20831 15.253 7.67775 14.1932 7.08341 13.3732ZM6.85814 9.38663L8.59407 9.40978C9.89703 10.0703 10.453 11.0498 11.1616 12.3482C11.8931 13.6238 12.0659 15.036 12.0659 16.38C12.0659 19.5917 10.9787 22.1429 8.9007 24.2385H3.53399C1.45748 22.3097 0.589506 20.8631 0.203741 17.8734C-0.0116389 16.2042 0.182294 13.8629 0.525178 12.519C0.890921 11.1751 1.09173 10.1785 1.45747 9.29019C1.82321 8.40183 2.23497 7.26494 2.81393 5.78802L5.2827 0.321213H8.83213L5.11126 9.84207C5.95704 9.31817 6.05808 9.38663 6.85814 9.38663Z" fill="#B8E97D"/>
</svg>
