<svg width="68" height="125" viewBox="0 0 68 125" fill="none" xmlns="http://www.w3.org/2000/svg">
<path d="M45.0879 124.6H22.784C16.376 121.871 10.9767 117.361 6.586 111.072C2.19533 104.783 0 97.6033 0 89.534C0 76.4807 5.04333 66.6313 15.13 59.986V59.274C7.06067 52.3913 3.026 43.788 3.026 33.464C3.026 25.632 5.22133 18.7493 9.612 12.816C14.1213 6.764 19.4613 2.492 25.632 0H42.0619C48.2326 2.492 53.4539 6.64534 57.7259 12.46C62.1166 18.2747 64.3119 25.098 64.3119 32.93C64.3119 43.254 60.2179 51.9167 52.0299 58.918V59.63C62.2352 66.394 67.3379 76.1247 67.3379 88.822C67.3379 96.7727 65.0832 104.071 60.5739 110.716C56.1832 117.243 51.0212 121.871 45.0879 124.6ZM30.972 71.556C26.8187 74.9973 24.742 80.0407 24.742 86.686C24.742 90.3647 25.3947 93.8653 26.7 97.188C28.124 100.511 29.6667 102.765 31.328 103.952H36.0099C37.6712 102.765 39.1546 100.511 40.4599 97.188C41.8839 93.8653 42.5959 90.3647 42.5959 86.686C42.5959 80.0407 40.5192 74.9973 36.3659 71.556H30.972ZM32.04 21.36C30.3787 22.5467 28.8953 24.5047 27.59 27.234C26.2847 29.8447 25.632 32.752 25.632 35.956C25.632 41.8893 27.7087 46.814 31.862 50.73H35.4759C39.6292 46.814 41.7059 41.8893 41.7059 35.956C41.7059 32.752 41.0532 29.8447 39.7479 27.234C38.4426 24.5047 36.9592 22.5467 35.2979 21.36H32.04Z" fill="#FC4545"/>
</svg>
