<svg width="14" height="25" viewBox="0 0 14 25" fill="none" xmlns="http://www.w3.org/2000/svg">
<path d="M9.18977 24.4653H4.88777C3.65179 23.9389 2.61036 23.0691 1.76348 21.856C0.916603 20.6429 0.493164 19.2582 0.493164 17.7017C0.493164 15.184 1.46593 13.2842 3.41146 12.0025V11.8652C1.85503 10.5376 1.07682 8.87819 1.07682 6.88689C1.07682 5.37624 1.50026 4.04871 2.34714 2.90428C3.2169 1.73696 4.24689 0.912973 5.43709 0.432312H8.60611C9.79632 0.912973 10.8034 1.71407 11.6274 2.83561C12.4743 3.95715 12.8977 5.27324 12.8977 6.78389C12.8977 8.77519 12.1081 10.4461 10.5288 11.7965V11.9338C12.4972 13.2385 13.4814 15.1153 13.4814 17.5644C13.4814 19.0979 13.0465 20.5056 12.1767 21.7873C11.3299 23.0462 10.3342 23.9389 9.18977 24.4653ZM6.46708 14.2341C5.66598 14.8979 5.26543 15.8707 5.26543 17.1524C5.26543 17.862 5.39132 18.5372 5.64309 19.178C5.91775 19.8189 6.21531 20.2538 6.53575 20.4827H7.43879C7.75923 20.2538 8.04534 19.8189 8.29712 19.178C8.57178 18.5372 8.70911 17.862 8.70911 17.1524C8.70911 15.8707 8.30856 14.8979 7.50746 14.2341H6.46708ZM6.67308 4.55225C6.35264 4.78114 6.06653 5.1588 5.81476 5.68524C5.56298 6.18879 5.43709 6.74956 5.43709 7.36755C5.43709 8.51198 5.83764 9.46185 6.63874 10.2172H7.3358C8.1369 9.46185 8.53745 8.51198 8.53745 7.36755C8.53745 6.74956 8.41156 6.18879 8.15978 5.68524C7.90801 5.1588 7.6219 4.78114 7.30146 4.55225H6.67308Z" fill="#B8E97D"/>
</svg>
