<svg width="14" height="25" viewBox="0 0 14 25" fill="none" xmlns="http://www.w3.org/2000/svg">
<path d="M9.18954 24.4654H4.88754C3.65156 23.9389 2.61013 23.0692 1.76325 21.8561C0.916374 20.643 0.492935 19.2582 0.492935 17.7018C0.492935 15.1841 1.4657 13.2843 3.41123 12.0025V11.8652C1.8548 10.5377 1.07659 8.87825 1.07659 6.88695C1.07659 5.3763 1.50003 4.04877 2.34691 2.90434C3.21667 1.73702 4.24666 0.913034 5.43687 0.432373H8.60588C9.79609 0.913034 10.8032 1.71413 11.6272 2.83567C12.4741 3.95721 12.8975 5.27331 12.8975 6.78395C12.8975 8.77526 12.1078 10.4461 10.5285 11.7965V11.9339C12.4969 13.2385 13.4811 15.1154 13.4811 17.5645C13.4811 19.098 13.0463 20.5056 12.1765 21.7874C11.3296 23.0463 10.334 23.9389 9.18954 24.4654ZM6.46685 14.2342C5.66575 14.8979 5.2652 15.8707 5.2652 17.1525C5.2652 17.862 5.39109 18.5372 5.64286 19.1781C5.91753 19.819 6.21508 20.2539 6.53552 20.4828H7.43857C7.75901 20.2539 8.04511 19.819 8.29689 19.1781C8.57155 18.5372 8.70888 17.862 8.70888 17.1525C8.70888 15.8707 8.30833 14.8979 7.50723 14.2342H6.46685ZM6.67285 4.55232C6.35241 4.7812 6.0663 5.15886 5.81453 5.6853C5.56275 6.18885 5.43687 6.74962 5.43687 7.36761C5.43687 8.51204 5.83742 9.46191 6.63852 10.2172H7.33557C8.13667 9.46191 8.53722 8.51204 8.53722 7.36761C8.53722 6.74962 8.41133 6.18885 8.15956 5.6853C7.90778 5.15886 7.62167 4.7812 7.30123 4.55232H6.67285Z" fill="#FC4545" fill-opacity="0.8"/>
</svg>
