<svg width="768" height="5511" viewBox="0 0 768 5511" fill="none" xmlns="http://www.w3.org/2000/svg">
<g clip-path="url(#clip0_1177_63)">
<path d="M434.625 4218.72L415.508 4193.91L445.006 4188.97L434.625 4218.72Z" fill="#C7FE84"/>
<path d="M472.24 4211.64L451.537 4188.18L480.645 4181.23L472.24 4211.64Z" fill="#C7FE84"/>
<path d="M510.361 4201.86L488.342 4179.7L516.999 4171.01L510.361 4201.86Z" fill="#C7FE84"/>
<path d="M550.796 4186.29L525.543 4168.09L552.434 4154.75L550.796 4186.29Z" fill="#C7FE84"/>
<path d="M587.837 4165.02L560.547 4150.2L585.585 4133.52L587.837 4165.02Z" fill="#C7FE84"/>
<path d="M622.133 4135.79L591.994 4128.83L602.41 4117.9L611.857 4106L622.133 4135.79Z" fill="#C7FE84"/>
<path fill-rule="evenodd" clip-rule="evenodd" d="M9.82359 3784.82L5.69466 3766.5L4.55273 3766.87L8.68459 3785.2L8.68743 3785.22L8.69074 3785.23C18.4036 3822.69 33.0644 3857.69 57.5055 3886.88C81.9486 3916.06 116.139 3939.39 164.854 3953.57C206.784 3965.78 260.617 3957.81 317.45 3946.83C326.426 3945.11 335.478 3943.29 344.572 3941.48C393.107 3931.78 442.827 3921.85 488.548 3921.85C542.867 3921.85 574.793 3928.81 595.463 3939.25C616.097 3949.68 625.556 3963.57 634.921 3977.66C639.054 3983.87 641.467 3997.07 642.762 4009.18C644.057 4021.28 638.355 4050.69 638.355 4050.69C632.898 4079.94 610.46 4114.48 582.188 4133.93C522.567 4174.96 464.489 4189.21 361.85 4200.5C321.063 4204.98 292.108 4202.38 264.255 4197.59C254.677 4195.94 245.216 4194.03 235.442 4192.05C216.812 4188.29 197.046 4184.29 173.17 4181.45C142.017 4177.75 113.645 4176.4 89.6243 4183.2C65.5686 4190.02 45.8739 4205.03 32.1149 4234C4.60777 4291.91 19.4685 4379.27 68.8764 4465.39L68.8871 4465.4L68.8989 4465.42C113.026 4532.55 153.036 4558.7 214.389 4598.56C278.682 4640.32 331.321 4645.63 372.742 4649.8C386.521 4651.19 399.059 4652.46 410.37 4654.9C438.919 4661.05 466.079 4666.75 491.949 4672.17C517.708 4677.57 542.189 4682.7 565.488 4687.75C612.104 4697.86 656.913 4718.13 692.422 4748.74C709.875 4763.78 723.089 4790.16 730.668 4816.96C734.452 4830.35 736.829 4843.83 737.621 4856.01C738.413 4868.21 737.621 4879.05 735.12 4887.23C724.969 4920.37 705.375 4956.1 667.632 4956.1C654.867 4956.1 646.011 4954.36 637.166 4952.62C632.815 4951.77 628.475 4950.92 623.674 4950.27C609.136 4948.32 590.642 4948.33 555.634 4956.11C543.636 4958.78 531.337 4961.71 518.819 4964.7C458.308 4979.14 392.719 4994.79 331.707 4987.19C279.55 4980.69 256.425 4972.16 237.632 4965.22C229.861 4962.35 222.831 4959.76 214.795 4957.7C204.406 4955.02 177.807 4951.67 169.699 4951.67H169.691C166.989 4951.67 164.246 4951.67 160.7 4952.39C157.449 4953.05 156.332 4953.56 153.499 4954.86C153.234 4954.98 152.955 4955.11 152.659 4955.25C152.024 4955.48 151.399 4955.88 150.819 4956.28C150.686 4956.36 150.556 4956.46 150.427 4956.55C149.97 4956.86 149.539 4957.15 149.106 4957.39C145.913 4959.17 142.757 4961.24 140.397 4963.9C138.065 4966.51 136.483 4969.74 136.426 4973.81C135.875 4974.74 135.358 4975.74 134.901 4976.84C133.228 4980.87 132.384 4986.11 133.516 4993.49C134.053 4996.98 133.745 5000.79 133.167 5005.04C132.986 5006.38 132.779 5007.75 132.564 5009.18C132.098 5012.27 131.6 5015.57 131.278 5019.06C130.33 5029.32 130.873 5041.39 137.943 5055.86C140.656 5061.41 141.328 5067.98 140.574 5075.18C139.818 5082.38 137.638 5090.17 134.688 5098.1C130.041 5110.59 123.527 5123.31 117.778 5134.55C116.222 5137.59 114.722 5140.52 113.33 5143.31C111.349 5147.27 108.916 5151.53 106.283 5156.14C91.7017 5181.68 70.9917 5217.94 86.8973 5274.73C96.2694 5308.18 111.422 5332.56 132.828 5349.81C154.221 5367.04 197.865 5379.06 232.083 5384C266.338 5388.95 304.884 5383.65 340.545 5376.91C350.489 5375.02 360.203 5373.04 369.539 5371.12C393.728 5366.16 415.369 5361.72 431.846 5361.09L431.807 5359.68C415.243 5360.32 393.473 5364.78 369.244 5369.75C359.927 5371.66 350.247 5373.64 340.36 5375.51C304.71 5382.25 266.304 5387.53 232.225 5382.61C198.109 5377.68 154.67 5365.7 133.49 5348.64C112.322 5331.58 97.3176 5307.48 88.0189 5274.28C71.2605 5214.44 92.6476 5182.56 107.218 5157.03C109.869 5152.38 112.329 5148.07 114.346 5144.03C115.724 5141.27 117.215 5138.36 118.764 5135.33C124.518 5124.09 131.087 5111.25 135.769 5098.67C138.742 5090.68 140.972 5082.75 141.747 5075.36C142.523 5067.96 141.847 5061.05 138.965 5055.15C132.049 5041 131.526 5029.24 132.453 5019.21C132.771 5015.77 133.256 5012.55 133.719 5009.49C133.936 5008.05 134.147 5006.65 134.334 5005.27C134.916 5000.99 135.255 4996.98 134.679 4993.24C133.587 4986.12 134.414 4981.18 135.96 4977.47C136.14 4977.04 136.33 4976.61 136.528 4976.21C137.203 4983.31 141.104 4988.61 144.907 4991.89C149.136 4995.54 154.62 4997.59 166.127 4999.36C174.101 5000.59 204.581 5000.95 211.905 4999.54C215.582 4998.83 220.069 4997.67 224.324 4995.89C228.569 4994.1 232.637 4991.68 235.43 4988.39C238.201 4985.13 239.969 4981.2 240.141 4977.42C240.314 4973.57 238.838 4969.98 235.315 4967.5C232.006 4965.17 228.354 4963.92 223.934 4962.85C221.961 4962.37 219.824 4961.92 217.491 4961.43L216.643 4961.26C213.974 4960.7 211.046 4960.08 207.797 4959.29C201.596 4957.77 180.791 4954.48 177.262 4953.47L177.072 4953.42C183.654 4953.98 207.16 4957.17 214.547 4959.07C222.468 4961.11 229.447 4963.68 237.183 4966.54C256.002 4973.48 279.308 4982.08 331.584 4988.59C392.793 4996.21 458.6 4980.51 519.111 4966.07C531.613 4963.08 543.888 4960.15 555.851 4957.49C590.778 4949.73 609.154 4949.74 623.538 4951.67C628.238 4952.3 632.531 4953.15 636.859 4953.99C645.756 4955.74 654.773 4957.51 667.632 4957.51C706.174 4957.51 726.039 4920.98 736.232 4887.71C738.815 4879.28 739.602 4868.21 738.798 4855.91C737.994 4843.59 735.599 4830 731.786 4816.51C724.165 4789.55 710.838 4762.87 693.114 4747.6C657.427 4716.84 612.447 4696.5 565.7 4686.36C542.414 4681.31 517.914 4676.18 492.138 4670.77C466.261 4665.35 439.097 4659.66 410.58 4653.51C399.141 4651.04 386.519 4649.77 372.681 4648.37C331.284 4644.2 279.004 4638.92 214.954 4597.31C153.617 4557.47 113.802 4531.44 69.8413 4464.57C20.5234 4378.6 5.98054 4291.88 33.1437 4234.69C46.7209 4206.11 66.1202 4191.32 89.8975 4184.58C113.71 4177.83 141.91 4179.15 173.053 4182.86C196.894 4185.69 216.582 4189.67 235.184 4193.43C244.969 4195.4 254.454 4197.32 264.087 4198.98C292.013 4203.79 321.063 4206.39 361.959 4201.9C464.639 4190.61 522.929 4176.33 582.779 4135.16C611.394 4115.46 633.992 4080.55 639.508 4051C639.508 4051 645.251 4021.27 643.939 4009C642.626 3996.75 640.165 3983.27 635.85 3976.78C626.455 3962.65 616.842 3948.52 595.924 3937.95C575.039 3927.41 542.927 3920.44 488.548 3920.44C442.719 3920.44 392.884 3930.4 344.352 3940.09C335.264 3941.91 326.222 3943.72 317.261 3945.45C260.388 3956.43 206.794 3964.33 165.134 3952.2C116.592 3938.07 82.6067 3914.85 58.342 3885.87C34.0781 3856.9 19.4985 3822.13 9.82359 3784.82ZM137.608 4974.26C137.687 4981.71 141.616 4987.31 145.599 4990.75C149.575 4994.18 154.805 4996.2 166.278 4997.96C174.077 4999.16 204.418 4999.56 211.716 4998.15C215.35 4997.44 219.764 4996.31 223.932 4994.56C228.11 4992.8 231.988 4990.46 234.6 4987.39C237.232 4984.29 238.809 4980.68 238.96 4977.34C239.108 4974.06 237.882 4970.94 234.714 4968.71C231.576 4966.51 228.076 4965.29 223.698 4964.23C221.743 4963.76 219.624 4963.31 217.289 4962.82L216.439 4962.65C216.124 4962.58 215.805 4962.51 215.482 4962.45C216.843 4962.79 218.171 4963.16 219.453 4963.56C224.029 4964.96 228.047 4966.69 230.781 4968.69C233.466 4970.64 235.154 4972.39 236.059 4974.26C236.984 4976.18 237.046 4978.14 236.669 4980.36C236.278 4982.66 235.151 4984.63 233.668 4986.33C232.186 4988.02 230.32 4989.46 228.391 4990.71C224.458 4993.26 217.271 4995.66 204.513 4996.02C198.128 4996.19 174.874 4993.82 168.518 4992.91C162.188 4992 156.618 4990.6 153.561 4988.77C147.626 4985.23 144.234 4981.69 143.207 4977.4C142.247 4973.4 143.061 4969.83 143.96 4966.46C142.999 4967.43 142.259 4968.27 141.826 4968.78C141.68 4968.95 141.532 4969.12 141.384 4969.3C140.129 4970.78 138.79 4972.36 137.608 4974.26ZM145.922 4964.61C145.609 4965.24 145.37 4965.84 145.225 4966.38C144.268 4969.92 143.444 4973.27 144.344 4977.02C145.223 4980.69 148.201 4984 154.09 4987.52C156.946 4989.22 162.332 4990.6 168.659 4991.51C174.96 4992.41 198.157 4994.78 204.486 4994.61C217.157 4994.25 224.129 4991.87 227.826 4989.47C229.71 4988.25 231.475 4986.88 232.851 4985.3C234.225 4983.74 235.182 4982.01 235.51 4980.08C235.853 4978.07 235.767 4976.49 235.034 4974.97C234.28 4973.41 232.801 4971.81 230.165 4969.88C227.579 4968 223.695 4966.32 219.158 4964.92C214.631 4963.53 209.495 4962.44 204.431 4961.74C191.053 4959.88 168.239 4957.45 163.902 4957.66C160.63 4957.82 158.758 4958.38 156.412 4959.08C155.662 4959.3 154.863 4959.54 153.955 4959.78C151.312 4960.49 148.671 4962.27 146.476 4964.13C146.288 4964.28 146.102 4964.45 145.922 4964.61ZM148.084 4961.2C148.217 4961.03 148.353 4960.85 148.492 4960.68C150.05 4958.75 151.787 4957.15 153.064 4956.58C153.369 4956.43 153.655 4956.3 153.925 4956.18C156.736 4954.89 157.764 4954.42 160.897 4953.78C164.341 4953.09 166.999 4953.08 169.699 4953.08C170.187 4953.08 170.968 4953.22 172.112 4953.51C173.244 4953.79 174.685 4954.19 176.476 4954.7L176.993 4954.85C180.523 4955.85 201.343 4959.16 207.56 4960.67C208.282 4960.85 208.989 4961.02 209.68 4961.17C207.984 4960.86 206.271 4960.57 204.568 4960.34C191.191 4958.48 168.293 4956.03 163.853 4956.25C160.452 4956.42 158.448 4957.02 156.073 4957.72C155.334 4957.94 154.56 4958.18 153.696 4958.41C151.742 4958.93 149.821 4959.98 148.084 4961.2ZM145.029 4963.64C143.143 4965.33 141.691 4966.95 140.993 4967.78C140.844 4967.95 140.692 4968.13 140.538 4968.31C139.665 4969.34 138.717 4970.46 137.8 4971.73C138.253 4969.08 139.482 4966.86 141.207 4964.92C142.919 4962.99 145.104 4961.37 147.466 4959.92C146.535 4961.1 145.673 4962.39 145.029 4963.64Z" fill="#FC4545"/>
<path d="M108.231 18.2694C93.8543 1.82022 56.8878 37.2046 51.4924 43.5437C40.8738 56.0196 30.7739 68.8439 26.5662 85.1066C24.6736 92.4222 23.1876 100.71 30.9347 104.759C40.2171 109.609 52.0512 108.216 61.7714 105.862C83.1319 100.69 110.111 87.2036 107.872 60.9886C106.805 48.4917 100.991 36.345 87.263 36.345C68.4092 36.345 47.69 48.7178 33.4017 60.0954C19.5737 71.1067 9.42341 94.998 25.487 108.752C32.7603 114.98 42.6477 116.275 51.8008 116.319C68.4885 116.398 86.1204 113.638 99.5976 102.762C110.102 94.2846 118.672 81.7493 114.913 67.5569C111.271 53.8071 101.479 40.2664 90.7575 31.4057C83.9332 25.7656 75.7769 21.5133 67.3731 19.0051C59.6792 16.7087 47.1893 13.5184 39.3634 17.166C26.378 23.2183 37.0039 54.7234 40.8538 61.7243C52.972 83.7608 74.7614 96.8122 98.0041 103.498C103.626 105.115 129.463 112.676 134.494 103.76C136.782 99.7061 132.108 91.6481 130.382 88.2072C126.771 81.0024 121.251 75.6496 115.273 70.4471C102.143 59.0201 87.1529 55.4122 69.8913 55.9969C59.0644 56.3636 48.9685 57.093 40.6482 65.1394C33.5812 71.9748 32.3413 81.4003 30.8319 90.5189C29.3651 99.3807 26.0643 115.773 31.4487 124.306C35.9414 131.425 46.6283 126.714 52.0578 124.043C73.879 113.31 90.3816 93.8502 104.223 74.0724C113.676 60.5645 124.707 44.1873 127.35 27.2547C127.94 23.4729 128.715 13.8166 124.01 11.5962C119.249 9.34972 111.205 15.9675 108.231 18.2694ZM108.231 18.2694C95.7068 27.9654 84.4143 39.8016 73.7973 51.5831C65.6162 60.6614 57.9482 70.2213 52.7259 81.4288C51.0029 85.1264 42.1132 103.714 49.2311 106.756C54.0471 108.814 60.8726 107.619 65.6773 106.65C78.7176 104.021 91.5115 98.8355 102.475 91.0974C109.926 85.8386 118.33 78.916 121.337 69.764C124.25 60.8984 120.069 50.5472 115.838 42.9131C108.133 29.0111 94.6204 19.8228 78.9367 19.1101C63.0175 18.3867 18.0142 24.0693 33.0933 51.5306C34.4478 53.9973 37.5812 58.889 40.3912 59.7802C47.2592 61.9584 60.2029 59.7954 65.4716 59.0445C78.1069 57.2438 103.06 52.4401 115.632 49.7966C122.849 48.2791 140.84 47.3377 136.19 41.4944C134.156 38.9382 130.612 37.5751 127.556 36.9755C122.798 36.042 118.301 36.7548 113.577 37.6061C100.926 39.8854 88.3342 42.4655 75.648 44.542C65.0667 46.2739 54.4384 47.8725 43.7833 49.0609C42.2669 49.23 41.0294 48.9943 39.8773 50.1118C32.5977 57.1728 19.0112 66.6783 19.0112 77.9606C19.0112 80.7525 19.4996 81.2407 22.3005 81.8489C36.0346 84.8331 50.4586 83.0196 64.341 82.3748" stroke="#FC4545" stroke-width="2" stroke-linecap="round"/>
<path fill-rule="evenodd" clip-rule="evenodd" d="M330.384 8.08118C417.058 -1.2863 518.786 -4.01644 593.926 8.08471C645.985 16.4682 680.929 31.2599 702.618 49.8799C724.336 68.5255 732.757 91.0198 731.716 114.675C730.668 138.276 720.206 162.919 704.358 185.952C688.504 208.995 667.218 230.491 644.434 247.806C619.941 266.416 517.65 340.759 494.08 355.237C491.176 357.021 486.772 359.752 481.408 363.079C460.349 376.14 424.49 398.38 406.478 408.505C391.273 417.053 373.262 425.658 353.978 434.721C351.564 435.856 349.131 436.997 346.68 438.146C329.544 446.184 311.572 454.614 293.768 463.713C262.356 479.765 245.144 486.388 223.128 494.86C214.244 498.279 204.577 501.999 192.879 506.762C160.17 520.076 133.6 532.569 107.413 551.141C72.1707 576.132 48.7131 602.513 30.0002 641.529C19.3961 663.638 7.91935 707.241 3.29205 756.901C-1.33464 806.555 0.897724 862.148 17.6225 908.246C34.913 955.903 64.9806 996.252 93.6155 1026.57C122.247 1056.88 149.41 1077.13 160.841 1084.61C219.009 1122.67 281.695 1148.86 321.681 1161.44C345.179 1168.83 403.671 1180.73 453.974 1182.97C473.464 1183.85 491.683 1183.26 506.147 1180.43C510.443 1166.65 516.239 1155.43 521.733 1148.63C525.05 1144.51 528.338 1141.9 531.187 1141.43C532.635 1141.19 533.982 1141.51 535.131 1142.47C536.271 1143.42 537.159 1144.97 537.78 1147.07C540.144 1155.07 539.232 1161.65 535.642 1166.92C532.088 1172.13 525.974 1175.97 518.092 1178.72C514.723 1179.9 511.015 1180.88 507.021 1181.69C506.205 1184.35 505.446 1187.12 504.757 1189.97C496.17 1225.5 498.539 1273.76 537.579 1308.99C576.845 1344.41 602.578 1363.13 622.006 1377.17L623.184 1378.02C641.973 1391.6 654.903 1400.94 668.709 1417.33C749.398 1513.15 744.693 1658.58 680.456 1726.97C666.762 1741.55 647.665 1752.86 627.001 1761.23C611.431 1767.54 594.95 1772.19 579.18 1775.29C592.098 1783.89 604.933 1795.23 616.408 1809.25C636.724 1834.07 652.802 1867.3 657.584 1908.57C662.365 1949.85 655.838 1999.12 631.037 2056.02C612.999 2097.38 582.101 2129.29 545.496 2153.8C508.89 2178.3 466.544 2195.4 425.561 2207.13C384.575 2218.85 344.933 2225.19 313.724 2228.16C298.12 2229.64 284.619 2230.28 274.108 2230.32C263.638 2230.36 256.09 2229.81 252.392 2228.9C241.189 2227.17 231.072 2225.07 221.532 2223.03C220.3 2222.77 219.079 2222.51 217.866 2222.24C209.67 2220.48 201.868 2218.81 194.102 2217.49C176.285 2214.46 158.688 2213.32 137.16 2217.39C126.234 2219.46 114.026 2223.98 102.965 2230.22C91.8976 2236.47 82.0256 2244.43 75.7314 2253.35C52.9497 2285.64 35.8533 2320.58 40.5596 2375.69L40.5613 2375.71L40.562 2375.73C41.3494 2395.99 50.2183 2426.87 64.6238 2453.65C76.3339 2475.41 91.6266 2494.33 109.09 2502.67C117.329 2492.17 126.471 2482.57 136.413 2474.29C145.258 2466.93 158.758 2457.01 170.873 2450.59C176.937 2447.38 186.85 2443.12 196.615 2441.79C206.346 2440.47 216.151 2442.03 221.71 2450.81L221.737 2450.85L221.757 2450.9C225.862 2459.9 223.505 2470.45 216.84 2479.74C210.168 2489.03 199.102 2497.22 185.455 2501.65C156.056 2511.2 136.792 2510.62 121.357 2508.06C117.274 2507.38 113.285 2506.11 109.407 2504.33C106.587 2507.96 103.874 2511.69 101.273 2515.52C90.275 2531.69 83.3819 2544.66 77.4198 2567.48C71.4452 2590.34 69.3562 2604.23 68.6195 2626.89C68.6218 2670.28 80.0526 2704.37 99.0327 2731.76C118.025 2759.17 144.6 2779.91 174.919 2796.51C205.238 2813.1 239.269 2825.55 273.144 2836.4C287.095 2840.87 301.029 2845.07 314.665 2849.19C334.112 2855.05 352.951 2860.74 370.368 2866.76C384.776 2871.73 400.128 2876.8 416.072 2882.06C453.203 2894.31 493.549 2907.62 532.683 2923.32C588.622 2945.78 642.174 2973.15 680.432 3009.38L680.45 3009.39L680.468 3009.41C722.466 3055.97 742.368 3134.59 745.155 3215.66C747.942 3296.74 733.615 3380.47 706.985 3437.39C657.181 3543.85 552.549 3590.14 421.646 3564.72C406.187 3561.71 390.28 3558.32 374.093 3554.87C325.108 3544.42 273.57 3533.43 224.198 3531.06C158.525 3527.92 96.8342 3540.04 50.2376 3588.89C33.9822 3605.93 19.8572 3635.64 11.2764 3668.45C2.69693 3701.25 -0.308554 3737.02 5.5763 3766.13C5.65284 3766.51 5.45735 3766.89 5.13962 3766.98C4.82188 3767.07 4.50224 3766.84 4.42568 3766.46C-1.52502 3737.02 1.52693 3700.98 10.1465 3668.03C18.7648 3635.08 32.9804 3605.1 49.456 3587.83C96.3892 3538.63 158.452 3526.5 224.246 3529.65C273.707 3532.03 325.363 3543.04 374.368 3553.5C390.537 3556.95 406.418 3560.33 421.836 3563.33C552.435 3588.69 656.471 3542.48 705.95 3436.71C732.449 3380.06 746.753 3296.6 743.971 3215.71C741.19 3134.82 721.336 3056.66 679.675 3010.46C641.588 2974.39 588.205 2947.1 532.306 2924.66C493.204 2908.97 452.912 2895.68 415.794 2883.43C399.841 2878.16 384.474 2873.09 370.039 2868.11C352.631 2862.1 333.835 2856.43 314.412 2850.57C300.775 2846.46 286.829 2842.24 272.837 2837.77C238.943 2826.9 204.836 2814.43 174.426 2797.78C144.016 2781.14 117.268 2760.3 98.1202 2732.66C78.9625 2705.02 67.4359 2670.6 67.4359 2626.88V2626.86L67.4365 2626.85C68.1774 2604.06 70.2859 2590.04 76.2895 2567.06C82.3067 2544.04 89.2849 2530.91 100.354 2514.63C102.875 2510.92 105.501 2507.3 108.228 2503.78C90.6028 2495.17 75.29 2476.08 63.6278 2454.41C49.1501 2427.5 40.185 2396.39 39.3805 2375.81C34.6351 2320.19 51.9347 2284.88 74.8254 2252.44C81.2705 2243.31 91.3088 2235.24 102.458 2228.95C113.615 2222.65 125.931 2218.09 136.974 2216C158.651 2211.9 176.372 2213.05 194.269 2216.09C202.054 2217.41 209.877 2219.09 218.066 2220.85C219.282 2221.12 220.507 2221.38 221.741 2221.64C231.284 2223.68 241.384 2225.78 252.566 2227.51L252.588 2227.51L252.61 2227.52C256.166 2228.4 263.61 2228.95 274.104 2228.91C284.58 2228.87 298.051 2228.23 313.63 2226.75C344.79 2223.8 384.369 2217.46 425.284 2205.76C466.202 2194.05 508.436 2176.99 544.917 2152.56C581.399 2128.15 612.094 2096.41 629.983 2055.37C654.696 1998.69 661.152 1949.71 656.412 1908.77C651.672 1867.83 635.723 1834.86 615.562 1810.23C603.773 1795.83 590.552 1784.29 577.287 1775.66C572.764 1776.52 568.306 1777.25 563.949 1777.86C543.859 1780.66 525.914 1780.84 513.921 1778.64C507.946 1777.55 503.353 1775.86 500.726 1773.52C499.402 1772.34 498.522 1770.95 498.277 1769.33C498.03 1767.71 498.446 1766 499.454 1764.26L499.49 1764.2L499.536 1764.15C504.216 1758.91 511.366 1756.06 520.008 1755.46C528.661 1754.86 538.874 1756.52 549.762 1760.35C558.701 1763.5 568.108 1768.12 577.498 1774.19C593.666 1771.1 610.632 1766.38 626.622 1759.9C647.21 1751.56 666.141 1740.32 679.669 1725.91C743.32 1658.15 748.155 1513.67 667.875 1418.33C654.169 1402.06 641.345 1392.79 622.515 1379.19L621.391 1378.38C601.945 1364.33 576.176 1345.58 536.865 1310.11C497.326 1274.44 494.94 1225.49 503.62 1189.58C504.252 1186.96 504.943 1184.42 505.683 1181.95C491.195 1184.7 473.137 1185.24 453.929 1184.38C403.543 1182.13 344.964 1170.22 321.379 1162.8C281.318 1150.2 218.539 1123.97 160.271 1085.85C148.772 1078.33 121.534 1058.02 92.8291 1027.62C64.1273 997.232 33.9219 956.728 16.5362 908.803C-0.301539 862.394 -2.52304 806.533 2.11573 756.746C6.7539 706.973 18.2619 663.16 28.9727 640.829C47.805 601.564 71.4245 575.02 106.807 549.928C133.101 531.282 159.763 518.751 192.496 505.426C204.227 500.651 213.908 496.925 222.798 493.504C244.793 485.041 261.942 478.441 293.301 462.416C311.122 453.309 329.11 444.872 346.245 436.834C348.697 435.684 351.131 434.543 353.544 433.409C372.832 424.344 390.807 415.755 405.973 407.23C423.961 397.118 459.779 374.903 480.842 361.839C486.214 358.508 490.626 355.771 493.538 353.982C517.052 339.538 619.296 265.229 643.795 246.616C666.502 229.366 687.682 207.964 703.446 185.057C719.211 162.139 729.508 137.778 730.532 114.601C731.556 91.4804 723.354 69.4237 701.926 51.0246C680.468 32.5998 645.742 17.8527 593.772 9.48282C518.754 -2.59792 417.126 0.122871 330.491 9.48628C254.281 17.7229 226.156 28.2457 198.529 38.5824C194.765 39.9907 191.01 41.3955 187.144 42.7907C176.382 46.6747 163.2 53.3486 148.757 60.6612C141.605 64.283 134.142 68.0615 126.511 71.7354C103.52 82.8032 79.0401 92.8947 57.1466 94.6667C56.8205 94.6928 56.5383 94.3993 56.5161 94.0107C56.494 93.622 56.7403 93.2855 57.0664 93.2587C78.7566 91.5037 103.084 81.4912 126.067 70.4269C133.639 66.7819 141.071 63.0195 148.21 59.405C162.694 52.0717 175.977 45.3464 186.801 41.4404C190.665 40.046 194.419 38.6415 198.183 37.2333C225.848 26.8833 254.054 16.3309 330.384 8.08118ZM575.563 1774.55C566.702 1768.96 557.851 1764.67 549.426 1761.71C538.633 1757.9 528.561 1756.29 520.077 1756.87C511.614 1757.45 504.796 1760.23 500.393 1765.12C499.528 1766.64 499.27 1767.96 499.441 1769.09C499.615 1770.23 500.255 1771.34 501.434 1772.39C503.813 1774.5 508.156 1776.16 514.101 1777.25C525.948 1779.41 543.775 1779.26 563.812 1776.46C567.658 1775.92 571.584 1775.29 575.563 1774.55ZM110.279 2503.22C113.938 2504.86 117.688 2506.03 121.52 2506.66C136.805 2509.2 155.907 2509.78 185.144 2500.29C198.608 2495.91 209.452 2487.86 215.941 2478.82C222.425 2469.78 224.487 2459.89 220.738 2451.62C215.574 2443.51 206.366 2441.89 196.749 2443.19C187.149 2444.5 177.359 2448.7 171.354 2451.88C159.331 2458.25 145.898 2468.11 137.09 2475.45C127.352 2483.55 118.381 2492.94 110.279 2503.22ZM507.498 1180.16C511.191 1179.38 514.626 1178.46 517.759 1177.36C525.555 1174.64 531.394 1170.91 534.723 1166.03C538.015 1161.2 538.912 1155.15 536.663 1147.54C536.096 1145.62 535.33 1144.36 534.451 1143.62C533.582 1142.9 532.547 1142.63 531.349 1142.83C528.908 1143.23 525.853 1145.55 522.586 1149.6C517.326 1156.12 511.722 1166.87 507.498 1180.16Z" fill="#FC4545"/>
</g>
<defs>
<clipPath id="clip0_1177_63">
<rect width="768" height="5511" fill="white"/>
</clipPath>
</defs>
</svg>
