<svg width="319" height="4343" viewBox="0 0 319 4343" fill="none" xmlns="http://www.w3.org/2000/svg">
<path d="M57.4998 42.5C75.4998 41 87.9997 34.4516 109 27C130 19.5484 149.5 16.0001 159 14C168.5 12 198.5 6.49995 226.5 9.49996C254.5 12.5 273.5 22 288 34.5C302.5 47 319 78.6515 317 115C315 151.349 301 193.66 262 219C223 244.34 179 242.5 139.5 252C100 261.5 70.5 270 40.5 288.5C10.5 307 -15.5 340.5 -15.5 390C-15.5 439.5 -6.92278 470 7.5 507.5C21.9228 545 50 584 105.5 611C161 638 211 638.5 257 674.787C303 711.074 307.5 737 307.5 767.5C307.5 798 294.5 829.124 273.5 852.5C252.5 875.876 235 893.02 201.5 915.76C168 938.5 103 959 71 983C39 1007 22.4999 1029.04 12 1055C1.50013 1080.96 3.99973 1126.98 16.4999 1159.24C29 1191.5 44 1207 63 1225C82 1243 222 1331.8 257 1369.15C292 1406.5 299.5 1429.82 304 1446C308.5 1462.18 313 1496.5 313 1523.95C313 1551.41 307.5 1585.5 294 1622C280.5 1658.5 232 1728.5 202 1763.5C172 1798.5 83 1847.5 75.5 1944.5C68 2041.5 228.5 2063.5 255 2152.5C281.5 2241.5 222.5 2314.11 155 2340.5C87.5 2366.89 49.1912 2394 22 2437C-5.19121 2480 2.5 2562 64.5 2625C126.5 2688 185.5 2712.5 239.5 2768C293.5 2823.5 308 2904 310.5 2924.5C313 2945 331.314 3064 271 3134C210.686 3204 -16.5 3157.5 -16.5 3157.5C-16.5 3157.5 -1.5 3361.5 99.5 3428.5C200.5 3495.5 340 3512 315.5 3672C291 3832 22.5 3645.5 3 3826C-16.5 4006.5 188 4009.98 261 4089.49C334 4169 316.5 4248.21 294 4274.85C271.5 4301.5 229 4319.48 193.5 4329C158 4338.52 104 4343 83.5 4342.5C63.0002 4342 33.0001 4340.52 21.5 4331C9.99987 4321.48 40.5 4316 54 4316C67.5 4316 91 4320.5 91 4327.5C91 4334.5 75.4998 4338 67.5 4338C59.5002 4338 44.5 4336.5 44.5 4336.5C44.5 4336.5 24 4334.5 27.5 4324" stroke="#FC4545" stroke-width="0.8"/>
<path d="M83.9629 5.15259C75.4328 -4.42531 53.5004 16.1781 50.2993 19.8692C43.9993 27.1336 38.007 34.6007 35.5105 44.0704C34.3876 48.3299 33.506 53.156 38.1024 55.5132C43.6096 58.3376 50.6308 57.5262 56.3978 56.1557C69.0711 53.144 85.0775 45.2912 83.7494 30.027C83.1163 22.7503 79.667 15.6776 71.522 15.6776C60.3362 15.6776 48.0433 22.8819 39.566 29.5068C31.3619 35.9183 25.3397 49.8296 34.8702 57.8385C39.1855 61.4648 45.0518 62.219 50.4823 62.2443C60.3832 62.2904 70.8441 60.6835 78.8402 54.3506C85.0728 49.4143 90.157 42.1153 87.9269 33.8514C85.7663 25.8453 79.9564 17.9609 73.5955 12.8016C69.5465 9.51744 64.7075 7.04148 59.7215 5.58098C55.1566 4.24385 47.7463 2.38622 43.1031 4.51013C35.3989 8.03427 41.7032 26.3788 43.9874 30.4553C51.1771 43.2865 64.1049 50.886 77.8949 54.7789C81.2308 55.7206 96.5597 60.123 99.5445 54.9319C100.902 52.5713 98.1285 47.8792 97.1051 45.8756C94.9624 41.6805 91.687 38.5635 88.1403 35.5342C80.3505 28.8807 71.4566 26.7799 61.2156 27.1204C54.7918 27.3339 48.8019 27.7586 43.8654 32.444C39.6725 36.4237 38.9369 41.9122 38.0414 47.2218C37.1711 52.3818 35.2127 61.9264 38.4073 66.8948C41.0729 71.0404 47.4134 68.2968 50.6347 66.7418C63.5814 60.4923 73.3724 49.1613 81.5845 37.6453C87.1932 29.78 93.738 20.2439 95.306 10.3845C95.6562 8.1825 96.1158 2.55984 93.324 1.26699C90.4995 -0.0410868 85.727 3.8123 83.9629 5.15259ZM83.9629 5.15259C76.532 10.7984 69.8322 17.6903 63.533 24.5503C58.6792 29.8364 54.1296 35.4027 51.0311 41.9287C50.0089 44.0818 44.7346 54.905 48.9577 56.6758C51.815 57.874 55.8646 57.1788 58.7152 56.6146C66.4522 55.0835 74.0428 52.0642 80.5477 47.5583C84.9683 44.4963 89.9546 40.4654 91.7384 35.1364C93.4664 29.9744 90.9862 23.9472 88.4758 19.502C83.9042 11.4072 75.8874 6.05714 66.5822 5.64217C57.137 5.22096 30.4366 8.52978 39.3831 24.5197C40.1867 25.9561 42.0458 28.8044 43.713 29.3233C47.7877 30.5915 55.4673 29.3321 58.5933 28.8949C66.0897 27.8464 80.8944 25.0493 88.3538 23.5101C92.6355 22.6265 103.309 22.0783 100.551 18.6759C99.3439 17.1875 97.2409 16.3938 95.428 16.0447C92.6051 15.5011 89.9371 15.9162 87.1341 16.4119C79.6286 17.739 72.1577 19.2414 64.6307 20.4505C58.3528 21.459 52.0472 22.3897 45.7255 23.0817C44.8258 23.1802 44.0916 23.0429 43.4081 23.6936C39.089 27.8051 31.0282 33.3398 31.0282 39.9094C31.0282 41.5348 31.3179 41.8191 32.9797 42.1735C41.1282 43.9109 49.686 42.8551 57.9224 42.4794" stroke="#FC4545" stroke-width="0.8" stroke-linecap="round"/>
</svg>
