<svg width="267" height="131" viewBox="0 0 267 131" fill="none" xmlns="http://www.w3.org/2000/svg">
<path d="M3.29004 13.6575L258.28 20.9569L262.448 40.8049L252.969 40.5335L9.00668 33.5498L3.29004 13.6575Z" fill="#8FFE09" fill-opacity="0.2"/>
<path d="M12.4648 43.1584L258.484 20.8637L262.248 40.2266L253.014 40.6983L17.9409 63.1172L12.4648 43.1584Z" fill="#8FFE09" fill-opacity="0.2"/>
<path d="M12.457 43.6599L261.219 50.6959L265.295 70.5399L256.046 70.2783L18.0424 63.5466L12.457 43.6599Z" fill="#8FFE09" fill-opacity="0.2"/>
<path d="M1.64746 69.515L261.12 50.8986L265.234 70.4527L255.957 70.9243L7.33839 89.4545L1.64746 69.515Z" fill="#8FFE09" fill-opacity="0.2"/>
<path d="M1.90625 69.1033L261.279 81.6137L265.448 101.538L255.805 101.073L7.6501 89.1037L1.90625 69.1033Z" fill="#8FFE09" fill-opacity="0.2"/>
<path d="M61.6586 100.591L261.114 81.9521L265.346 101.502L257.428 101.9L66.593 119.933L61.6586 100.591Z" fill="#8FFE09" fill-opacity="0.2"/>
<path d="M61.6543 100.448L229.856 64.2309L234.783 81.4758L228.654 83.1129L66.6592 119.959L61.6543 100.448Z" fill="#8FFE09" fill-opacity="0.2"/>
</svg>
