<svg width="49" height="64" viewBox="0 0 49 64" fill="none" xmlns="http://www.w3.org/2000/svg">
<path d="M14.3429 1.26223L15.7504 1.05325L17.1725 2.55365L19.14 1.9192L20.5622 3.4196L22.9534 2.8934L24.3755 4.3938L26.343 3.75935L27.7652 5.25975L30.1564 4.73354L31.5785 6.23394L33.1224 5.49125L34.5445 6.99165L36.512 6.3572L37.9341 7.8576L39.9017 7.22315L41.3238 8.72355L43.2913 8.08911L44.7135 9.58951L46.681 8.95506L48.1031 10.4555L41.3539 36.8742L7.45738 28.2147L14.3429 1.26223Z" fill="#F2F2F2" fill-opacity="0.3"/>
<path d="M14.3429 1.26223L15.7504 1.05325L17.1725 2.55365L19.14 1.9192L20.5622 3.4196L22.9534 2.8934L24.3755 4.3938L26.343 3.75935L27.7652 5.25975L30.1564 4.73354L31.5785 6.23394L33.1224 5.49125L34.5445 6.99165L36.512 6.3572L37.9341 7.8576L39.9017 7.22315L41.3238 8.72355L43.2913 8.08911L44.7135 9.58951L46.681 8.95506L48.1031 10.4555L41.3539 36.8742L7.45738 28.2147L14.3429 1.26223Z" fill="#F2F2F2" fill-opacity="0.3"/>
<path d="M34.7551 62.7041L33.3533 62.8908L31.9198 61.4349L29.9636 62.0249L28.5301 60.569L26.1503 61.0507L24.7168 59.5948L22.7606 60.1847L21.3271 58.7288L18.9472 59.2105L17.5137 57.7546L15.9813 58.4528L14.5478 56.9969L12.5916 57.5869L11.1581 56.131L9.20197 56.7209L7.76848 55.265L5.81232 55.855L4.37882 54.3991L2.42266 54.989L0.989163 53.5331L7.45712 28.2151L41.3537 36.8746L34.7551 62.7041Z" fill="#F2F2F2" fill-opacity="0.3"/>
<path d="M34.7551 62.7041L33.3533 62.8908L31.9198 61.4349L29.9636 62.0249L28.5301 60.569L26.1503 61.0507L24.7168 59.5948L22.7606 60.1847L21.3271 58.7288L18.9472 59.2105L17.5137 57.7546L15.9813 58.4528L14.5478 56.9969L12.5916 57.5869L11.1581 56.131L9.20197 56.7209L7.76848 55.265L5.81232 55.855L4.37882 54.3991L2.42266 54.989L0.989163 53.5331L7.45712 28.2151L41.3537 36.8746L34.7551 62.7041Z" fill="#F2F2F2" fill-opacity="0.3"/>
</svg>
