<svg width="500" height="540" viewBox="0 0 500 540" fill="none" xmlns="http://www.w3.org/2000/svg">
<line x1="500" y1="466.7" y2="466.7" stroke="#C7FE84"/>
<line x1="500" y1="502.7" y2="502.7" stroke="#C7FE84"/>
<line x1="500" y1="430.7" y2="430.7" stroke="#C7FE84"/>
<line x1="500" y1="358.7" y2="358.7" stroke="#C7FE84"/>
<line x1="500" y1="394.7" y2="394.7" stroke="#C7FE84"/>
<line x1="500" y1="322.7" y2="322.7" stroke="#C7FE84"/>
<line x1="500" y1="250.7" y2="250.7" stroke="#C7FE84"/>
<line x1="500" y1="286.7" y2="286.7" stroke="#C7FE84"/>
<line x1="500" y1="214.7" y2="214.7" stroke="#C7FE84"/>
<line x1="500" y1="142.7" y2="142.7" stroke="#C7FE84"/>
<line x1="500" y1="178.7" y2="178.7" stroke="#C7FE84"/>
<line x1="500" y1="106.7" y2="106.7" stroke="#C7FE84"/>
<line x1="500" y1="34.7002" x2="0.000183105" y2="34.7002" stroke="#C7FE84"/>
<line x1="500" y1="70.7002" y2="70.7002" stroke="#C7FE84"/>
<line x1="432.167" x2="432.167" y2="540" stroke="#C7FE84"/>
<line x1="465.5" x2="465.5" y2="540" stroke="#C7FE84"/>
<line x1="398.833" x2="398.833" y2="540" stroke="#C7FE84"/>
<line x1="332.167" x2="332.167" y2="540" stroke="#C7FE84"/>
<line x1="365.5" x2="365.5" y2="540" stroke="#C7FE84"/>
<line x1="298.833" x2="298.833" y2="540" stroke="#C7FE84"/>
<line x1="232.167" x2="232.167" y2="540" stroke="#C7FE84"/>
<line x1="265.5" x2="265.5" y2="540" stroke="#C7FE84"/>
<line x1="198.833" x2="198.833" y2="540" stroke="#C7FE84"/>
<line x1="132.167" x2="132.167" y2="540" stroke="#C7FE84"/>
<line x1="165.5" x2="165.5" y2="540" stroke="#C7FE84"/>
<line x1="98.8335" x2="98.8335" y2="540" stroke="#C7FE84"/>
<line x1="32.1665" x2="32.1665" y2="540" stroke="#C7FE84"/>
<line x1="65.5" x2="65.5" y2="540" stroke="#C7FE84"/>
</svg>
