<svg width="1266" height="7625" viewBox="0 0 1266 7625" fill="none" xmlns="http://www.w3.org/2000/svg">
<path d="M768.452 5974.82L736.864 5934.71L785.605 5926.73L768.452 5974.82Z" fill="#C7FE84"/>
<path d="M830.605 5963.36L796.396 5925.46L844.492 5914.23L830.605 5963.36Z" fill="#C7FE84"/>
<path d="M893.593 5947.57L857.21 5911.75L904.561 5897.71L893.593 5947.57Z" fill="#C7FE84"/>
<path d="M960.407 5922.4L918.68 5892.98L963.114 5871.42L960.407 5922.4Z" fill="#C7FE84"/>
<path d="M1021.61 5888.03L976.518 5864.08L1017.89 5837.11L1021.61 5888.03Z" fill="#C7FE84"/>
<path d="M1078.28 5840.79L1028.48 5829.54L1045.69 5811.88L1061.3 5792.64L1078.28 5840.79Z" fill="#C7FE84"/>
<path fill-rule="evenodd" clip-rule="evenodd" d="M1003.71 12.509C876.735 -4.6455 729.355 -2.9997 558.365 12.504C425.728 24.5302 351.893 45.8943 295.888 62.0992C279.668 66.7925 264.944 71.0529 250.72 74.5285C224.542 80.9249 203.288 90.9939 182.302 100.936L182.301 100.937C177.763 103.086 173.238 105.23 168.679 107.329C143.016 119.145 116.157 129.614 79.5079 132.102C78.9568 132.14 78.5405 132.617 78.5779 133.168C78.6153 133.719 79.0923 134.135 79.6433 134.098C116.643 131.586 143.757 121.005 169.515 109.146C174.111 107.03 178.66 104.875 183.212 102.719L183.213 102.719C204.189 92.7826 225.232 82.8151 251.195 76.4714C265.484 72.9799 280.25 68.7076 296.5 64.0059L296.5 64.0059C352.501 47.8033 426.12 26.5029 558.546 14.4958C729.459 -1.00097 876.674 -2.63552 1003.44 14.491C1091.26 26.3564 1149.94 47.2623 1186.21 73.3818C1222.42 99.4649 1236.27 130.733 1234.54 163.51C1232.81 196.366 1215.42 230.901 1188.77 263.39C1162.14 295.863 1126.34 326.203 1087.98 350.657C1046.61 377.021 816.556 506.621 776.793 527.111C752.621 539.568 716.621 556.593 678.447 574.596C627.134 598.795 564.502 627.086 495.702 656.581C442.71 679.299 413.731 688.654 376.564 700.653L376.563 700.653C361.541 705.503 345.181 710.784 325.358 717.554C270.045 736.444 224.991 754.208 180.56 780.641C120.769 816.212 80.856 853.841 49.0326 909.504C30.9334 941.161 11.4868 1003.27 3.64912 1073.83C-4.18959 1144.41 -0.435636 1223.6 28.0172 1289.4C57.396 1357.33 108.438 1414.75 156.939 1457.83C205.446 1500.92 251.472 1529.71 270.904 1540.38C369.366 1594.42 475.452 1631.6 543.148 1649.47C583.002 1659.99 681.991 1676.87 767.135 1680.06C799.593 1681.28 830.108 1680.51 854.589 1676.61C853.339 1680.11 852.171 1683.72 851.103 1687.43C836.435 1738.34 840.467 1807.73 907.281 1858.3C973.711 1908.58 1017.26 1935.16 1050.12 1955.07L1052.02 1956.23C1083.83 1975.51 1105.51 1988.64 1128.66 2011.71C1264.33 2146.87 1256.15 2351.69 1148.59 2447.75C1125.73 2468.17 1093.74 2484.1 1058.95 2495.93C1044.01 2501.01 1028.57 2505.32 1013.13 2508.91C987.674 2483.93 954.555 2474.89 923.77 2475.33C890.506 2475.79 859.779 2487.31 844.201 2501.95L844.123 2502.03L844.063 2502.11C842.36 2504.59 841.658 2507 842.074 2509.3C842.488 2511.6 843.975 2513.57 846.213 2515.24C850.652 2518.55 858.414 2520.95 868.511 2522.5C888.777 2525.61 919.101 2525.36 953.049 2521.39C972.086 2519.16 992.283 2515.75 1012.51 2511.1C1014.29 2512.88 1016.03 2514.74 1017.72 2516.68C1043.36 2546.02 1059.37 2594.4 1053.08 2670.04C1046.79 2745.69 1018.21 2848.51 954.797 2986.58C900.066 3105.74 780.506 3151.4 668.248 3165.96C556.011 3180.51 451.362 3163.91 426.941 3158.84L426.904 3158.83L426.866 3158.82C407.971 3156.37 390.903 3153.41 374.777 3150.51C372.692 3150.14 370.622 3149.76 368.566 3149.39C354.728 3146.9 341.509 3144.51 328.354 3142.64C298.112 3138.33 268.167 3136.69 231.536 3142.51C212.876 3145.48 192.064 3151.94 173.211 3160.87C154.37 3169.79 137.407 3181.22 126.516 3194.17C87.8344 3240.16 58.6012 3290.21 66.62 3369.07C67.9796 3398.24 83.1291 3442.34 107.594 3480.49C127.301 3511.22 153.177 3538.27 182.959 3550.47C178.352 3555.46 173.914 3560.6 169.654 3565.86C150.949 3588.93 139.158 3607.54 128.99 3640.19C118.844 3672.76 115.282 3692.63 114.03 3724.94L114.029 3724.96V3724.98C114.029 3786.96 133.506 3835.75 165.88 3874.94C198.236 3914.12 243.436 3943.67 294.822 3967.27C346.211 3990.87 403.846 4008.54 461.119 4023.94C484.754 4030.29 508.311 4036.26 531.346 4042.09L531.376 4042.09C564.197 4050.4 595.959 4058.44 625.374 4066.96C649.768 4074.03 675.737 4081.21 702.697 4088.68L702.711 4088.68C765.429 4106.04 833.508 4124.89 899.577 4147.13C994.037 4178.93 1084.24 4217.63 1148.61 4268.76C1219 4334.26 1252.56 4445.05 1257.26 4559.73C1261.95 4674.41 1237.78 4792.71 1193.01 4873.02C1109.4 5022.96 933.592 5088.47 712.902 5052.52C686.848 5048.27 660.013 5043.47 632.69 5038.58L632.684 5038.58C549.876 5023.76 462.589 5008.15 379.009 5004.78C267.829 5000.31 162.955 5017.5 83.6458 5087.25C55.8057 5111.73 31.1355 5155.17 15.9775 5202.5C1.06651 5249.06 -4.70021 5299.57 4.89547 5339.75L4.85332 5339.76L5.38737 5341.75L11.8419 5365.76L11.8468 5365.78L11.8523 5365.8C28.2807 5418.9 53.0778 5468.52 94.4177 5509.9C135.761 5551.29 193.59 5584.37 275.987 5604.47C346.908 5621.78 437.961 5610.48 534.088 5594.92C549.174 5592.48 564.387 5589.93 579.67 5587.38L579.962 5587.33C662.055 5573.58 746.151 5559.5 823.484 5559.5C915.36 5559.5 969.359 5569.37 1004.32 5584.17C1039.22 5598.94 1055.22 5618.65 1071.06 5638.62C1078.05 5647.43 1083.16 5661.54 1085.35 5678.71C1087.54 5695.87 1086.81 5715.98 1082.19 5736.72C1072.96 5778.19 1048.21 5822.05 1000.39 5849.63C899.547 5907.79 801.315 5928.01 627.711 5944C558.724 5950.36 509.749 5946.68 462.639 5939.88C446.439 5937.55 430.436 5934.83 413.905 5932.03L413.9 5932.03C382.391 5926.69 348.96 5921.03 308.578 5917C255.886 5911.75 207.897 5909.84 167.268 5919.49C126.58 5929.16 93.2686 5950.44 69.9966 5991.51C23.4708 6073.61 48.6061 6197.46 132.175 6319.56L132.193 6319.59L132.213 6319.62C206.85 6414.79 274.522 6451.87 378.295 6508.38C487.041 6567.59 576.075 6575.12 646.134 6581.04C669.44 6583.01 690.646 6584.8 709.779 6588.26C757.968 6596.97 803.818 6605.03 847.496 6612.7L847.761 6612.75C891.33 6620.4 932.736 6627.67 972.144 6634.84C1050.99 6649.18 1126.78 6677.92 1186.84 6721.31C1216.36 6742.64 1238.71 6780.03 1251.53 6818.03C1257.93 6837.02 1261.95 6856.13 1263.29 6873.4C1264.63 6890.69 1263.29 6906.07 1259.06 6917.66C1241.89 6964.65 1208.75 7015.3 1144.91 7015.3C1123.32 7015.3 1108.34 7012.83 1093.38 7010.37C1086.02 7009.16 1078.68 7007.96 1070.56 7007.04C1045.97 7004.27 1014.69 7004.28 955.477 7015.32C935.184 7019.1 914.38 7023.26 893.208 7027.49C790.859 7047.97 679.924 7070.16 576.727 7059.38C514.418 7052.88 471.654 7043.37 441.155 7035.02C428.637 7031.59 418.185 7028.36 409.28 7025.61C407.332 7025.01 405.458 7024.43 403.652 7023.88C393.615 7020.8 385.648 7018.5 378.913 7017.55C374.951 7016.99 370.988 7016.4 367.07 7015.8C353.518 7013.76 340.495 7011.79 329.848 7011.79H329.835C325.265 7011.79 320.625 7011.79 314.627 7012.81C309.131 7013.74 307.241 7014.47 302.451 7016.31L302.447 7016.31L301.026 7016.86C299.952 7017.19 298.896 7017.76 297.915 7018.31C297.69 7018.44 297.469 7018.57 297.251 7018.69C296.479 7019.14 295.75 7019.56 295.017 7019.9C289.542 7022.45 284.18 7026.16 280.242 7030.6C276.792 7034.49 274.381 7039.01 274.032 7043.84C270.098 7050.06 266.474 7059.21 268.649 7071.08C269.557 7076.03 269.036 7081.42 268.058 7087.46C267.752 7089.35 267.401 7091.3 267.038 7093.31C266.25 7097.7 265.408 7102.38 264.863 7107.33C263.259 7121.87 264.177 7138.99 276.136 7159.5C280.724 7167.37 281.862 7176.69 280.586 7186.9C279.308 7197.11 275.62 7208.15 270.631 7219.39C262.771 7237.09 251.753 7255.14 242.029 7271.07L242.011 7271.1C239.386 7275.4 236.855 7279.54 234.506 7283.49C231.154 7289.11 227.039 7295.15 222.586 7301.69C197.923 7337.89 162.894 7389.31 189.797 7469.82C205.649 7517.25 231.278 7551.82 267.484 7576.27C303.669 7600.7 350.346 7614.98 408.223 7621.99C466.162 7629.01 531.359 7621.49 591.676 7611.92C608.49 7609.26 624.917 7606.44 640.702 7603.72L640.716 7603.72C681.63 7596.69 718.234 7590.4 746.102 7589.5L746.038 7587.5C718.021 7588.41 681.198 7594.73 640.217 7601.78L640.153 7601.79C624.415 7604.49 608.064 7607.3 591.363 7609.95C531.065 7619.51 466.105 7626.99 408.463 7620.01C350.76 7613.02 304.428 7598.8 268.604 7574.61C232.801 7550.43 207.422 7516.25 191.694 7469.18C165.13 7389.69 199.523 7339.15 224.167 7302.94C228.651 7296.35 232.812 7290.24 236.224 7284.51C238.54 7280.62 241.043 7276.52 243.646 7272.26L243.697 7272.18C253.428 7256.24 264.54 7238.04 272.459 7220.2C277.488 7208.87 281.259 7197.63 282.57 7187.15C283.882 7176.65 282.739 7166.86 277.864 7158.5C266.167 7138.44 265.283 7121.77 266.851 7107.54C267.388 7102.66 268.209 7098.1 268.992 7093.75C269.358 7091.72 269.716 7089.73 270.032 7087.78C271.016 7081.71 271.59 7076.03 270.616 7070.72C268.846 7061.06 271.09 7053.36 274.144 7047.63C274.633 7052.26 276.105 7056.05 278.432 7059.27C281.031 7062.87 284.655 7065.71 289.022 7068.25C297.69 7073.3 310.222 7078.9 323.897 7079.41C337.383 7079.91 361.646 7078.91 374.094 7076.89C380.314 7075.88 387.902 7074.24 395.099 7071.71C402.279 7069.19 409.161 7065.75 413.884 7061.09C418.59 7056.45 421.688 7050.34 422.043 7044.72C422.221 7041.9 421.707 7039.18 420.317 7036.83C418.921 7034.48 416.683 7032.59 413.538 7031.39C401.769 7026.91 389.477 7024.39 367.982 7020L367.145 7019.83C357.417 7017.84 349.786 7016.04 343.968 7014.66C351.061 7015.41 358.721 7016.57 366.623 7017.76L366.662 7017.77C370.606 7018.36 374.609 7018.97 378.633 7019.53C385.187 7020.46 393.005 7022.7 403.066 7025.79C404.867 7026.34 406.737 7026.92 408.683 7027.52C417.59 7030.27 428.076 7033.51 440.627 7036.95C471.225 7045.32 514.097 7054.85 576.519 7061.37C680.049 7072.18 791.353 7049.91 893.702 7029.44L893.767 7029.42C914.89 7025.2 935.631 7021.05 955.843 7017.28C1014.92 7006.28 1046 7006.29 1070.33 7009.03C1078.28 7009.92 1085.54 7011.12 1092.86 7012.32C1107.91 7014.79 1123.16 7017.3 1144.91 7017.3C1210.1 7017.3 1243.7 6965.51 1260.94 6918.34C1265.31 6906.39 1266.64 6890.69 1265.28 6873.24C1263.92 6855.79 1259.87 6836.52 1253.42 6817.39C1240.53 6779.16 1217.99 6741.35 1188.01 6719.69C1127.65 6676.08 1051.57 6647.25 972.502 6632.87C933.116 6625.71 891.678 6618.43 848.08 6610.77L847.699 6610.7C804.046 6603.03 758.227 6594.98 710.135 6586.29C690.79 6582.79 669.445 6580.99 646.044 6579.01L646.031 6579.01C576.012 6573.09 487.586 6565.61 379.251 6506.62C275.505 6450.13 208.162 6413.21 133.807 6318.41C50.3904 6196.52 25.7926 6073.57 71.7366 5992.49C94.7013 5951.97 127.513 5930.99 167.73 5921.44C208.007 5911.87 255.704 5913.75 308.38 5919C348.705 5923.01 382.004 5928.66 413.469 5933.99C430.019 5936.79 446.062 5939.51 462.354 5941.86C509.589 5948.68 558.724 5952.37 627.895 5946C801.57 5929.99 900.159 5909.75 1001.39 5851.37C1049.79 5823.45 1074.81 5779.06 1084.14 5737.16C1088.81 5716.2 1089.56 5695.85 1087.34 5678.46C1085.12 5661.09 1079.93 5646.58 1072.63 5637.38C1056.74 5617.35 1040.48 5597.31 1005.1 5582.33C969.775 5567.38 915.461 5557.5 823.484 5557.5C745.971 5557.5 661.682 5571.61 579.598 5585.36L579.59 5585.36C564.219 5587.94 548.925 5590.5 533.768 5592.95C437.575 5608.52 346.924 5619.72 276.461 5602.53C194.357 5582.49 136.874 5549.57 95.8326 5508.49C54.7924 5467.41 30.1327 5418.11 13.7685 5365.22L7.32593 5341.25C7.32539 5341.25 7.32486 5341.25 7.32432 5341.25C-2.82464 5301.25 2.78762 5250.24 17.8822 5203.11C32.9785 5155.97 57.4972 5112.91 84.9666 5088.75C163.707 5019.5 267.952 5002.32 378.929 5006.78C462.356 5010.14 549.443 5025.72 632.217 5040.53L632.226 5040.53C659.578 5045.42 686.458 5050.23 712.58 5054.49C933.784 5090.53 1110.6 5024.91 1194.75 4873.99C1239.75 4793.29 1263.96 4674.6 1259.25 4559.65C1254.55 4444.72 1220.91 4333.28 1149.94 4267.27L1149.91 4267.24L1149.88 4267.22C1085.23 4215.86 994.741 4177.06 900.215 4145.23C834.09 4122.97 765.917 4104.1 703.175 4086.73L703.165 4086.73L703.149 4086.73C676.211 4079.27 650.274 4072.09 625.931 4065.04C596.5 4056.51 564.664 4048.46 531.802 4040.14C508.76 4034.31 485.213 4028.35 461.639 4022.01C404.395 4006.62 346.891 3988.98 295.657 3965.45C244.422 3941.92 199.516 3912.53 167.422 3873.67C135.349 3834.84 116.033 3786.51 116.029 3725C117.274 3692.89 120.804 3673.2 130.9 3640.78C140.975 3608.43 152.622 3590.04 171.208 3567.11C175.603 3561.69 180.186 3556.4 184.951 3551.26C191.506 3553.78 198.246 3555.58 205.146 3556.54C231.229 3560.17 263.781 3560.99 313.46 3547.45C336.521 3541.17 355.221 3529.58 366.496 3516.39C377.759 3503.22 381.741 3488.27 374.805 3475.51L374.769 3475.45L374.725 3475.39C365.331 3462.94 348.763 3460.72 332.318 3462.59C315.817 3464.48 299.065 3470.52 288.819 3475.07C268.347 3484.18 245.535 3498.23 230.587 3508.67C213.788 3520.4 198.339 3534.01 184.416 3548.9C154.907 3537.07 129.064 3510.26 109.277 3479.41C84.934 3441.45 69.9472 3397.67 68.6166 3368.95L68.6153 3368.92L68.6125 3368.89C60.6597 3290.76 89.5496 3241.23 128.046 3195.46C138.683 3182.81 155.365 3171.54 174.067 3162.67C192.758 3153.82 213.388 3147.42 231.85 3144.49C268.229 3138.71 297.965 3140.32 328.072 3144.62C341.19 3146.49 354.371 3148.86 368.214 3151.36L368.229 3151.36L368.452 3151.4C370.428 3151.76 372.418 3152.12 374.424 3152.48C390.545 3155.37 407.641 3158.35 426.572 3160.8C451.193 3165.92 556.031 3182.52 668.505 3167.94C781.014 3153.35 901.452 3107.52 956.615 2987.42C1020.08 2849.24 1048.76 2746.18 1055.08 2670.21C1061.39 2594.24 1045.34 2545.25 1019.23 2515.36C1017.78 2513.71 1016.3 2512.11 1014.8 2510.57C1029.89 2507.03 1044.98 2502.79 1059.59 2497.82C1094.52 2485.95 1126.79 2469.91 1149.93 2449.24C1258.47 2352.3 1266.43 2146.13 1130.08 2010.29C1106.75 1987.05 1084.89 1973.81 1053.14 1954.57L1053.14 1954.57L1051.15 1953.36C1018.32 1933.47 974.841 1906.92 908.488 1856.7C842.518 1806.77 838.515 1738.35 853.025 1687.98C854.189 1683.94 855.471 1680.02 856.85 1676.24C863.598 1675.09 869.864 1673.7 875.558 1672.03C888.877 1668.13 899.21 1662.69 905.214 1655.3C911.281 1647.84 912.822 1638.51 908.827 1627.17C907.777 1624.19 906.278 1622 904.352 1620.64C902.41 1619.28 900.133 1618.83 897.687 1619.17C892.873 1619.84 887.316 1623.54 881.711 1629.37C872.427 1639.02 862.633 1654.92 855.374 1674.46C830.932 1678.47 800.145 1679.3 767.209 1678.06C682.208 1674.88 583.366 1658.01 543.658 1647.53C476.09 1629.7 370.16 1592.58 271.866 1538.62C252.55 1528.02 206.65 1499.31 158.267 1456.34C109.88 1413.36 59.0707 1356.17 29.8529 1288.6C1.59091 1223.25 -2.1814 1144.44 5.6369 1074.05C13.4562 1003.66 32.8499 941.839 50.7689 910.496C82.3905 855.187 122.03 817.788 181.583 782.359C225.835 756.033 270.734 738.322 326.005 719.446C345.773 712.695 362.109 707.422 377.122 702.575C414.324 690.565 443.409 681.176 496.49 658.419C565.311 628.915 627.965 600.614 679.3 576.405C717.462 558.408 753.499 541.365 777.709 528.889C817.509 508.38 1047.62 378.749 1089.05 352.344C1127.56 327.798 1163.53 297.325 1190.32 264.658C1217.1 232.006 1234.78 197.072 1236.54 163.615C1238.31 130.08 1224.07 98.1915 1187.37 71.7589C1150.73 45.3627 1091.67 24.3936 1003.71 12.509ZM923.798 2477.33C953.813 2476.91 985.94 2485.6 1010.81 2509.44C991.081 2513.93 971.396 2517.23 952.816 2519.4C918.959 2523.37 888.833 2523.59 868.814 2520.52C858.769 2518.98 851.43 2516.64 847.409 2513.64C845.418 2512.15 844.336 2510.58 844.042 2508.95C843.753 2507.35 844.188 2505.49 845.65 2503.34C860.79 2489.17 890.935 2477.79 923.798 2477.33ZM205.421 3554.56C198.947 3553.66 192.608 3552 186.426 3549.68C200.117 3535.11 215.276 3521.8 231.733 3510.31C246.617 3499.91 269.315 3485.93 289.632 3476.9C299.78 3472.39 316.323 3466.43 332.545 3464.58C348.797 3462.73 364.356 3465.03 373.083 3476.53C379.417 3488.26 375.933 3502.28 364.976 3515.09C354.01 3527.91 335.687 3539.32 312.934 3545.52C263.53 3558.98 231.251 3558.15 205.421 3554.56ZM874.995 1670.11C869.701 1671.66 863.896 1672.97 857.655 1674.07C864.793 1655.24 874.264 1640 883.152 1630.75C888.674 1625.01 893.834 1621.73 897.961 1621.15C899.984 1620.87 901.734 1621.25 903.202 1622.28C904.687 1623.32 905.982 1625.11 906.941 1627.83C910.741 1638.62 909.225 1647.2 903.662 1654.04C898.037 1660.97 888.169 1666.25 874.995 1670.11ZM314.961 7014.78C320.785 7013.79 325.281 7013.79 329.848 7013.79C330.674 7013.79 331.994 7013.99 333.93 7014.39C335.844 7014.79 338.282 7015.36 341.31 7016.08L342.186 7016.29C348.156 7017.71 356.229 7019.64 366.745 7021.79L367.414 7021.92L370.341 7022.52C367.675 7022.13 364.801 7021.73 361.701 7021.32C339.083 7018.31 325.821 7018.17 317.238 7019.12C310.413 7019.88 306.534 7021.34 303.389 7022.51L302.692 7022.78C302.126 7022.99 301.579 7023.18 301.037 7023.36C297.965 7024.39 294.557 7025.89 291.435 7027.53C292.24 7026.45 293.173 7025.35 294.182 7024.31C296.707 7021.7 299.543 7019.57 301.711 7018.74L303.169 7018.18C307.922 7016.35 309.662 7015.68 314.961 7014.78ZM407.332 7033.13C406.355 7032.19 405.259 7031.13 403.162 7030.04C406.538 7031.02 409.701 7032.07 412.826 7033.26C415.595 7034.32 417.456 7035.93 418.597 7037.85C419.744 7039.79 420.205 7042.1 420.047 7044.6C419.729 7049.63 416.914 7055.29 412.48 7059.67C408.063 7064.02 401.503 7067.34 394.436 7069.83C387.386 7072.31 379.921 7073.92 373.774 7074.92C361.492 7076.91 337.367 7077.91 323.971 7077.41C310.764 7076.92 298.564 7071.5 290.028 7066.53C285.793 7064.06 282.428 7061.39 280.054 7058.1C277.691 7054.83 276.268 7050.89 276.008 7045.8C275.985 7045.36 275.983 7044.93 275.999 7044.5C277.926 7041.55 279.919 7039.28 281.308 7037.71C281.971 7036.95 282.496 7036.36 282.811 7035.92C283.254 7035.3 284.156 7034.47 285.465 7033.5C285.668 7033.35 285.88 7033.2 286.099 7033.04C286.282 7032.92 286.471 7032.79 286.664 7032.66C286.418 7033.83 286.29 7035.18 286.232 7036.56C286.155 7038.43 286.207 7040.44 286.309 7042.28C286.411 7044.11 286.564 7045.79 286.691 7047C286.754 7047.61 286.812 7048.11 286.853 7048.45L286.902 7048.85L286.916 7048.95L286.92 7048.98L286.921 7048.99C286.921 7048.99 286.921 7048.99 287.912 7048.86L286.921 7048.99L286.925 7049.02L286.931 7049.05L287.912 7048.86C286.931 7049.05 286.931 7049.05 286.932 7049.05L286.933 7049.06L286.937 7049.08L286.951 7049.14L286.973 7049.24L287.003 7049.36C287.022 7049.43 287.046 7049.52 287.074 7049.61C287.115 7049.76 287.168 7049.93 287.233 7050.12C287.449 7050.77 287.805 7051.68 288.369 7052.76C289.498 7054.93 291.457 7057.79 294.79 7060.64C295.721 7061.43 297.143 7062.18 298.875 7062.88C300.626 7063.59 302.77 7064.29 305.203 7064.96C310.071 7066.3 316.157 7067.56 322.698 7068.63C335.772 7070.76 350.757 7072.15 361.592 7071.9C383.178 7071.39 393.034 7068.37 399.681 7064.76C406.227 7061.2 410.695 7057.59 414.045 7051.87C415.838 7048.8 415.812 7045.36 414.73 7042.27C413.652 7039.19 411.508 7036.39 408.93 7034.52C408.342 7034.1 407.854 7033.63 407.332 7033.13ZM279.88 7036.29C279.089 7037.18 278.053 7038.34 276.923 7039.77C277.89 7037.02 279.564 7034.38 281.738 7031.93C284.535 7028.77 288.121 7025.98 291.969 7023.75C290.273 7025.61 288.765 7027.65 287.779 7029.58C286.482 7030.36 285.293 7031.14 284.278 7031.89C282.932 7032.88 281.818 7033.87 281.185 7034.75C280.931 7035.11 280.474 7035.62 279.88 7036.29ZM288.864 7032.13C288.982 7031.77 289.133 7031.38 289.315 7030.99L289.825 7030.69L290.154 7030.5C293.739 7028.46 297.98 7026.49 301.669 7025.26C302.49 7024.99 303.299 7024.69 304.145 7024.37C307.273 7023.2 310.902 7021.84 317.458 7021.11C325.811 7020.19 338.893 7020.3 361.437 7023.3C384.021 7026.31 394.399 7028.68 399.722 7030.7C403.343 7032.07 404.485 7033.18 405.719 7034.38C406.292 7034.94 406.885 7035.51 407.756 7036.14C410.017 7037.78 411.905 7040.25 412.843 7042.93C413.777 7045.6 413.751 7048.41 412.319 7050.86C409.217 7056.15 405.083 7059.55 398.726 7063C392.47 7066.4 382.971 7069.4 361.545 7069.9C350.875 7070.14 336.021 7068.78 323.02 7066.65C316.523 7065.59 310.512 7064.35 305.735 7063.03C303.347 7062.37 301.282 7061.7 299.627 7061.03C297.952 7060.35 296.77 7059.7 296.089 7059.12C292.97 7056.45 291.165 7053.8 290.143 7051.84C289.632 7050.86 289.316 7050.04 289.129 7049.49C289.036 7049.21 288.975 7048.99 288.939 7048.85L288.924 7048.8L288.901 7048.7L288.899 7048.69L288.894 7048.67L288.886 7048.59L288.839 7048.21C288.814 7048 288.783 7047.74 288.749 7047.43L288.68 7046.8C288.555 7045.6 288.405 7043.96 288.306 7042.16C288.206 7040.37 288.157 7038.43 288.231 7036.64C288.305 7034.84 288.503 7033.26 288.864 7032.13Z" fill="#FC4545"/>
<path d="M178.286 29.5259C154.53 2.9416 93.4485 60.1281 84.5335 70.373C66.9879 90.5359 50.2993 111.262 43.3468 137.545C40.2195 149.368 37.7641 162.763 50.5651 169.306C65.9028 177.145 85.4567 174.893 101.518 171.089C136.813 162.73 181.391 140.934 177.692 98.5667C175.929 78.3697 166.322 58.7388 143.638 58.7388C112.486 58.7388 78.2505 78.7351 54.6413 97.1231C31.7928 114.919 15.021 153.531 41.5635 175.76C53.5815 185.825 69.919 187.918 85.043 187.989C112.617 188.117 141.751 183.656 164.02 166.079C181.377 152.378 195.537 132.119 189.326 109.182C183.309 86.9602 167.128 65.0765 149.413 50.7562C138.137 41.6409 124.66 34.7686 110.774 30.7149C98.0608 27.0036 77.4233 21.8476 64.4921 27.7427C43.0358 37.5242 60.5935 88.4411 66.9548 99.7556C86.9782 135.37 122.982 156.463 161.387 167.268C170.677 169.882 213.368 182.101 221.681 167.692C225.461 161.14 217.737 148.117 214.887 142.556C208.92 130.912 199.798 122.261 189.92 113.853C168.226 95.3852 143.456 89.5543 114.935 90.4993C97.0449 91.092 80.363 92.2707 66.6152 105.275C54.9379 116.322 52.8892 131.555 50.3953 146.292C47.9715 160.614 42.5174 187.106 51.4143 200.897C58.8379 212.403 76.4963 204.788 85.4676 200.472C121.524 183.126 148.792 151.676 171.662 119.712C187.283 97.8812 205.51 71.4132 209.877 44.0475C210.852 37.9356 212.132 22.3295 204.357 18.7411C196.491 15.1104 183.199 25.8058 178.286 29.5259ZM178.286 29.5259C157.591 45.1962 138.932 64.3253 121.389 83.3659C107.871 98.0378 95.2007 113.488 86.5716 131.601C83.7246 137.577 69.0358 167.618 80.797 172.533C88.7547 175.859 100.033 173.929 107.972 172.363C129.519 168.113 150.659 159.733 168.775 147.227C181.086 138.728 194.973 127.54 199.941 112.749C204.753 98.4208 197.846 81.6918 190.855 69.3539C178.123 46.8862 155.796 32.0365 129.881 30.8847C103.576 29.7156 29.2159 38.8995 54.1318 83.281C56.3699 87.2677 61.5474 95.1733 66.1906 96.6136C77.5387 100.134 98.9262 96.6382 107.632 95.4247C128.509 92.5145 169.741 84.7509 190.515 80.4786C202.439 78.0262 232.166 76.5047 224.483 67.0611C221.122 62.9298 215.265 60.7268 210.217 59.7579C202.355 58.2491 194.924 59.4012 187.118 60.7769C166.215 64.4606 145.409 68.6305 124.446 71.9865C106.962 74.7855 89.4013 77.369 71.7953 79.2897C69.2899 79.563 67.245 79.182 65.3413 80.9881C53.3129 92.3997 30.8634 107.762 30.8634 125.996C30.8634 130.508 31.6703 131.297 36.2984 132.28C58.9919 137.103 82.8253 134.172 105.764 133.13" stroke="#FC4545" stroke-width="2" stroke-linecap="round"/>
</svg>
