<svg width="92" height="97" viewBox="0 0 92 97" fill="none" xmlns="http://www.w3.org/2000/svg">
<rect x="10.791" y="25.1992" width="61.1888" height="61.1888" transform="rotate(-7.23434 10.791 25.1992)" fill="#C7FE84"/>
<path d="M28.032 8.0133L28.6666 7.65723L29.6194 8.11548L30.4443 7.45412L31.3971 7.91236L32.4442 7.22562L33.397 7.68386L34.2219 7.0225L35.1747 7.48075L36.2217 6.794L37.1745 7.25225L37.7772 6.61628L38.73 7.07452L39.5549 6.41317L40.5077 6.87141L41.3326 6.21005L42.2854 6.6683L43.1102 6.00694L44.063 6.46519L44.8879 5.80383L45.8407 6.26207L47.4238 20.1172L29.647 22.1483L28.032 8.0133Z" fill="#F2F2F2" fill-opacity="0.3"/>
<path d="M28.032 8.0133L28.6666 7.65723L29.6194 8.11548L30.4443 7.45412L31.3971 7.91236L32.4442 7.22562L33.397 7.68386L34.2219 7.0225L35.1747 7.48075L36.2217 6.794L37.1745 7.25225L37.7772 6.61628L38.73 7.07452L39.5549 6.41317L40.5077 6.87141L41.3326 6.21005L42.2854 6.6683L43.1102 6.00694L44.063 6.46519L44.8879 5.80383L45.8407 6.26207L47.4238 20.1172L29.647 22.1483L28.032 8.0133Z" fill="#F2F2F2" fill-opacity="0.3"/>
<path d="M48.9713 33.6634L48.3353 34.0078L47.3852 33.5729L46.5577 34.2109L45.6075 33.776L44.5578 34.4394L43.6076 34.0045L42.7801 34.6425L41.83 34.2076L40.7802 34.871L39.8301 34.4361L39.2247 35.0488L38.2746 34.6138L37.4471 35.2519L36.4969 34.817L35.6694 35.455L34.7193 35.0201L33.8917 35.6581L32.9416 35.2232L32.114 35.8612L31.1639 35.4263L29.6468 22.1485L47.4236 20.1174L48.9713 33.6634Z" fill="#F2F2F2" fill-opacity="0.3"/>
<path d="M48.9713 33.6634L48.3353 34.0078L47.3852 33.5729L46.5577 34.2109L45.6075 33.776L44.5578 34.4394L43.6076 34.0045L42.7801 34.6425L41.83 34.2076L40.7802 34.871L39.8301 34.4361L39.2247 35.0488L38.2746 34.6138L37.4471 35.2519L36.4969 34.817L35.6694 35.455L34.7193 35.0201L33.8917 35.6581L32.9416 35.2232L32.114 35.8612L31.1639 35.4263L29.6468 22.1485L47.4236 20.1174L48.9713 33.6634Z" fill="#F2F2F2" fill-opacity="0.3"/>
</svg>
