<svg width="1297" height="13197" viewBox="0 0 1297 13197" fill="none" xmlns="http://www.w3.org/2000/svg">
<g clip-path="url(#clip0_1454_63)">
<path d="M885.064 5107.47L857.252 5061.35L909.316 5059.38L885.064 5107.47Z" fill="#C7FE84"/>
<path d="M958.056 5101.78L924.842 5059.38L976.279 5051.09L958.056 5101.78Z" fill="#C7FE84"/>
<path d="M1026.33 5085.43L987.952 5047.65L1037.9 5032.84L1026.33 5085.43Z" fill="#C7FE84"/>
<path d="M1096.81 5058.88L1052.8 5027.85L1099.67 5005.1L1096.81 5058.88Z" fill="#C7FE84"/>
<path d="M1162.6 5017.62L1113.65 4995.16L1155.57 4964.23L1162.6 5017.62Z" fill="#C7FE84"/>
<path d="M1215.53 4968.79L1163 4956.93L1181.15 4938.3L1197.62 4918L1215.53 4968.79Z" fill="#C7FE84"/>
<path d="M451.893 9079.11L399.805 9065.42L435.766 9027.72L451.893 9079.11Z" fill="#C7FE84"/>
<path d="M489.787 9037.26L437.574 9024.02L473.207 8986.01L489.787 9037.26Z" fill="#C7FE84"/>
<path d="M527.901 8998.71L476.102 8983.95L512.833 8947L527.901 8998.71Z" fill="#C7FE84"/>
<path d="M565.698 8960.3L514.582 8943.34L552.867 8908L565.698 8960.3Z" fill="#C7FE84"/>
<path d="M608.435 8921.22L557.872 8902.66L597.237 8868.54L608.435 8921.22Z" fill="#C7FE84"/>
<path d="M651.04 8882.5L600.624 8863.56L621.156 8847.59L640.245 8829.74L651.04 8882.5Z" fill="#C7FE84"/>
<path d="M212.286 28.7309C188.53 2.14668 127.449 59.3331 118.534 69.578C100.988 89.7409 84.2993 110.467 77.3468 136.75C74.2195 148.573 71.7641 161.968 84.5651 168.511C99.9028 176.35 119.457 174.098 135.518 170.294C170.813 161.935 215.391 140.139 211.692 97.7717C209.929 77.5747 200.322 57.9438 177.639 57.9438C146.486 57.9438 112.251 77.9401 88.6413 96.3281C65.7928 114.124 49.021 152.736 75.5635 174.965C87.5815 185.03 103.919 187.123 119.043 187.194C146.617 187.322 175.751 182.861 198.02 165.284C215.377 151.583 229.537 131.324 223.326 108.387C217.309 86.1652 201.128 64.2815 183.413 49.9612C172.137 40.8459 158.66 33.9736 144.774 29.9199C132.061 26.2086 111.423 21.0526 98.4921 26.9477C77.0358 36.7292 94.5935 87.6461 100.955 98.9606C120.978 134.575 156.982 155.668 195.387 166.473C204.677 169.087 247.368 181.306 255.681 166.897C259.461 160.345 251.738 147.322 248.887 141.761C242.92 130.117 233.798 121.466 223.921 113.058C202.226 94.5902 177.457 88.7593 148.935 89.7043C131.045 90.297 114.363 91.4757 100.615 104.48C88.9379 115.527 86.8892 130.76 84.3952 145.497C81.9715 159.819 76.5174 186.311 85.4143 200.102C92.8378 211.608 110.496 203.993 119.468 199.677C155.524 182.331 182.792 150.881 205.663 118.917C221.283 97.0862 239.51 70.6182 243.877 43.2525C244.852 37.1406 246.132 21.5345 238.357 17.9461C230.491 14.3154 217.199 25.0108 212.286 28.7309ZM212.286 28.7309C191.591 44.4012 172.932 63.5303 155.389 82.5709C141.871 97.2428 129.201 112.693 120.572 130.806C117.725 136.782 103.036 166.823 114.797 171.738C122.755 175.064 134.033 173.134 141.972 171.568C163.519 167.318 184.659 158.938 202.775 146.432C215.086 137.933 228.973 126.745 233.941 111.954C238.754 97.6258 231.846 80.8968 224.855 68.5589C212.123 46.0912 189.796 31.2415 163.881 30.0897C137.577 28.9206 63.2159 38.1045 88.1318 82.486C90.3699 86.4727 95.5474 94.3783 100.191 95.8186C111.539 99.339 132.926 95.8432 141.632 94.6297C162.51 91.7195 203.741 83.9559 224.515 79.6836C236.44 77.2312 266.166 75.7097 258.483 66.2661C255.122 62.1348 249.266 59.9318 244.217 58.9629C236.355 57.4541 228.925 58.6062 221.118 59.9819C200.215 63.6656 179.409 67.8355 158.447 71.1915C140.963 73.9905 123.401 76.574 105.795 78.4947C103.29 78.768 101.245 78.387 99.3413 80.1931C87.3129 91.6047 64.8634 106.967 64.8634 125.201C64.8634 129.713 65.6703 130.502 70.2984 131.485C92.9919 136.308 116.825 133.377 139.764 132.335" stroke="#FC4545" stroke-width="2" stroke-linecap="round"/>
<path fill-rule="evenodd" clip-rule="evenodd" d="M592.291 11.4561C738.754 -1.8235 910.657 -5.69382 1037.63 11.4611C1125.6 23.3457 1184.65 44.3149 1221.3 70.7111C1258 97.1436 1272.23 129.032 1270.47 162.567C1268.7 196.024 1251.02 230.958 1224.24 263.61C1197.45 296.277 1161.48 326.75 1122.98 351.296C1081.59 377.678 908.737 483.069 868.909 503.593C864.002 506.122 856.56 509.994 847.495 514.711C811.909 533.226 751.314 564.755 720.877 579.108C695.182 591.226 664.748 603.425 632.161 616.273C628.082 617.881 623.97 619.499 619.829 621.128C590.871 632.523 560.502 644.473 530.416 657.372C477.335 680.128 448.25 689.517 411.048 701.527C396.035 706.374 379.699 711.648 359.931 718.399C304.66 737.274 259.761 754.985 215.509 781.312C155.956 816.741 116.317 854.139 84.695 909.449C66.776 940.791 47.3823 1002.6 39.563 1073C31.7447 1143.39 35.517 1222.2 63.779 1287.55C92.9968 1355.11 143.806 1412.31 192.194 1455.29C240.576 1498.26 286.477 1526.97 305.793 1537.57C404.087 1591.53 510.016 1628.65 577.584 1646.48C617.292 1656.96 716.134 1673.83 801.136 1677.01C834.071 1678.25 864.858 1677.42 889.3 1673.4C896.559 1653.87 906.353 1637.97 915.637 1628.32C921.242 1622.49 926.799 1618.79 931.613 1618.12C934.06 1617.78 936.336 1618.23 938.278 1619.59C940.204 1620.94 941.704 1623.14 942.754 1626.12C946.748 1637.45 945.207 1646.78 939.141 1654.25C933.136 1661.64 922.803 1667.08 909.484 1670.98C903.791 1672.65 897.525 1674.04 890.776 1675.19C889.397 1678.97 888.115 1682.89 886.951 1686.93C872.441 1737.3 876.444 1805.72 942.414 1855.65C1008.77 1905.87 1052.25 1932.41 1085.08 1952.31L1087.07 1953.52C1118.82 1972.76 1140.67 1986 1164 2009.24C1300.35 2145.08 1292.4 2351.25 1183.85 2448.19C1160.71 2468.86 1128.44 2484.9 1093.52 2496.77C1067.21 2505.71 1039.36 2512.3 1012.71 2516.7C1034.54 2528.89 1056.23 2544.96 1075.62 2564.84C1109.95 2600.02 1137.12 2647.13 1145.2 2705.64C1153.28 2764.16 1142.25 2834.01 1100.34 2914.66C1069.86 2973.3 1017.65 3018.54 955.793 3053.28C893.935 3088.01 822.377 3112.26 753.123 3128.88C683.864 3145.5 616.877 3154.49 564.139 3158.7C537.77 3160.8 514.956 3161.7 497.195 3161.76C479.502 3161.82 466.748 3161.04 460.499 3159.75C441.567 3157.3 424.472 3154.32 408.35 3151.43C406.269 3151.05 404.205 3150.68 402.155 3150.31C388.306 3147.81 375.121 3145.44 361.998 3143.57C331.891 3139.27 302.155 3137.66 265.776 3143.43C247.314 3146.37 226.684 3152.77 207.993 3161.62C189.291 3170.48 172.609 3181.76 161.973 3194.41C123.476 3240.18 94.5858 3289.71 102.539 3367.84L102.541 3367.87L102.543 3367.89C103.873 3396.62 118.86 3440.4 143.203 3478.36C162.991 3509.21 188.833 3536.02 218.343 3547.85C232.266 3532.96 247.714 3519.35 264.514 3507.62C279.461 3497.18 302.273 3483.12 322.745 3474.02C332.992 3469.47 349.743 3463.43 366.245 3461.54C382.689 3459.67 399.258 3461.89 408.651 3474.33L408.696 3474.39L408.731 3474.46C415.667 3487.22 411.685 3502.17 400.422 3515.34C389.147 3528.52 370.447 3540.12 347.386 3546.4C297.707 3559.94 265.155 3559.12 239.072 3555.49C232.172 3554.53 225.432 3552.73 218.878 3550.21C214.113 3555.35 209.529 3560.64 205.134 3566.06C186.549 3588.99 174.901 3607.38 164.826 3639.73C154.73 3672.14 151.2 3691.83 149.955 3723.95C149.959 3785.46 169.275 3833.79 201.348 3872.62C233.442 3911.47 278.348 3940.87 329.583 3964.4C380.817 3987.93 438.322 4005.57 495.565 4020.96C519.14 4027.29 542.686 4033.25 565.728 4039.09C598.59 4047.4 630.426 4055.46 659.857 4063.99C684.204 4071.04 710.146 4078.22 737.088 4085.68C799.834 4103.05 868.011 4121.92 934.141 4144.18C1028.67 4176.01 1119.16 4214.81 1183.81 4266.17L1183.84 4266.19L1183.87 4266.22C1254.84 4332.23 1288.47 4443.67 1293.18 4558.6C1297.89 4673.55 1273.68 4792.24 1228.68 4872.94C1144.52 5023.86 967.71 5089.48 746.507 5053.44C720.384 5049.18 693.504 5044.37 666.152 5039.48C583.375 5024.67 496.285 5009.09 412.855 5005.73C301.879 5001.27 197.633 5018.45 118.893 5087.7C91.4239 5111.86 67.5551 5153.98 53.0551 5200.49C38.5573 5246.99 33.4786 5297.7 43.423 5338.97C43.5523 5339.5 43.222 5340.04 42.685 5340.17C42.1481 5340.3 41.608 5339.97 41.4786 5339.43C31.423 5297.7 36.5802 5246.61 51.1458 5199.89C65.7092 5153.18 89.7311 5110.68 117.572 5086.2C196.881 5016.45 301.756 4999.26 412.936 5003.73C496.517 5007.1 583.806 5022.71 666.616 5037.53C693.939 5042.42 720.775 5047.22 746.828 5051.47C967.518 5087.42 1143.32 5021.91 1226.93 4871.97C1271.71 4791.66 1295.88 4673.35 1291.18 4558.68C1286.48 4444 1252.93 4333.2 1182.53 4267.71C1118.17 4216.58 1027.96 4177.88 933.503 4146.08C867.428 4123.83 799.342 4104.99 736.619 4087.62C709.661 4080.16 683.693 4072.97 659.301 4065.91C629.885 4057.39 598.123 4049.35 565.302 4041.04C542.257 4035.21 518.69 4029.24 495.046 4022.89C437.772 4007.49 380.137 3989.81 328.749 3966.21C277.362 3942.61 232.162 3913.07 199.806 3873.89C167.433 3834.7 147.955 3785.91 147.955 3723.93V3723.91L147.956 3723.89C149.208 3691.58 152.771 3671.71 162.916 3639.13C173.084 3606.49 184.876 3587.88 203.58 3564.8C207.841 3559.55 212.278 3554.41 216.886 3549.42C187.103 3537.22 161.227 3510.16 141.52 3479.44C117.055 3441.29 101.906 3397.19 100.546 3368.01C92.5273 3289.16 121.761 3239.11 160.442 3193.12C171.333 3180.17 188.296 3168.74 207.137 3159.82C225.99 3150.88 246.802 3144.42 265.462 3141.46C302.093 3135.64 332.038 3137.27 362.28 3141.59C375.436 3143.46 388.655 3145.84 402.493 3148.34C404.549 3148.71 406.618 3149.08 408.703 3149.46C424.829 3152.35 441.897 3155.32 460.793 3157.77L460.83 3157.78L460.867 3157.79C466.875 3159.03 479.454 3159.82 497.188 3159.76C514.891 3159.7 537.654 3158.8 563.98 3156.7C616.634 3152.51 683.516 3143.53 752.656 3126.94C821.8 3110.34 893.168 3086.15 954.814 3051.53C1016.46 3016.92 1068.33 2971.92 1098.56 2913.74C1140.32 2833.39 1151.23 2763.96 1143.22 2705.92C1135.21 2647.88 1108.26 2601.15 1074.19 2566.23C1054.27 2545.82 1031.93 2529.45 1009.51 2517.22C1001.87 2518.44 994.337 2519.48 986.975 2520.34C953.027 2524.31 922.703 2524.56 902.437 2521.45C892.34 2519.9 884.578 2517.5 880.139 2514.19C877.901 2512.52 876.414 2510.54 876 2508.25C875.584 2505.95 876.286 2503.53 877.989 2501.06L878.05 2500.97L878.128 2500.9C886.036 2493.47 898.118 2489.44 912.723 2488.59C927.344 2487.74 944.602 2490.09 963.001 2495.52C978.106 2499.98 994.003 2506.53 1009.87 2515.14C1037.19 2510.75 1065.86 2504.06 1092.88 2494.88C1127.67 2483.05 1159.66 2467.12 1182.52 2446.7C1290.08 2350.64 1298.25 2145.81 1162.59 2010.66C1139.43 1987.59 1117.76 1974.45 1085.94 1955.18L1084.04 1954.02C1051.18 1934.11 1007.64 1907.52 941.207 1857.25C874.393 1806.68 870.361 1737.29 885.029 1686.38C886.097 1682.67 887.265 1679.06 888.516 1675.56C864.034 1679.46 833.519 1680.23 801.061 1679.01C715.917 1675.82 616.929 1658.93 577.074 1648.41C509.378 1630.55 403.292 1593.37 304.83 1539.32C285.398 1528.66 239.372 1499.87 190.865 1456.78C142.364 1413.7 91.3221 1356.28 61.9433 1288.34C33.4905 1222.55 29.7365 1143.36 37.5752 1072.78C45.4129 1002.22 64.8594 940.114 82.9587 908.456C114.782 852.793 154.695 815.164 214.486 779.593C258.917 753.16 303.971 735.396 359.284 716.506C379.108 709.736 395.467 704.455 410.489 699.605C447.657 687.607 476.636 678.251 529.628 655.533C559.742 642.623 590.139 630.662 619.093 619.268C623.236 617.638 627.349 616.02 631.427 614.412C664.021 601.562 694.396 589.386 720.024 577.3C750.42 562.965 810.946 531.473 846.539 512.953C855.617 508.23 863.072 504.351 867.993 501.815C907.727 481.339 1080.5 375.996 1121.9 349.609C1160.27 325.155 1196.06 294.815 1222.7 262.342C1249.34 229.853 1266.74 195.318 1268.47 162.462C1270.2 129.685 1256.34 98.417 1220.13 72.3339C1183.87 46.2144 1125.19 25.3085 1037.37 13.4431C910.604 -3.68288 738.87 0.174188 592.472 13.448C463.69 25.1245 416.164 40.0418 369.479 54.6955C363.118 56.6919 356.773 58.6834 350.241 60.6612C332.054 66.1674 309.78 75.6285 285.374 85.995C273.287 91.1293 260.677 96.4858 247.781 101.694C208.93 117.384 167.564 131.69 130.568 134.202C130.017 134.239 129.54 133.823 129.502 133.272C129.465 132.721 129.881 132.244 130.432 132.206C167.085 129.718 208.194 115.524 247.032 99.8391C259.827 94.6718 272.385 89.3382 284.449 84.2141C308.925 73.8182 331.371 64.2843 349.661 58.747C356.19 56.7703 362.534 54.7793 368.895 52.783C415.643 38.1105 463.307 23.1511 592.291 11.4561ZM1006.6 2515.65C991.627 2507.72 976.671 2501.64 962.434 2497.44C944.196 2492.05 927.175 2489.76 912.839 2490.59C898.538 2491.41 887.016 2495.34 879.576 2502.28C878.114 2504.44 877.679 2506.3 877.968 2507.9C878.262 2509.52 879.344 2511.1 881.335 2512.58C885.356 2515.58 892.695 2517.93 902.74 2519.47C922.759 2522.54 952.885 2522.32 986.743 2518.35C993.242 2517.59 999.876 2516.69 1006.6 2515.65ZM220.352 3548.63C226.535 3550.95 232.873 3552.61 239.348 3553.51C265.177 3557.1 297.456 3557.93 346.861 3544.47C369.613 3538.27 387.937 3526.86 398.902 3514.04C409.859 3501.23 413.343 3487.21 407.009 3475.48C398.282 3463.98 382.723 3461.68 366.471 3463.53C350.249 3465.38 333.706 3471.34 323.558 3475.85C303.241 3484.88 280.543 3498.86 265.659 3509.26C249.202 3520.75 234.043 3534.06 220.352 3548.63ZM891.582 1673.02C897.823 1671.92 903.627 1670.61 908.922 1669.06C922.095 1665.2 931.963 1659.91 937.588 1652.99C943.151 1646.14 944.667 1637.57 940.867 1626.78C939.908 1624.06 938.613 1622.27 937.128 1621.23C935.66 1620.2 933.911 1619.82 931.887 1620.1C927.761 1620.67 922.6 1623.96 917.079 1629.7C908.19 1638.95 898.72 1654.19 891.582 1673.02Z" fill="#FC4545"/>
<path d="M42.5 5339.5C58 5396 105.027 5449.6 150 5468.5C194.973 5487.4 265 5505.5 322.5 5505.5C380 5505.5 430 5488.76 512.5 5478.63C595 5468.5 655.146 5464.5 725.5 5464.5C781.142 5464.5 842.5 5470.06 891 5478.63C939.5 5487.2 972 5494.5 1003.5 5505.5C1035 5516.5 1076 5528.5 1101 5547C1126 5565.5 1196 5620 1197 5699.5C1198 5779 1166.5 5846.5 1109 5913.5C1051.5 5980.5 943.5 6027.5 850 6063.5C756.5 6099.5 691.5 6115.23 606 6147C520.5 6178.77 438 6211.5 396.5 6230.5C355 6249.5 311 6278.5 285 6301.5C259 6324.5 220 6368.5 195 6407.5C170 6446.5 148.5 6494 140 6542C131.5 6590 134 6648 157.5 6698C181 6748 214.5 6783.5 243 6808C271.5 6832.5 321 6849.5 363 6857.5C405 6865.5 445 6857.5 460 6837.5C475 6817.5 469 6790.5 443.5 6772.5C418 6754.5 375.5 6758 346 6765.5C316.5 6773 270.292 6794.2 240 6817.5C209.708 6840.8 185 6857.5 157.5 6892.5C130 6927.5 101 6976 97.5 7039C94 7102 121.5 7172 157.5 7217.5C193.5 7263 259.5 7319 325.5 7351.5C391.5 7384 434 7396 497 7412.5C560 7429 613.257 7442.93 675.331 7460.38C707.664 7469.48 771.5 7489 795 7496C818.5 7503 866.678 7519.9 896 7532C982.528 7567.71 1046.5 7608 1102.07 7655.72C1157.64 7703.45 1165.5 7715.5 1189 7744.5C1212.5 7773.5 1232.5 7817.5 1246 7851.5C1259.5 7885.5 1267.5 7921.5 1273 7956.5C1278.5 7991.5 1284 8040 1284 8111" stroke="#FC4545" stroke-width="2" stroke-linecap="round"/>
<path d="M1284 8110C1284 8213 1257.22 8281.22 1201 8363C1156.48 8427.75 1061.5 8501.52 1002.75 8546.26C944 8591 840 8669.5 789.5 8709.5C739 8749.5 683.5 8795 631 8839.02C578.5 8883.03 541.5 8917.5 506 8953.5C470.5 8989.5 448 9014.5 419 9044.5C390 9074.5 346 9126.5 320.5 9157.5C295 9188.5 236.788 9265.68 203 9329.5C151.084 9427.56 122.532 9501.16 114.5 9614.5C110.976 9664.23 110 9771.5 126 9837C142 9902.5 180.5 9976 214 10026.5C247.5 10077 321.077 10129.1 379.5 10187.5C416.682 10224.7 473.763 10315.4 450.152 10380.3C426.226 10446.1 354.5 10491.5 330 10523C305.5 10554.5 278 10611.5 291 10675C304 10738.5 350.5 10795 392 10828C433.5 10861 523.5 10885.5 613 10909C702.5 10932.5 821.823 10970.4 904.5 11016C990.821 11063.6 1090.5 11148 1137.5 11197C1184.5 11246 1257.3 11351.2 1277 11430" stroke="#FC4545" stroke-width="2" stroke-linecap="round"/>
<path d="M1277 11430C1298 11527.5 1297 11598.5 1292 11660.5C1287 11722.5 1283 11746.5 1278 11776C1273 11805.5 1261 11852.5 1242 11889.5C1223 11926.5 1184.5 11990.5 1099.5 11998C1014.5 12005.5 904.5 11907.5 967.5 11907.5C1030.5 11907.5 1027.5 12043 980.5 12090C933.5 12137 819.5 12211.5 731 12244C642.5 12276.5 476.393 12327.4 351.976 12413.3C260.751 12476.2 159.071 12573 110.5 12658C61.9286 12743 34.3089 12824.7 17.597 12900.5C-3.86629 12997.9 -1.38014 13096.7 7.5768 13195.2" stroke="#FC4545" stroke-width="2" stroke-linecap="round"/>
</g>
<defs>
<clipPath id="clip0_1454_63">
<rect width="1297" height="13197" fill="white"/>
</clipPath>
</defs>
</svg>
