<svg width="746" height="124" viewBox="0 0 746 124" fill="none" xmlns="http://www.w3.org/2000/svg">
<path d="M9.26041 27.0117L726.118 17.268L736.892 33.504L710.241 33.8663L24.3854 43.1886L9.26041 27.0117Z" fill="#8FFE09" fill-opacity="0.2"/>
<path d="M33.6519 50.959L726.7 17.1764L736.356 33.0345L710.361 33.999L48.0969 67.2061L33.6519 50.959Z" fill="#8FFE09" fill-opacity="0.2"/>
<path d="M33.6075 51.3765L732.962 41.7989L743.473 58.0374L717.473 58.3935L48.3634 67.5569L33.6075 51.3765Z" fill="#8FFE09" fill-opacity="0.2"/>
<path d="M1.96259 73.5332L732.674 41.9721L743.306 57.9674L717.192 58.9345L17.0129 89.7509L1.96259 73.5332Z" fill="#8FFE09" fill-opacity="0.2"/>
<path d="M2.70862 73.1753L731.643 67.4933L742.415 83.7929L715.315 84.0042L17.905 89.4405L2.70862 73.1753Z" fill="#8FFE09" fill-opacity="0.2"/>
<path d="M169.264 95.6385L731.165 67.781L742.131 83.7653L719.84 84.5871L182.215 111.406L169.264 95.6385Z" fill="#8FFE09" fill-opacity="0.2"/>
<path d="M169.26 95.5195L644.097 54.9918L657.127 69.0176L639.81 70.7581L182.401 111.424L169.26 95.5195Z" fill="#8FFE09" fill-opacity="0.2"/>
</svg>
