<svg width="320" height="397" viewBox="0 0 320 397" fill="none" xmlns="http://www.w3.org/2000/svg">
<rect width="320" height="397" fill="#FC4545"/>
<path fill-rule="evenodd" clip-rule="evenodd" d="M300 30H20V138.786L43.5694 141.503H47.8758C48.1304 141.503 48.2996 141.499 48.4786 141.494H48.4797L48.4816 141.493C48.6208 141.49 48.7664 141.485 48.9628 141.483C49.3143 141.48 49.7555 141.486 50.2146 141.578C50.9119 141.718 51.5012 142.022 52.0256 142.478L57.5594 143.116C58.4761 143.015 59.54 142.942 60.6635 143.111C61.6865 143.265 62.6678 143.506 63.5358 143.719L63.5376 143.719C63.7726 143.777 63.9993 143.832 64.2162 143.884L68.0712 144.328H74.9992C75.501 144.328 76.0635 144.289 76.735 144.243L76.8392 144.236C77.5274 144.188 78.3112 144.136 79.0947 144.142C80.5814 144.153 82.4828 144.363 84.0077 145.618C84.0318 145.629 84.1054 145.662 84.2507 145.703C84.4996 145.774 84.8273 145.834 85.2263 145.888C85.573 145.934 85.9245 145.969 86.2863 146.005L86.4442 146.02C86.8274 146.059 87.2749 146.104 87.6451 146.175C88.2359 146.288 88.8213 146.379 89.4462 146.477L89.4536 146.478C90.0668 146.573 90.718 146.674 91.3897 146.803C91.9664 146.913 92.5679 147.069 93.1128 147.215L98.0177 147.781H100.184C100.496 147.781 100.841 147.775 101.204 147.769H101.206C102.01 147.755 102.903 147.74 103.728 147.784C103.761 147.785 103.798 147.787 103.84 147.789L103.944 147.794L103.945 147.794C104.277 147.809 104.801 147.833 105.305 147.879C105.628 147.908 105.983 147.949 106.32 148.012C106.619 148.067 107.056 148.165 107.457 148.365C108.094 148.682 108.846 148.71 110.133 148.677C110.194 148.676 110.257 148.674 110.321 148.672C111.44 148.642 113.021 148.598 114.535 149.269C115.525 149.708 116.726 149.856 118.243 149.932C118.525 149.946 118.822 149.958 119.131 149.97C120.36 150.018 121.768 150.072 123.075 150.326C124.041 150.514 124.958 150.547 126.081 150.588L126.086 150.588C126.253 150.594 126.424 150.6 126.601 150.607C127.409 150.639 127.994 151.045 128.258 151.257C131.152 151.415 134.027 151.548 136.967 151.548C138.604 151.548 140.037 152.157 141.087 152.604L141.133 152.623C141.28 152.686 141.419 152.745 141.552 152.8L146.826 153.408C148.203 153.396 149.659 153.416 151.025 153.605C151.716 153.701 152.352 153.801 152.957 153.897C154.582 154.152 155.979 154.372 157.595 154.372C159.247 154.372 160.974 154.738 162.61 155.228L176.968 156.884H182.217C183.071 156.884 183.821 157.124 184.289 157.274L184.329 157.287C184.888 157.466 185.071 157.511 185.216 157.511C187.755 157.511 190.092 157.82 192.408 158.125L193.233 158.234L193.234 158.234C196.705 158.69 200.203 159.15 203.691 159.715C204.808 159.896 206.053 159.906 207.422 159.859C207.858 159.844 208.322 159.822 208.797 159.799C209.732 159.755 210.711 159.708 211.61 159.708C213.824 159.708 216.015 159.87 218.124 160.026L218.15 160.027C220.291 160.185 222.348 160.336 224.401 160.336C226.209 160.336 227.777 160.854 229.048 161.274L229.13 161.301C230.482 161.747 231.52 162.076 232.667 162.076C235.255 162.076 237.805 162.439 240.228 162.825C240.601 162.884 240.97 162.944 241.336 163.003C243.392 163.336 245.347 163.652 247.302 163.794C247.541 163.811 247.781 163.784 248.218 163.734L248.357 163.718C248.402 163.713 248.45 163.707 248.499 163.702C249.015 163.645 249.825 163.563 250.664 163.778C250.904 163.839 251.244 163.864 251.749 163.85C251.875 163.847 252.061 163.838 252.27 163.828L252.275 163.828L252.278 163.828L252.279 163.828C252.653 163.81 253.101 163.789 253.414 163.789C254.611 163.789 256.072 164.235 257.177 164.572L257.337 164.62C258.681 165.029 259.6 165.289 260.167 165.289C261.129 165.289 262.114 165.541 262.988 165.831C263.864 166.121 264.776 166.501 265.608 166.848L265.642 166.862C265.924 166.98 266.197 167.094 266.462 167.202L291.443 170.082L300 171V163.235C299.443 163.069 298.928 162.805 298.516 162.582C298.495 162.571 298.476 162.56 298.458 162.55C298.17 162.528 297.856 162.525 297.564 162.54C297.351 162.551 297.18 162.555 297.035 162.558C296.762 162.563 296.579 162.567 296.375 162.616C296.372 162.617 296.366 162.619 296.357 162.621C296.295 162.637 296.109 162.685 295.892 162.723C295.869 165.034 294.116 166.9 291.956 166.9C289.783 166.9 288.02 165.009 288.02 162.677C288.02 160.345 289.783 158.454 291.956 158.454C293.088 158.454 294.108 158.967 294.826 159.787C295.089 159.525 295.46 159.396 295.84 159.474C295.89 159.484 295.937 159.491 295.979 159.496C296.021 159.501 296.053 159.502 296.076 159.501L296.077 159.501C296.425 159.32 296.75 159.359 296.89 159.385C297.007 159.407 297.11 159.441 297.187 159.472C297.337 159.469 297.44 159.463 297.536 159.449C298.092 159.366 298.654 159.422 299.077 159.471C299.2 159.454 299.321 159.453 299.436 159.465C299.657 159.487 299.855 159.555 300 159.616V139.895C299.908 139.852 299.821 139.831 299.73 139.831C299.131 139.831 298.525 139.693 297.982 139.569C297.825 139.533 297.673 139.499 297.528 139.469C296.848 139.33 296.247 139.273 295.645 139.488C295.438 139.562 295.229 139.597 295.03 139.612C294.309 140.578 293.2 141.197 291.956 141.197C289.783 141.197 288.02 139.306 288.02 136.974C288.02 134.642 289.783 132.751 291.956 132.751C293.689 132.751 295.16 133.952 295.686 135.621C295.706 135.62 295.726 135.62 295.747 135.62C296.517 135.62 297.258 135.723 297.979 135.823C298.082 135.837 298.185 135.851 298.288 135.865C298.863 135.943 299.406 135.914 300 135.881V113.209C299.724 113.163 299.451 113.112 299.183 113.062C298.926 113.014 298.674 112.966 298.427 112.925C298.133 112.875 297.812 112.87 297.462 112.88C297.344 112.883 297.216 112.889 297.085 112.894C296.853 112.904 296.61 112.915 296.387 112.915C296.276 112.915 296.123 112.954 295.919 113.036C295.79 113.088 295.691 113.134 295.586 113.183C295.537 113.206 295.487 113.229 295.433 113.253C294.771 114.586 293.462 115.493 291.956 115.493C289.783 115.493 288.02 113.603 288.02 111.271C288.02 108.939 289.783 107.048 291.956 107.048C293.447 107.048 294.743 107.936 295.412 109.246C295.536 109.272 295.655 109.297 295.769 109.322C296.283 109.433 296.712 109.526 297.209 109.526C297.298 109.526 297.393 109.497 297.569 109.43L297.608 109.414C297.762 109.355 297.983 109.269 298.227 109.246C298.711 109.199 299.294 109.172 299.817 109.234C299.893 109.243 299.962 109.269 300 109.285V89.2859C299.542 89.2233 299.113 89.1219 298.776 89.037C298.509 88.9698 298.284 88.8747 298.117 88.7955C297.972 88.7266 297.833 88.6507 297.747 88.6037L297.723 88.5904C297.667 88.5601 297.63 88.5403 297.604 88.5267C297.58 88.5255 297.548 88.5242 297.505 88.5233C297.472 88.5226 297.437 88.522 297.395 88.5215L297.388 88.5213C297.35 88.5208 297.306 88.5202 297.261 88.5193C297.167 88.5173 297.045 88.5137 296.915 88.5036C296.856 88.4989 296.802 88.4925 296.756 88.4859C296.526 88.5222 296.177 88.5426 295.773 88.4219C295.633 88.3803 295.515 88.3367 295.426 88.3024C295.387 88.2875 295.349 88.2727 295.322 88.2617L295.313 88.2583C295.282 88.2461 295.263 88.2384 295.246 88.232C295.174 88.2229 295.103 88.2116 295.035 88.1993C294.314 89.1689 293.203 89.7902 291.956 89.7902C289.783 89.7902 288.02 87.8996 288.02 85.5675C288.02 83.2354 289.783 81.3448 291.956 81.3448C293.597 81.3448 295.003 82.4214 295.594 83.9518C295.616 83.9572 295.635 83.9618 295.656 83.9665C295.693 83.9748 295.708 83.9772 295.71 83.9775C296.072 84.0167 296.357 84.1106 296.551 84.1828C296.874 84.1579 297.13 84.2079 297.225 84.2264C297.24 84.2293 297.255 84.2323 297.267 84.2349C297.298 84.236 297.332 84.2365 297.38 84.2371C297.43 84.2378 297.494 84.2386 297.587 84.2406C297.767 84.2446 298.076 84.2542 298.404 84.322C298.903 84.425 299.326 84.6569 299.508 84.7565L299.537 84.7727C299.65 84.8342 299.696 84.8592 299.736 84.8784C299.828 84.9014 299.916 84.9224 300 84.9414V61.5506C299.86 61.5404 299.719 61.5141 299.578 61.4707C299.579 61.4709 299.579 61.4709 299.578 61.4707C299.573 61.4694 299.542 61.4613 299.463 61.4469C299.42 61.439 299.372 61.4309 299.311 61.4207L299.297 61.4183C299.243 61.4092 299.177 61.3981 299.11 61.3862C299.019 61.37 298.888 61.3464 298.732 61.3081C298.712 61.3304 298.691 61.3524 298.67 61.3743C298.442 61.606 298.166 61.7992 297.846 61.9317C297.533 62.0608 297.225 62.1132 296.942 62.1226L296.935 62.123L296.925 62.1237C296.912 62.1245 296.902 62.1252 296.89 62.1261L296.851 62.1288C296.79 62.1329 296.684 62.1399 296.565 62.1406C296.381 62.1418 295.91 62.1371 295.41 61.8924C294.741 63.2004 293.445 64.0871 291.956 64.0871C289.783 64.0871 288.02 62.1966 288.02 59.8645C288.02 57.5324 289.783 55.6418 291.956 55.6418C293.107 55.6418 294.143 56.1718 294.863 57.0166C295.327 57.014 295.817 57.1416 296.273 57.4744C296.295 57.4907 296.317 57.5072 296.338 57.5239C296.477 57.3839 296.64 57.2507 296.831 57.1361C297.13 56.9568 297.442 56.8553 297.745 56.8094C298.434 56.7052 299.047 56.8223 299.629 57.1331C299.657 57.1397 299.7 57.1489 299.769 57.1612C299.803 57.1673 299.838 57.1732 299.878 57.1799L300 57.2005V30ZM297.038 88.4256C297.042 88.4247 297.041 88.4249 297.036 88.426L297.038 88.4256ZM299.594 57.124C299.594 57.124 299.596 57.1244 299.598 57.1251L299.596 57.1245L299.594 57.124Z" fill="white"/>
<path fill-rule="evenodd" clip-rule="evenodd" d="M300 169.5L20 126V264.682L43.5694 267.4H47.8758C48.1304 267.4 48.2996 267.395 48.4786 267.39H48.4797L48.4816 267.39C48.6208 267.386 48.7664 267.382 48.9628 267.38C49.3143 267.376 49.7555 267.383 50.2146 267.475C50.9119 267.614 51.5012 267.918 52.0256 268.375L57.5594 269.013C58.4761 268.911 59.54 268.839 60.6635 269.007C61.6865 269.161 62.6678 269.402 63.5358 269.615L63.5376 269.616C63.7726 269.673 63.9993 269.729 64.2162 269.78L68.0712 270.225H74.9992C75.501 270.225 76.0635 270.186 76.735 270.139L76.8392 270.132C77.5274 270.085 78.3112 270.033 79.0947 270.039C80.5814 270.05 82.4828 270.26 84.0077 271.515C84.0318 271.526 84.1054 271.558 84.2507 271.599C84.4996 271.67 84.8273 271.731 85.2263 271.784C85.573 271.831 85.9245 271.865 86.2863 271.901L86.4442 271.917C86.8274 271.955 87.2749 272.001 87.6451 272.072C88.2359 272.185 88.8213 272.276 89.4462 272.373L89.4536 272.374C90.0668 272.47 90.718 272.571 91.3897 272.699C91.9664 272.81 92.5679 272.966 93.1128 273.112L98.0177 273.677H100.184C100.496 273.677 100.841 273.672 101.204 273.665H101.206C102.01 273.652 102.903 273.637 103.728 273.68C103.761 273.682 103.798 273.684 103.84 273.686L103.944 273.69L103.945 273.69C104.277 273.705 104.801 273.729 105.305 273.775C105.628 273.805 105.983 273.846 106.32 273.908C106.619 273.964 107.056 274.061 107.457 274.261C108.094 274.579 108.846 274.607 110.133 274.574C110.194 274.572 110.257 274.571 110.321 274.569C111.44 274.538 113.021 274.495 114.535 275.165C115.525 275.604 116.726 275.753 118.243 275.829C118.525 275.843 118.822 275.855 119.131 275.866C120.36 275.914 121.768 275.969 123.075 276.223C124.041 276.411 124.958 276.444 126.081 276.485L126.086 276.485C126.253 276.491 126.424 276.497 126.601 276.504C127.409 276.535 127.994 276.942 128.258 277.153C131.152 277.312 134.027 277.444 136.967 277.444C138.604 277.444 140.037 278.053 141.087 278.5L141.133 278.52C141.28 278.582 141.419 278.641 141.552 278.697L146.826 279.305C148.203 279.292 149.659 279.313 151.025 279.502C151.716 279.598 152.352 279.698 152.957 279.793C154.582 280.049 155.979 280.269 157.595 280.269C159.247 280.269 160.974 280.634 162.61 281.125L176.968 282.78H182.217C183.071 282.78 183.821 283.021 184.289 283.171L184.329 283.184C184.888 283.363 185.071 283.408 185.216 283.408C187.755 283.408 190.092 283.716 192.408 284.022L193.233 284.13L193.234 284.131C196.705 284.587 200.203 285.047 203.691 285.612C204.808 285.792 206.053 285.803 207.422 285.756C207.858 285.741 208.322 285.719 208.797 285.696C209.732 285.652 210.711 285.605 211.61 285.605C213.824 285.605 216.015 285.767 218.124 285.922L218.15 285.924C220.291 286.082 222.348 286.233 224.401 286.233C226.209 286.233 227.777 286.751 229.048 287.171L229.13 287.198C230.482 287.644 231.52 287.972 232.667 287.972C235.255 287.972 237.805 288.336 240.228 288.721C240.601 288.781 240.97 288.84 241.336 288.9C243.392 289.232 245.347 289.549 247.302 289.69C247.541 289.708 247.781 289.68 248.218 289.63L248.357 289.614C248.402 289.609 248.45 289.604 248.499 289.598C249.015 289.541 249.825 289.46 250.664 289.674C250.904 289.736 251.244 289.76 251.749 289.747C251.875 289.744 252.061 289.735 252.27 289.725L252.275 289.725L252.278 289.725L252.279 289.724C252.653 289.707 253.101 289.686 253.414 289.686C254.611 289.686 256.072 290.131 257.177 290.468L257.337 290.517C258.681 290.926 259.6 291.185 260.167 291.185C261.129 291.185 262.114 291.437 262.988 291.727C263.864 292.018 264.776 292.398 265.608 292.744L265.642 292.759C265.924 292.876 266.197 292.99 266.462 293.098L291.443 295.979L300 296.897V289.132C299.443 288.966 298.928 288.702 298.516 288.479C298.495 288.467 298.476 288.457 298.458 288.447C298.17 288.424 297.856 288.422 297.564 288.437C297.351 288.448 297.18 288.451 297.035 288.454C296.762 288.46 296.579 288.463 296.375 288.513C296.372 288.514 296.366 288.515 296.357 288.518C296.295 288.534 296.109 288.582 295.892 288.62C295.869 290.93 294.116 292.796 291.956 292.796C289.783 292.796 288.02 290.906 288.02 288.573C288.02 286.241 289.783 284.351 291.956 284.351C293.088 284.351 294.108 284.863 294.826 285.683C295.089 285.422 295.46 285.293 295.84 285.37C295.89 285.38 295.937 285.388 295.979 285.393C296.021 285.397 296.053 285.398 296.076 285.398L296.077 285.398C296.425 285.217 296.75 285.256 296.89 285.282C297.007 285.303 297.11 285.338 297.187 285.368C297.337 285.365 297.44 285.36 297.536 285.346C298.092 285.262 298.654 285.319 299.077 285.368C299.2 285.351 299.321 285.35 299.436 285.361C299.657 285.383 299.855 285.451 300 285.513V265.791C299.908 265.748 299.821 265.728 299.73 265.728C299.131 265.728 298.525 265.59 297.982 265.466C297.825 265.43 297.673 265.395 297.528 265.366C296.848 265.226 296.247 265.17 295.645 265.385C295.438 265.458 295.229 265.493 295.03 265.509C294.309 266.475 293.2 267.093 291.956 267.093C289.783 267.093 288.02 265.203 288.02 262.87C288.02 260.538 289.783 258.648 291.956 258.648C293.689 258.648 295.16 259.849 295.686 261.517C295.706 261.517 295.726 261.517 295.747 261.517C296.517 261.517 297.258 261.619 297.979 261.719C298.082 261.734 298.185 261.748 298.288 261.762C298.863 261.84 299.406 261.811 300 261.778V239.106C299.724 239.059 299.451 239.008 299.183 238.958C298.926 238.91 298.674 238.863 298.427 238.821C298.133 238.772 297.812 238.767 297.462 238.776C297.344 238.78 297.216 238.785 297.085 238.791C296.853 238.801 296.61 238.811 296.387 238.811C296.276 238.811 296.123 238.851 295.919 238.933C295.79 238.984 295.691 239.031 295.586 239.08C295.537 239.102 295.487 239.125 295.433 239.15C294.771 240.483 293.462 241.39 291.956 241.39C289.783 241.39 288.02 239.499 288.02 237.167C288.02 234.835 289.783 232.945 291.956 232.945C293.447 232.945 294.743 233.833 295.412 235.143C295.536 235.168 295.655 235.194 295.769 235.219C296.283 235.33 296.712 235.422 297.209 235.422C297.298 235.422 297.393 235.394 297.569 235.326L297.608 235.311C297.762 235.251 297.983 235.165 298.227 235.142C298.711 235.096 299.294 235.069 299.817 235.131C299.893 235.14 299.962 235.166 300 235.181V215.182C299.542 215.12 299.113 215.019 298.776 214.934C298.509 214.866 298.284 214.771 298.117 214.692C297.972 214.623 297.833 214.547 297.747 214.5L297.723 214.487C297.667 214.457 297.63 214.437 297.604 214.423C297.58 214.422 297.548 214.421 297.505 214.42C297.472 214.419 297.437 214.419 297.395 214.418L297.388 214.418C297.35 214.417 297.306 214.417 297.261 214.416C297.167 214.414 297.045 214.41 296.915 214.4C296.856 214.395 296.802 214.389 296.756 214.382C296.526 214.419 296.177 214.439 295.773 214.318C295.633 214.277 295.515 214.233 295.426 214.199C295.387 214.184 295.349 214.169 295.322 214.158L295.313 214.155C295.282 214.143 295.263 214.135 295.246 214.129C295.174 214.119 295.103 214.108 295.035 214.096C294.314 215.065 293.203 215.687 291.956 215.687C289.783 215.687 288.02 213.796 288.02 211.464C288.02 209.132 289.783 207.241 291.956 207.241C293.597 207.241 295.003 208.318 295.594 209.848C295.616 209.854 295.635 209.858 295.656 209.863C295.693 209.871 295.71 209.874 295.71 209.874C296.072 209.913 296.357 210.007 296.551 210.079C296.874 210.054 297.13 210.104 297.225 210.123C297.24 210.126 297.255 210.129 297.267 210.131C297.298 210.133 297.332 210.133 297.38 210.134C297.43 210.134 297.494 210.135 297.587 210.137C297.767 210.141 298.076 210.151 298.404 210.219C298.903 210.322 299.326 210.553 299.508 210.653L299.537 210.669C299.65 210.731 299.696 210.756 299.736 210.775C299.828 210.798 299.916 210.819 300 210.838V187.447C299.86 187.437 299.719 187.411 299.578 187.367C299.573 187.366 299.542 187.358 299.463 187.343C299.42 187.336 299.372 187.327 299.311 187.317L299.297 187.315C299.243 187.306 299.177 187.295 299.11 187.283C299.019 187.267 298.888 187.243 298.732 187.205C298.712 187.227 298.691 187.249 298.67 187.271C298.442 187.503 298.166 187.696 297.846 187.828C297.533 187.957 297.225 188.01 296.942 188.019L296.935 188.02L296.925 188.02C296.912 188.021 296.902 188.022 296.89 188.023L296.851 188.025C296.79 188.029 296.684 188.036 296.565 188.037C296.381 188.038 295.91 188.034 295.41 187.789C294.741 189.097 293.445 189.984 291.956 189.984C289.783 189.984 288.02 188.093 288.02 185.761C288.02 183.429 289.783 181.538 291.956 181.538C293.107 181.538 294.143 182.068 294.863 182.913C295.327 182.911 295.817 183.038 296.273 183.371C296.295 183.387 296.317 183.404 296.338 183.42C296.477 183.28 296.64 183.147 296.831 183.033C297.13 182.853 297.442 182.752 297.745 182.706C298.434 182.602 299.047 182.719 299.629 183.03C299.657 183.036 299.7 183.045 299.769 183.058C299.803 183.064 299.838 183.07 299.878 183.076L300 183.097V169.5ZM297.038 214.322C297.042 214.321 297.041 214.321 297.036 214.323L297.038 214.322ZM299.594 183.021C299.594 183.021 299.596 183.021 299.598 183.022L299.596 183.021L299.594 183.021Z" fill="white"/>
</svg>
