<svg width="329" height="329" viewBox="0 0 329 329" fill="none" xmlns="http://www.w3.org/2000/svg">
<rect y="89.2957" width="255" height="255" transform="rotate(-20.4983 0 89.2957)" fill="#FFEC44"/>
<path d="M98.163 14.8712L99.2534 13.9571L101.25 14.4923L102.595 12.9226L104.592 13.4577L106.355 11.7587L108.352 12.2939L109.697 10.7242L111.694 11.2594L113.457 9.56037L115.454 10.0956L116.381 8.65517L118.378 9.19035L119.724 7.62065L121.72 8.15583L123.066 6.58613L125.062 7.12131L126.408 5.55161L128.404 6.08679L129.75 4.5171L131.747 5.05227L139.81 31.1001L106.389 41.4453L98.163 14.8712Z" fill="#F2F2F2" fill-opacity="0.3"/>
<path d="M98.163 14.8712L99.2534 13.9571L101.25 14.4923L102.595 12.9226L104.592 13.4577L106.355 11.7587L108.352 12.2939L109.697 10.7242L111.694 11.2594L113.457 9.56037L115.454 10.0956L116.381 8.65517L118.378 9.19035L119.724 7.62065L121.72 8.15583L123.066 6.58613L125.062 7.12131L126.408 5.55161L128.404 6.08679L129.75 4.5171L131.747 5.05227L139.81 31.1001L106.389 41.4453L98.163 14.8712Z" fill="#F2F2F2" fill-opacity="0.3"/>
<path d="M147.693 56.5674L146.595 57.4596L144.612 56.9683L143.253 58.4941L141.27 58.0028L139.494 59.6579L137.51 59.1666L136.151 60.6925L134.168 60.2011L132.392 61.8563L130.408 61.365L129.467 62.7615L127.484 62.2702L126.125 63.796L124.142 63.3047L122.783 64.8305L120.8 64.3392L119.441 65.8651L117.458 65.3737L116.099 66.8996L114.116 66.4083L106.389 41.4457L139.809 31.1005L147.693 56.5674Z" fill="#F2F2F2" fill-opacity="0.3"/>
<path d="M147.693 56.5674L146.595 57.4596L144.612 56.9683L143.253 58.4941L141.27 58.0028L139.494 59.6579L137.51 59.1666L136.151 60.6925L134.168 60.2011L132.392 61.8563L130.408 61.365L129.467 62.7615L127.484 62.2702L126.125 63.796L124.142 63.3047L122.783 64.8305L120.8 64.3392L119.441 65.8651L117.458 65.3737L116.099 66.8996L114.116 66.4083L106.389 41.4457L139.809 31.1005L147.693 56.5674Z" fill="#F2F2F2" fill-opacity="0.3"/>
</svg>
