<svg width="1140" height="426" viewBox="0 0 1140 426" fill="none" xmlns="http://www.w3.org/2000/svg">
<rect width="1140" height="426" fill="#FC4545"/>
<path fill-rule="evenodd" clip-rule="evenodd" d="M957 19H231V292.893L292.112 299.735H303.278C303.938 299.735 304.377 299.723 304.841 299.711H304.844L304.849 299.71C305.21 299.701 305.587 299.69 306.096 299.685C307.008 299.675 308.152 299.692 309.342 299.923C311.15 300.275 312.678 301.041 314.038 302.19L328.386 303.796C330.763 303.541 333.522 303.358 336.435 303.783C339.087 304.17 341.631 304.777 343.882 305.313L343.887 305.314C344.496 305.459 345.084 305.599 345.646 305.729L355.642 306.848H373.605C374.906 306.848 376.365 306.75 378.106 306.633L378.376 306.614C380.16 306.495 382.192 306.364 384.224 306.379C388.079 306.407 393.009 306.935 396.963 310.095C397.025 310.123 397.216 310.205 397.593 310.309C398.238 310.487 399.088 310.64 400.122 310.774C401.021 310.89 401.933 310.978 402.871 311.068L403.28 311.108C404.274 311.204 405.434 311.319 406.394 311.498C407.926 311.782 409.444 312.012 411.064 312.257L411.083 312.259C412.673 312.5 414.362 312.755 416.103 313.078C417.599 313.356 419.158 313.749 420.571 314.117L433.289 315.541H438.906C439.715 315.541 440.609 315.526 441.55 315.51H441.556C443.641 315.476 445.955 315.438 448.096 315.547C448.179 315.551 448.276 315.556 448.385 315.561L448.654 315.573L448.657 315.573L448.659 315.573C449.52 315.611 450.877 315.671 452.183 315.787C453.021 315.861 453.943 315.965 454.815 316.122C455.592 316.261 456.723 316.507 457.763 317.01C459.415 317.81 461.366 317.88 464.701 317.798C464.86 317.794 465.023 317.79 465.19 317.785C468.091 317.708 472.191 317.598 476.116 319.287C478.683 320.391 481.796 320.765 485.73 320.957C486.461 320.993 487.232 321.022 488.033 321.052C491.218 321.172 494.87 321.31 498.259 321.95C500.764 322.423 503.14 322.506 506.053 322.608L506.066 322.609C506.499 322.624 506.943 322.639 507.402 322.657C509.496 322.736 511.012 323.76 511.698 324.292C519.201 324.69 526.657 325.024 534.279 325.024C538.524 325.024 542.238 326.558 544.961 327.683L545.082 327.733C545.461 327.889 545.822 328.038 546.167 328.178L559.841 329.709C563.411 329.678 567.188 329.729 570.73 330.205C572.521 330.446 574.171 330.698 575.739 330.938C579.952 331.582 583.575 332.136 587.765 332.136C592.047 332.136 596.525 333.056 600.769 334.291L637.995 338.459H651.605C653.819 338.459 655.764 339.064 656.977 339.442L657.082 339.475C658.53 339.925 659.005 340.039 659.381 340.039C665.965 340.039 672.024 340.815 678.029 341.585L680.167 341.858L680.172 341.859L680.174 341.859C689.174 343.008 698.241 344.166 707.284 345.588C710.18 346.043 713.409 346.07 716.959 345.95C718.089 345.912 719.292 345.857 720.525 345.8L720.526 345.8C722.948 345.688 725.486 345.571 727.818 345.571C733.557 345.571 739.238 345.978 744.709 346.369L744.775 346.374C750.325 346.771 755.661 347.151 760.983 347.151C765.671 347.151 769.735 348.455 773.032 349.513L773.245 349.581C776.751 350.704 779.44 351.532 782.414 351.532C789.126 351.532 795.737 352.446 802.021 353.417C802.988 353.566 803.945 353.717 804.894 353.866C810.223 354.703 815.294 355.5 820.361 355.857C820.982 355.901 821.604 355.831 822.737 355.706L823.096 355.666C823.214 355.653 823.338 355.639 823.467 355.625C824.802 355.481 826.903 355.276 829.079 355.817C829.702 355.971 830.581 356.033 831.892 355.999C832.219 355.991 832.7 355.969 833.242 355.944L833.255 355.943L833.264 355.943L833.266 355.943L833.267 355.943L833.269 355.943C834.239 355.898 835.396 355.845 836.208 355.845C839.312 355.845 843.102 356.967 845.966 357.815L846.38 357.938C849.866 358.967 852.247 359.62 853.718 359.62C856.212 359.62 858.767 360.255 861.033 360.985C863.305 361.716 865.669 362.673 867.825 363.546L867.915 363.583C868.646 363.878 869.354 364.165 870.041 364.437L934.813 371.689L957 374V354.45C955.556 354.033 954.219 353.368 953.152 352.806C953.099 352.778 953.048 352.75 953.003 352.725C952.256 352.67 951.442 352.663 950.685 352.701C950.131 352.729 949.689 352.737 949.313 352.745L949.31 352.745C948.602 352.758 948.13 352.767 947.602 352.892C947.593 352.894 947.576 352.898 947.553 352.904C947.394 352.944 946.912 353.065 946.35 353.161C946.29 358.979 941.744 363.676 936.144 363.676C930.508 363.676 925.938 358.916 925.938 353.045C925.938 347.173 930.508 342.413 936.144 342.413C939.078 342.413 941.723 343.703 943.585 345.768C944.266 345.109 945.229 344.785 946.213 344.979C946.344 345.005 946.464 345.024 946.573 345.036C946.683 345.048 946.766 345.051 946.825 345.049L946.828 345.049C947.73 344.593 948.572 344.692 948.937 344.758C949.239 344.812 949.505 344.898 949.707 344.975C950.094 344.967 950.363 344.954 950.612 344.918C952.052 344.708 953.511 344.851 954.607 344.973C954.927 344.931 955.24 344.928 955.538 344.957C956.111 345.013 956.624 345.184 957 345.339V295.686C956.761 295.577 956.535 295.526 956.301 295.526C954.747 295.526 953.175 295.178 951.768 294.866C951.36 294.776 950.966 294.688 950.59 294.614C948.828 294.263 947.27 294.12 945.708 294.662C945.173 294.847 944.629 294.935 944.114 294.974C942.243 297.406 939.368 298.963 936.144 298.963C930.508 298.963 925.938 294.203 925.938 288.331C925.938 282.46 930.508 277.7 936.144 277.7C940.637 277.7 944.452 280.724 945.815 284.925C945.867 284.924 945.919 284.923 945.972 284.923C947.97 284.923 949.891 285.182 951.759 285.433C952.028 285.469 952.295 285.505 952.561 285.54C954.053 285.737 955.461 285.664 957 285.58V228.498C956.284 228.382 955.577 228.253 954.882 228.127L954.881 228.127C954.215 228.005 953.561 227.886 952.922 227.782C952.159 227.658 951.328 227.644 950.421 227.669C950.113 227.678 949.782 227.691 949.443 227.706L949.441 227.706C948.839 227.731 948.21 227.757 947.631 227.757C947.345 227.757 946.947 227.856 946.419 228.062C946.085 228.193 945.827 228.309 945.554 228.432C945.428 228.489 945.299 228.548 945.157 228.61C943.441 231.965 940.049 234.249 936.144 234.249C930.508 234.249 925.938 229.489 925.938 223.618C925.938 217.746 930.508 212.986 936.144 212.986C940.008 212.986 943.37 215.223 945.103 218.521C945.425 218.585 945.733 218.65 946.029 218.712C947.362 218.991 948.476 219.225 949.763 219.225C949.993 219.225 950.241 219.153 950.696 218.983L950.799 218.944C951.196 218.794 951.769 218.578 952.404 218.519C953.657 218.403 955.168 218.334 956.524 218.49C956.724 218.513 956.901 218.578 957 218.617V168.266C955.813 168.108 954.699 167.853 953.826 167.639C953.135 167.47 952.551 167.231 952.119 167.031C951.743 166.858 951.382 166.667 951.159 166.548L951.158 166.548L951.096 166.515C950.952 166.439 950.856 166.389 950.787 166.354C950.726 166.351 950.642 166.348 950.531 166.346C950.445 166.344 950.355 166.343 950.247 166.341L950.227 166.341C950.129 166.34 950.014 166.338 949.898 166.336C949.654 166.331 949.339 166.322 949.002 166.296C948.848 166.284 948.708 166.268 948.588 166.252C947.991 166.343 947.087 166.394 946.039 166.091C945.677 165.986 945.37 165.876 945.139 165.79C945.039 165.752 944.942 165.715 944.87 165.687L944.847 165.679C944.768 165.648 944.717 165.629 944.673 165.613C944.486 165.59 944.302 165.561 944.126 165.53C942.256 167.971 939.375 169.535 936.144 169.535C930.508 169.535 925.938 164.776 925.938 158.904C925.938 153.032 930.508 148.272 936.144 148.272C940.398 148.272 944.043 150.983 945.576 154.836C945.633 154.85 945.683 154.861 945.736 154.873C945.831 154.894 945.872 154.9 945.877 154.901C946.815 155 947.555 155.236 948.057 155.418C948.894 155.355 949.56 155.481 949.805 155.528L949.807 155.528C949.845 155.535 949.882 155.542 949.915 155.549C949.994 155.552 950.082 155.553 950.207 155.554C950.335 155.556 950.503 155.558 950.742 155.563C951.211 155.573 952.01 155.597 952.862 155.768C954.157 156.027 955.252 156.611 955.723 156.862L955.799 156.903C956.092 157.058 956.212 157.121 956.316 157.169C956.555 157.227 956.783 157.28 957 157.328V98.4358C956.637 98.4102 956.27 98.3441 955.906 98.2347C955.908 98.2352 955.909 98.2353 955.906 98.2347C955.894 98.2315 955.812 98.2111 955.609 98.1749C955.496 98.1548 955.373 98.1346 955.215 98.1088L955.178 98.1028C955.036 98.0798 954.865 98.052 954.693 98.022C954.458 97.9811 954.117 97.9218 953.713 97.8254C953.66 97.8814 953.606 97.937 953.55 97.9921C952.96 98.5753 952.245 99.0619 951.414 99.3955C950.604 99.7205 949.804 99.8523 949.072 99.8761L949.052 99.8772L949.026 99.8788C948.993 99.8809 948.969 99.8825 948.935 99.8848L948.834 99.8916C948.677 99.9019 948.401 99.9196 948.093 99.9215C947.616 99.9243 946.394 99.9125 945.098 99.2965C943.364 102.59 940.004 104.822 936.144 104.822C930.508 104.822 925.938 100.062 925.938 94.1907C925.938 88.3191 930.508 83.5592 936.144 83.5592C939.128 83.5592 941.813 84.8934 943.68 87.0204C944.883 87.0141 946.154 87.3352 947.336 88.1732C947.393 88.2141 947.45 88.2557 947.505 88.2979C947.865 87.9452 948.288 87.61 948.784 87.3213C949.558 86.8699 950.367 86.6144 951.154 86.4988C952.939 86.2366 954.528 86.5314 956.037 87.3139C956.109 87.3305 956.223 87.3536 956.401 87.3845C956.49 87.3998 956.58 87.4148 956.683 87.4316L957 87.4835V19ZM949.319 166.1C949.329 166.098 949.327 166.098 949.316 166.101L949.319 166.1ZM955.948 87.291C955.948 87.2909 955.951 87.2918 955.957 87.2937L955.952 87.2921L955.948 87.291Z" fill="white"/>
</svg>
