<svg width="50" height="64" viewBox="0 0 50 64" fill="none" xmlns="http://www.w3.org/2000/svg">
<path d="M0.16301 10.8712L1.2534 9.95708L3.25021 10.4923L4.59546 8.92256L6.59227 9.45774L8.35529 7.75873L10.3521 8.29391L11.6974 6.72421L13.6942 7.25939L15.4572 5.56037L17.454 6.09555L18.3815 4.65517L20.3783 5.19035L21.7236 3.62065L23.7204 4.15583L25.0656 2.58613L27.0624 3.12131L28.4077 1.55161L30.4045 2.08679L31.7498 0.517095L33.7466 1.05227L41.8095 27.1001L8.38888 37.4453L0.16301 10.8712Z" fill="#F2F2F2" fill-opacity="0.3"/>
<path d="M0.16301 10.8712L1.2534 9.95708L3.25021 10.4923L4.59546 8.92256L6.59227 9.45774L8.35529 7.75873L10.3521 8.29391L11.6974 6.72421L13.6942 7.25939L15.4572 5.56037L17.454 6.09555L18.3815 4.65517L20.3783 5.19035L21.7236 3.62065L23.7204 4.15583L25.0656 2.58613L27.0624 3.12131L28.4077 1.55161L30.4045 2.08679L31.7498 0.517095L33.7466 1.05227L41.8095 27.1001L8.38888 37.4453L0.16301 10.8712Z" fill="#F2F2F2" fill-opacity="0.3"/>
<path d="M49.6926 52.5674L48.5954 53.4596L46.6122 52.9683L45.2534 54.4941L43.2701 54.0028L41.4935 55.6579L39.5103 55.1666L38.1515 56.6925L36.1682 56.2011L34.3916 57.8563L32.4084 57.365L31.4673 58.7615L29.4841 58.2702L28.1253 59.796L26.142 59.3047L24.7832 60.8305L22.8 60.3392L21.4411 61.8651L19.4579 61.3737L18.0991 62.8996L16.1158 62.4083L8.38881 37.4457L41.8095 27.1005L49.6926 52.5674Z" fill="#F2F2F2" fill-opacity="0.3"/>
<path d="M49.6926 52.5674L48.5954 53.4596L46.6122 52.9683L45.2534 54.4941L43.2701 54.0028L41.4935 55.6579L39.5103 55.1666L38.1515 56.6925L36.1682 56.2011L34.3916 57.8563L32.4084 57.365L31.4673 58.7615L29.4841 58.2702L28.1253 59.796L26.142 59.3047L24.7832 60.8305L22.8 60.3392L21.4411 61.8651L19.4579 61.3737L18.0991 62.8996L16.1158 62.4083L8.38881 37.4457L41.8095 27.1005L49.6926 52.5674Z" fill="#F2F2F2" fill-opacity="0.3"/>
</svg>
