<svg width="35" height="37" viewBox="0 0 35 37" fill="none" xmlns="http://www.w3.org/2000/svg">
<path d="M26.4967 34.5483C26.2993 34.757 26.1183 35.1933 25.9536 35.8572L24.7146 36.2048C24.1219 35.9557 23.7066 35.7666 23.4688 35.6373C22.4094 35.0618 21.97 34.1182 22.1504 32.8067C21.7551 32.3489 21.3314 31.6083 20.8793 30.585C20.3345 29.2683 19.9789 28.4797 19.8125 28.2191C19.5481 27.8811 19.1891 27.3822 18.7354 26.7226C18.311 25.9574 17.8622 24.8508 17.3888 23.4027C17.1068 22.7878 16.6782 21.8501 16.1029 20.5897C14.2186 21.9963 12.6506 23.2588 11.3989 24.3772C10.2072 25.3338 9.03137 26.2868 7.87145 27.2363C6.53453 28.357 5.48394 29.4145 4.71969 30.4089C4.29467 30.4696 3.98285 30.5797 3.78422 30.7391C3.27922 30.5863 2.63211 30.7208 1.84289 31.1426C1.39905 30.8772 0.990007 30.0838 0.615757 28.7625C0.580248 28.6217 0.618563 28.4481 0.730703 28.2417C1.16907 27.4348 1.75536 27 2.48957 26.9371C3.40482 26.4379 4.72364 25.6598 6.44604 24.6027C7.60473 23.6039 9.38723 22.1785 11.7936 20.3264C11.8037 20.3077 13.0379 19.5565 15.4961 18.0728C15.1169 16.5545 14.3539 14.6088 13.2069 12.2358C12.6773 11.0975 12.1038 9.911 11.4864 8.67639C11.4864 8.67639 10.9991 7.94985 10.0244 6.49679C9.27203 5.40757 8.72352 4.79362 8.37882 4.65496C7.86239 4.47159 7.97056 3.67976 8.70334 2.27944L8.9633 1.80095C9.14681 1.46319 9.26343 1.22277 9.31317 1.07967C9.82221 0.967378 10.1353 0.906579 10.2523 0.897272C10.4763 0.89742 10.814 0.971555 11.2656 1.11968C11.5238 1.21136 11.7502 1.31006 11.9448 1.41577C12.5285 1.73292 12.887 2.20713 13.02 2.8384C13.1747 3.48141 13.3237 4.10917 13.467 4.72168C13.8795 5.86934 14.1291 6.46666 14.2155 6.51364C14.9855 7.87976 16.0455 9.97461 17.3957 12.7982C17.4439 13.0188 17.532 13.3462 17.6602 13.7804C17.9597 14.6722 18.3826 15.5946 18.929 16.5476L21.9138 14.378C22.026 14.1716 22.2819 13.9582 22.6816 13.7379C23.2188 13.4708 23.5345 13.3021 23.6287 13.2317C24.2209 12.6056 25.1746 11.7264 26.4899 10.5939C27.2448 10.0806 28.5532 8.88361 30.415 7.00303C30.8502 6.92354 31.1722 6.7947 31.381 6.61651C31.8758 6.78813 32.5395 6.67477 33.3719 6.27643C33.8056 6.56063 34.172 7.35513 34.4712 8.65992C34.5079 8.85 34.4651 9.05763 34.3428 9.2828C33.9554 9.99585 33.3685 10.4061 32.5821 10.5135C31.677 10.9939 30.3468 11.7415 28.5913 12.7564C28.2349 13.0001 26.4301 14.3892 23.1771 16.9235C22.403 17.5237 21.2418 18.4239 19.6936 19.6242C19.8381 20.286 20.1581 21.1403 20.6534 22.1871C21.2949 23.532 21.6841 24.3876 21.8212 24.7537C22.3721 26.3167 23.7667 28.569 26.0049 31.5105C26.0645 31.7617 26.3732 32.379 26.9309 33.3625C26.8722 33.5736 26.7275 33.9689 26.4967 34.5483Z" fill="#FC4545"/>
</svg>
