<svg width="1304" height="5167" viewBox="0 0 1304 5167" fill="none" xmlns="http://www.w3.org/2000/svg">
<path d="M844.5 5082C801 5123 708.461 5161.68 606 5164.5C333.5 5172 237.553 5109 188.5 5021.5C139.447 4934 147 4822.5 177 4765.5C207 4708.5 305 4589.08 409 4523C513 4456.92 622.5 4416 762.5 4375C902.5 4334 1086.34 4227.29 1165.84 4129.29C1245.34 4031.29 1284.5 3934.5 1284.5 3829C1284.5 3723.5 1214.5 3585.5 1050 3511.5C918.4 3452.3 628.167 3343.33 409 3310.5C340.5 3296.83 1 3239.3 1 3002.5C1 2735 252.5 2632 409 2591C565.5 2550 908.844 2472 1081.84 2324C1254.84 2176 1317.5 2074 1300 1926C1282.5 1778 1044.83 1713 921.5 1718.5C779 1726.67 281.999 1792 91.5 1608C32.4998 1551.01 -12.6163 1347.92 112 1249.5C269 1125.5 435.048 1122 593.5 1103C814.5 1076.5 1098.49 1001 1152.5 949C1246.5 858.5 1317.91 728.5 1300 534C1280 316.8 876.5 330.5 569 231C261.5 131.5 189 61.5 133.5 1" stroke="#FC4545" stroke-width="2"/>
</svg>
